<?xml version="1.0" encoding="UTF-8" standalone="no"?>
<!DOCTYPE svg PUBLIC "-//W3C//DTD SVG 1.0//EN"
"http://www.w3.org/TR/2001/REC-SVG-20010904/DTD/svg10.dtd">
<!-- Created with Inkscape (http://www.inkscape.org/) -->
<svg
   xmlns="http://www.w3.org/2000/svg"
   xmlns:xlink="http://www.w3.org/1999/xlink"
   version="1.0"
   x="0.0000000"
   y="0.0000000"
   width="135.00000"
   height="90.00000"
   id="svg3841">
  <defs
     id="defs3843" />
  <g transform="scale(0.3)">
  <rect
     width="540.00000"
     height="360.00000"
     x="125.00000"
     y="317.36218"
     transform="matrix(0.833333,0.000000,0.000000,0.833333,-104.1667,-264.4684)"
     style="fill:#ce1126;fill-opacity:1.0000000;fill-rule:evenodd;stroke:none;stroke-width:1.0000000pt;stroke-linecap:butt;stroke-linejoin:miter;stroke-opacity:1.0000000"
     id="rect3850" />
  <rect
     width="540.00000"
     height="180.00000"
     x="125.00000"
     y="497.36218"
     transform="matrix(0.833333,0.000000,0.000000,0.833333,-104.1667,-264.4684)"
     style="fill:#ffffff;fill-opacity:1.0000000;fill-rule:evenodd;stroke:none;stroke-width:1.0000000pt;stroke-linecap:butt;stroke-linejoin:miter;stroke-opacity:1.0000000"
     id="rect4472" />
  <path
     d="M 427.50000 188.61218 A 97.500000 73.750000 0 1 1  232.50000,188.61218 A 97.500000 73.750000 0 1 1  427.50000 188.61218 z"
     transform="matrix(0.566239,0.000000,0.000000,0.748587,-92.06735,-66.19273)"
     style="fill:#ffffff;fill-opacity:1.0000000;fill-rule:evenodd;stroke:none;stroke-width:1.0000000pt;stroke-linecap:butt;stroke-linejoin:miter;stroke-opacity:1.0000000"
     id="path5094" />
  <path
     d="M 280.00000 234.23718 A 48.750000 44.375000 0 1 1  182.50000,234.23718 A 48.750000 44.375000 0 1 1  280.00000 234.23718 z"
     transform="matrix(1.239315,0.000000,0.000000,1.361502,-161.5918,-243.9144)"
     style="fill:#ce1126;fill-opacity:1.0000000;fill-rule:evenodd;stroke:none;stroke-width:1.0000000pt;stroke-linecap:butt;stroke-linejoin:miter;stroke-opacity:1.0000000"
     id="path5716" />
  <path
     d="M 287.03125,268.92047 L 298.65838,268.92047 L 302.25000,257.86218 L 305.84162,268.92047 L 317.46875,268.92047 L 308.06356,275.75389 L 311.65519,286.81218 L 302.25000,279.97875 L 292.84481,286.81218 L 296.43644,275.75389 L 287.03125,268.92047 z "
     transform="matrix(0.833333,0.000000,0.000000,0.833333,-96.76037,-162.9998)"
     style="fill:#ffffff;fill-opacity:1.0000000;fill-rule:evenodd;stroke:none;stroke-width:1.0000000pt;stroke-linecap:butt;stroke-linejoin:miter;stroke-opacity:1.0000000"
     id="path8226" />
  <path
     d="M 287.03125,268.92047 L 298.65838,268.92047 L 302.25000,257.86218 L 305.84162,268.92047 L 317.46875,268.92047 L 308.06356,275.75389 L 311.65519,286.81218 L 302.25000,279.97875 L 292.84481,286.81218 L 296.43644,275.75389 L 287.03125,268.92047 z "
     transform="matrix(0.833333,0.000000,0.000000,0.833333,-108.2604,-127.6040)"
     style="fill:#ffffff;fill-opacity:1.0000000;fill-rule:evenodd;stroke:none;stroke-width:1.0000000pt;stroke-linecap:butt;stroke-linejoin:miter;stroke-opacity:1.0000000"
     id="path2203" />
  <path
     d="M 287.03125,268.92047 L 298.65838,268.92047 L 302.25000,257.86218 L 305.84162,268.92047 L 317.46875,268.92047 L 308.06356,275.75389 L 311.65519,286.81218 L 302.25000,279.97875 L 292.84481,286.81218 L 296.43644,275.75389 L 287.03125,268.92047 z "
     transform="matrix(0.833333,0.000000,0.000000,0.833333,-145.4895,-127.6040)"
     style="fill:#ffffff;fill-opacity:1.0000000;fill-rule:evenodd;stroke:none;stroke-width:1.0000000pt;stroke-linecap:butt;stroke-linejoin:miter;stroke-opacity:1.0000000"
     id="path8229" />
  <path
     d="M 287.03125,268.92047 L 298.65838,268.92047 L 302.25000,257.86218 L 305.84162,268.92047 L 317.46875,268.92047 L 308.06356,275.75389 L 311.65519,286.81218 L 302.25000,279.97875 L 292.84481,286.81218 L 296.43644,275.75389 L 287.03125,268.92047 z "
     transform="matrix(0.833333,0.000000,0.000000,0.833333,-156.9895,-162.9998)"
     style="fill:#ffffff;fill-opacity:1.0000000;fill-rule:evenodd;stroke:none;stroke-width:1.0000000pt;stroke-linecap:butt;stroke-linejoin:miter;stroke-opacity:1.0000000"
     id="path8232" />
  <path
     d="M 287.03125,268.92047 L 298.65838,268.92047 L 302.25000,257.86218 L 305.84162,268.92047 L 317.46875,268.92047 L 308.06356,275.75389 L 311.65519,286.81218 L 302.25000,279.97875 L 292.84481,286.81218 L 296.43644,275.75389 L 287.03125,268.92047 z "
     transform="matrix(0.833333,0.000000,0.000000,0.833333,-126.8749,-184.8852)"
     style="fill:#ffffff;fill-opacity:1.0000000;fill-rule:evenodd;stroke:none;stroke-width:1.0000000pt;stroke-linecap:butt;stroke-linejoin:miter;stroke-opacity:1.0000000"
     id="path8235" />
  </g>
</svg>
