<?xml version="1.0" encoding="UTF-8" standalone="no"?>
<!DOCTYPE svg PUBLIC "-//W3C//DTD SVG 1.0//EN"
"http://www.w3.org/TR/2001/REC-SVG-20010904/DTD/svg10.dtd">
<!-- Created with Inkscape (http://www.inkscape.org/) -->
<svg
   xmlns="http://www.w3.org/2000/svg"
   xmlns:xlink="http://www.w3.org/1999/xlink"
   version="1.0"
   x="0.0000000"
   y="0.0000000"
   width="135.00000"
   height="90.00000"
   id="svg2399">
  <defs
     id="defs3" />
  <g transform="scale(0.3)">
  <g
     id="layer1">
    <rect
       width="900.00000"
       height="450.00000"
       x="125.00000"
       y="227.36218"
       transform="matrix(0.666667,0.000000,0.000000,0.666667,-83.33338,-151.5749)"
       style="fill:#003f87;fill-opacity:1.0000000;stroke:none;stroke-width:25.000000;stroke-linecap:butt;stroke-linejoin:miter;stroke-miterlimit:4.0000000;stroke-opacity:1.0000000"
       id="rect2409" />
    <rect
       width="900.00000"
       height="150.00000"
       x="125.00000"
       y="377.36218"
       transform="matrix(0.666667,0.000000,0.000000,0.666667,-83.33338,-151.5749)"
       style="fill:#ffffff;fill-opacity:1.0000000;stroke:none;stroke-width:25.000000;stroke-linecap:butt;stroke-linejoin:miter;stroke-miterlimit:4.0000000;stroke-opacity:1.0000000"
       id="rect3031" />
    <path
       d="M 425.00006,389.86226 L 417.65274,404.74955 L 401.22365,407.13684 L 413.11185,418.72497 L 410.30543,435.08768 L 425.00006,427.36226 L 439.69469,435.08768 L 436.88827,418.72497 L 448.77647,407.13684 L 432.34738,404.74955 L 425.00006,389.86226 z "
       transform="matrix(0.666667,0.000000,0.000000,0.666667,-83.33338,-151.5749)"
       style="fill:#003f87;fill-opacity:1.0000000;fill-rule:evenodd;stroke:none;stroke-width:0.25000000pt;stroke-linecap:butt;stroke-linejoin:miter;stroke-opacity:1.0000000"
       id="path4281" />
    <path
       d="M 724.99996,464.86226 L 717.65264,479.74955 L 701.22355,482.13684 L 713.11175,493.72497 L 710.30533,510.08768 L 724.99996,502.36226 L 739.69459,510.08768 L 736.88817,493.72497 L 748.77637,482.13684 L 732.34728,479.74955 L 724.99996,464.86226 z "
       transform="matrix(0.666667,0.000000,0.000000,0.666667,-193.33338,-151.5749)"
       style="fill:#003f87;fill-opacity:1.0000000;fill-rule:evenodd;stroke:none;stroke-width:0.25000000pt;stroke-linecap:butt;stroke-linejoin:miter;stroke-opacity:1.0000000"
       id="path4903" />
    <path
       d="M 425.00006,464.86226 L 417.65274,479.74955 L 401.22365,482.13684 L 413.11185,493.72497 L 410.30543,510.08768 L 425.00006,502.36226 L 439.69469,510.08768 L 436.88827,493.72497 L 448.77647,482.13684 L 432.34738,479.74955 L 425.00006,464.86226 z "
       transform="matrix(0.666667,0.000000,0.000000,0.666667,-83.33338,-151.5749)"
       style="fill:#003f87;fill-opacity:1.0000000;fill-rule:evenodd;stroke:none;stroke-width:0.25000000pt;stroke-linecap:butt;stroke-linejoin:miter;stroke-opacity:1.0000000"
       id="path4904" />
    <path
       d="M 574.99996,427.36226 L 567.65264,442.24955 L 551.22355,444.63684 L 563.11175,456.22497 L 560.30533,472.58768 L 574.99996,464.86226 L 589.69459,472.58768 L 586.88817,456.22497 L 598.77637,444.63684 L 582.34728,442.24955 L 574.99996,427.36226 z "
       transform="matrix(0.666667,0.000000,0.000000,0.666667,-143.33338,-151.5749)"
       style="fill:#003f87;fill-opacity:1.0000000;fill-rule:evenodd;stroke:none;stroke-width:0.25000000pt;stroke-linecap:butt;stroke-linejoin:miter;stroke-opacity:1.0000000"
       id="path4905" />
    <path
       d="M 724.99996,389.86226 L 717.65264,404.74955 L 701.22355,407.13684 L 713.11175,418.72497 L 710.30533,435.08768 L 724.99996,427.36226 L 739.69459,435.08768 L 736.88817,418.72497 L 748.77637,407.13684 L 732.34728,404.74955 L 724.99996,389.86226 z "
       transform="matrix(0.666667,0.000000,0.000000,0.666667,-193.33338,-151.5749)"
       style="fill:#003f87;fill-opacity:1.0000000;fill-rule:evenodd;stroke:none;stroke-width:0.25000000pt;stroke-linecap:butt;stroke-linejoin:miter;stroke-opacity:1.0000000"
       id="path4908" />
  </g>
</g>
</svg>
