<?xml version="1.0" encoding="UTF-8" standalone="no"?>
<!DOCTYPE svg PUBLIC "-//W3C//DTD SVG 1.0//EN"
"http://www.w3.org/TR/2001/REC-SVG-20010904/DTD/svg10.dtd">
<!-- Created with Inkscape (http://www.inkscape.org/) -->
<svg
   xmlns="http://www.w3.org/2000/svg"
   xmlns:xlink="http://www.w3.org/1999/xlink"
   version="1.0"
   x="0.0000000"
   y="0.0000000"
   width="135.00000"
   height="90.00000"
   id="svg28693">
  <defs
     id="defs28695" />
  <g transform="scale(0.3)">
  <rect
     width="300.00000"
     height="200.00000"
     x="125.00000"
     y="477.36218"
     transform="matrix(1.500000,0.000000,0.000000,1.500000,-187.5000,-716.0433)"
     style="fill:#ce1126;fill-opacity:1.0000000;fill-rule:evenodd;stroke:none;stroke-width:0.70824995pt;stroke-linecap:butt;stroke-linejoin:miter;stroke-opacity:1.0000000"
     id="rect28702" />
  <path
     d="M 157.77876 548.48804 A 38.681244 38.681244 0 1 1  80.416275,548.48804 A 38.681244 38.681244 0 1 1  157.77876 548.48804 z"
     transform="matrix(1.938924,0.000000,0.000000,1.938924,-5.921100,-913.4766)"
     style="fill:#ffffff;fill-opacity:1.0000000;fill-rule:evenodd;stroke:none;stroke-width:1.0000000pt;stroke-linecap:butt;stroke-linejoin:miter;stroke-opacity:1.0000000"
     id="path29945" />
  <path
     d="M 165.92219 549.25153 A 22.648888 23.157850 0 1 1  120.62441,549.25153 A 22.648888 23.157850 0 1 1  165.92219 549.25153 z"
     transform="matrix(2.483565,0.000000,0.000000,2.428981,-130.8286,-1184.122)"
     style="fill:#ce1126;fill-opacity:1.0000000;fill-rule:evenodd;stroke:none;stroke-width:1.0000000pt;stroke-linecap:butt;stroke-linejoin:miter;stroke-opacity:1.0000000"
     id="path30567" />
  <path
     d="M 119.09752 547.21564 A 24.684742 30.283344 0 1 1  69.728031,547.21564 A 24.684742 30.283344 0 1 1  119.09752 547.21564 z"
     transform="matrix(1.822989,0.000000,0.000000,1.485966,67.88655,-663.1439)"
     style="fill:#ffffff;fill-opacity:1.0000000;fill-rule:evenodd;stroke:none;stroke-width:1.0000000pt;stroke-linecap:butt;stroke-linejoin:miter;stroke-opacity:1.0000000"
     id="path31810" />
  <path
     d="M 24.252936,527.95488 L 40.602536,527.95488 L 45.652936,512.40357 L 50.703336,527.95488 L 67.052936,527.95488 L 53.827736,537.56476 L 58.878136,553.11607 L 45.652936,543.50619 L 32.427736,553.11607 L 37.478136,537.56476 L 24.252936,527.95488 z "
     transform="matrix(0.000000,-1.500000,1.500000,0.000000,-562.3554,218.4793)"
     style="fill:#ce1126;fill-opacity:1.0000000;fill-rule:evenodd;stroke:none;stroke-width:1.0000000pt;stroke-linecap:butt;stroke-linejoin:miter;stroke-opacity:1.0000000"
     id="path2203" />
  </g>
</svg>
