<?xml version="1.0" encoding="UTF-8" standalone="no"?>
<!DOCTYPE svg PUBLIC "-//W3C//DTD SVG 1.0//EN"
"http://www.w3.org/TR/2001/REC-SVG-20010904/DTD/svg10.dtd">
<!-- Created with Inkscape (http://www.inkscape.org/) -->
<svg
   xmlns="http://www.w3.org/2000/svg"
   xmlns:xlink="http://www.w3.org/1999/xlink"
   version="1.0"
   x="0.0000000"
   y="0.0000000"
   width="135.00000"
   height="90.00000"
   id="svg6529">
  <defs
     id="defs6531" />
  <g transform="scale(0.3)">
  <rect
     width="250.00000"
     height="125.00000"
     x="125.00000"
     y="552.36218"
     transform="matrix(2.400000,0.000000,0.000000,2.400000,-300.0000,-1325.669)"
     style="fill:#1eb53a;fill-opacity:1.0000000;fill-rule:evenodd;stroke:none;stroke-width:1.0000000pt;stroke-linecap:butt;stroke-linejoin:miter;stroke-opacity:1.0000000"
     id="rect6538" />
  <path
     d="M 125.00000,677.36218 L 250.00000,614.86218 L 125.00000,552.36218 L 125.00000,677.36218 z "
     transform="matrix(2.400000,0.000000,0.000000,2.400000,-300.0000,-1325.669)"
     style="fill:#000000;fill-opacity:1.0000000;fill-rule:evenodd;stroke:none;stroke-width:1.0000000pt;stroke-linecap:butt;stroke-linejoin:miter;stroke-opacity:1.0000000"
     id="path7160" />
  <path
     d="M 375.00000,677.36218 L 250.00000,614.86218 L 375.00000,552.36218 L 375.00000,677.36218 z "
     transform="matrix(2.400000,0.000000,0.000000,2.400000,-300.0000,-1325.669)"
     style="fill:#000000;fill-opacity:1.0000000;fill-rule:evenodd;stroke:none;stroke-width:1.0000000pt;stroke-linecap:butt;stroke-linejoin:miter;stroke-opacity:1.0000000"
     id="path9024" />
  <path
     d="M 125.00000,677.36218 L 148.29237,677.36218 L 375.00000,564.00837 L 375.00000,552.36218 L 351.70763,552.36218 L 125.00000,665.71599 L 125.00000,677.36218 z "
     transform="matrix(2.400000,0.000000,0.000000,2.400000,-300.0000,-1325.669)"
     style="fill:#f9e04c;fill-opacity:1.0000000;fill-rule:evenodd;stroke:none;stroke-width:1.0000000pt;stroke-linecap:butt;stroke-linejoin:miter;stroke-opacity:1.0000000"
     id="path9025" />
  <path
     d="M 375.00000,677.36218 L 351.70763,677.36218 L 125.00000,564.00837 L 125.00000,552.36218 L 148.29237,552.36218 L 375.00000,665.71599 L 375.00000,677.36218 z "
     transform="matrix(2.400000,0.000000,0.000000,2.400000,-300.0000,-1325.669)"
     style="fill:#f9e04c;fill-opacity:1.0000000;fill-rule:evenodd;stroke:none;stroke-width:1.0000000pt;stroke-linecap:butt;stroke-linejoin:miter;stroke-opacity:1.0000000"
     id="path9647" />
  </g>
</svg>
