<?xml version="1.0" encoding="UTF-8" standalone="no"?>
<!DOCTYPE svg PUBLIC "-//W3C//DTD SVG 1.0//EN"
"http://www.w3.org/TR/2001/REC-SVG-20010904/DTD/svg10.dtd">
<!-- Created with Inkscape (http://www.inkscape.org/) -->
<svg
   xmlns="http://www.w3.org/2000/svg"
   xmlns:xlink="http://www.w3.org/1999/xlink"
   version="1.0"
   x="0.0000000"
   y="0.0000000"
   width="135.00000"
   height="90.00000"
   id="svg1">
  <defs
     id="defs3" />
    <g transform="scale(0.3)">
  <rect
     width="86.250000"
     height="57.500000"
     x="125.00000"
     y="619.86218"
     transform="matrix(5.217391,0.000000,0.000000,5.217391,-652.1739,-3234.063)"
     style="fill:#000000;fill-opacity:1.0000000;fill-rule:evenodd;stroke:none;stroke-width:1.0000000pt;stroke-linecap:butt;stroke-linejoin:miter;stroke-opacity:1.0000000;"
     id="rect908" />
  <path
     d="M 168.12500,661.11218 L 166.29600,651.55706 L 160.94969,659.68493 L 162.91650,650.15718 L 154.86675,655.62043 L 160.33000,647.57068 L 150.80225,649.53749 L 158.93013,644.19118 L 149.37500,642.36218 L 158.93013,640.53318 L 150.80225,635.18687 L 160.33000,637.15368 L 154.86675,629.10393 L 162.91650,634.56718 L 160.94969,625.03943 L 166.29600,633.16731 L 168.12500,623.61218 L 169.95400,633.16731 L 175.30031,625.03943 L 173.33350,634.56718 L 181.38325,629.10393 L 175.92000,637.15368 L 185.44775,635.18687 L 177.31988,640.53318 L 186.87500,642.36218 L 177.31988,644.19118 L 185.44775,649.53749 L 175.92000,647.57068 L 181.38325,655.62043 L 173.33350,650.15718 L 175.30031,659.68493 L 169.95400,651.55706 L 168.12500,661.11218 z "
     transform="matrix(5.217391,0.000000,0.000000,5.217391,-652.1739,-3234.063)"
     style="fill:#fcd116;fill-opacity:1.0000000;fill-rule:evenodd;stroke:none;stroke-width:1.0000000pt;stroke-linecap:butt;stroke-linejoin:miter;stroke-opacity:1.0000000;"
     id="path1530" />
  <rect
     width="86.250000"
     height="35.000000"
     x="125.00000"
     y="642.36218"
     transform="matrix(5.217391,0.000000,0.000000,5.217391,-652.1739,-3234.063)"
     style="fill:#0072c6;fill-opacity:1.0000000;fill-rule:evenodd;stroke:none;stroke-width:1.0000000pt;stroke-linecap:butt;stroke-linejoin:miter;stroke-opacity:1.0000000;"
     id="rect3394" />
  <rect
     width="86.250000"
     height="22.500000"
     x="125.00000"
     y="654.86218"
     transform="matrix(5.217391,0.000000,0.000000,5.217391,-652.1739,-3234.063)"
     style="fill:#ffffff;fill-opacity:1.0000000;fill-rule:evenodd;stroke:none;stroke-width:1.0000000pt;stroke-linecap:butt;stroke-linejoin:miter;stroke-opacity:1.0000000;"
     id="rect4637" />
  <path
     d="M 125.00000,677.36218 L 125.00000,619.86218 L 168.12500,677.36218 L 125.00000,677.36218 z "
     transform="matrix(5.217391,0.000000,0.000000,5.217391,-652.1739,-3234.063)"
     style="fill:#ce1126;fill-opacity:1.0000000;fill-rule:evenodd;stroke:none;stroke-width:1.0000000pt;stroke-linecap:butt;stroke-linejoin:miter;stroke-opacity:1.0000000;"
     id="path5259" />
  <path
     d="M 211.25000,677.36218 L 211.25000,619.86218 L 168.12500,677.36218 L 211.25000,677.36218 z "
     transform="matrix(5.217391,0.000000,0.000000,5.217391,-652.1739,-3234.063)"
     style="fill:#ce1126;fill-opacity:1.0000000;fill-rule:evenodd;stroke:none;stroke-width:1.0000000pt;stroke-linecap:butt;stroke-linejoin:miter;stroke-opacity:1.0000000;"
     id="path6502" />
   </g>
</svg>
