<?xml version="1.0" encoding="UTF-8" standalone="no"?>
<!DOCTYPE svg PUBLIC "-//W3C//DTD SVG 1.0//EN"
"http://www.w3.org/TR/2001/REC-SVG-20010904/DTD/svg10.dtd">
<!-- Created with Inkscape (http://www.inkscape.org/) -->
<svg
   xmlns="http://www.w3.org/2000/svg"
   xmlns:xlink="http://www.w3.org/1999/xlink"
   version="1.0"
   x="0.0000000"
   y="0.0000000"
   width="135.00000"
   height="90.00000"
   id="svg17159">
  <defs
     id="defs17161" />
  <g transform="scale(0.3)">
  <rect
     width="1125.0000"
     height="750.00000"
     x="125.00000"
     y="-72.637817"
     transform="matrix(0.400000,0.000000,0.000000,0.400000,-50.00000,29.05513)"
     style="fill:#ce1126;fill-opacity:1.0000000;fill-rule:evenodd;stroke:none;stroke-width:1.0000000pt;stroke-linecap:butt;stroke-linejoin:miter;stroke-opacity:1.0000000;"
     id="rect17168" />
  <rect
     width="1125.0000"
     height="500.00000"
     x="125.00000"
     y="-72.637817"
     transform="matrix(0.400000,0.000000,0.000000,0.400000,-50.00000,29.05513)"
     style="fill:#0038a8;fill-opacity:1.0000000;fill-rule:evenodd;stroke:none;stroke-width:1.0000000pt;stroke-linecap:butt;stroke-linejoin:miter;stroke-opacity:1.0000000;"
     id="rect18412" />
  <rect
     width="1125.0000"
     height="250.00000"
     x="125.00000"
     y="-72.637817"
     transform="matrix(0.400000,0.000000,0.000000,0.400000,-50.00000,29.05513)"
     style="fill:#ffffff;fill-opacity:1.0000000;fill-rule:evenodd;stroke:none;stroke-width:1.0000000pt;stroke-linecap:butt;stroke-linejoin:miter;stroke-opacity:1.0000000;"
     id="rect19034" />
  <path
     d="M 319.50000,103.62500 C 304.38831,104.76983 308.65189,123.09512 306.77676,133.50101 C 301.44641,205.20676 294.08344,279.22682 315.98359,349.06440 C 333.25856,405.42746 374.54395,451.94105 424.57229,481.93891 C 436.88590,488.78730 448.87997,497.38880 462.50000,501.09483 C 476.75890,497.09693 489.35554,488.11947 502.22051,480.82727 C 551.46171,450.86246 591.93908,404.72487 609.01641,349.06440 C 631.25486,278.05879 623.33645,202.83597 617.94673,129.96832 C 617.16182,119.94187 618.67346,102.54041 603.86186,103.62500 C 509.07459,103.62500 414.28729,103.62500 319.50000,103.62500 z "
     transform="matrix(0.400000,0.000000,0.000000,0.400000,-50.00000,29.05513)"
     style="fill:#ffffff;fill-opacity:1.0000000;fill-rule:evenodd;stroke:none;stroke-width:1.0000000pt;stroke-linecap:butt;stroke-linejoin:miter;stroke-opacity:1.0000000;"
     id="path19697" />
  <path
     d="M 187.50246,520.89031 L 187.50246,677.86530 C 115.24490,642.69544 123.14573,584.44315 127.91318,520.89031 L 187.50246,520.89031 z M 187.50246,520.89031 L 187.50246,677.86530 C 259.76002,642.69544 251.85919,584.44315 247.09174,520.89031 L 187.50246,520.89031 z "
     transform="matrix(0.959962,0.000000,0.000000,0.955507,-44.99517,-422.7145)"
     style="fill:#ce1126;fill-opacity:1.0000000;fill-rule:evenodd;stroke:none;stroke-width:1.0000000pt;stroke-linecap:butt;stroke-linejoin:miter;stroke-opacity:1.0000000;"
     id="path919" />
  <path
     d="M 195.93995,563.94968 C 203.54411,563.94968 211.29440,565.34118 218.75245,566.82468 C 216.54508,559.54794 216.54508,555.10142 218.75245,547.82468 C 211.29440,549.30818 203.54411,550.69968 195.93995,550.69968 L 179.06495,550.69968 C 171.46079,550.69968 163.71050,549.30818 156.25245,547.82468 C 158.45982,555.10142 158.45982,559.54794 156.25245,566.82468 C 163.71050,565.34118 171.46079,563.94968 179.06495,563.94968 L 195.93995,563.94968 z "
     transform="matrix(0.959962,0.000000,0.000000,0.955507,-44.99517,-422.7145)"
     style="fill:#ffffff;fill-opacity:1.0000000;fill-rule:evenodd;stroke:none;stroke-width:1.0000000pt;stroke-linecap:butt;stroke-linejoin:miter;stroke-opacity:1.0000000;"
     id="path3412" />
  <path
     d="M 202.50247,592.53718 C 210.10663,592.53718 217.85692,593.92868 225.31497,595.41218 C 223.10759,588.13544 223.10759,583.68892 225.31497,576.41218 C 217.85692,577.89568 210.10663,579.28718 202.50247,579.28718 L 172.50246,579.28718 C 164.89830,579.28718 157.14801,577.89568 149.68996,576.41218 C 151.89733,583.68892 151.89733,588.13544 149.68996,595.41218 C 157.14801,593.92868 164.89830,592.53718 172.50246,592.53718 L 202.50247,592.53718 z "
     transform="matrix(0.959962,0.000000,0.000000,0.955507,-44.99517,-422.7145)"
     style="fill:#ffffff;fill-opacity:1.0000000;fill-rule:evenodd;stroke:none;stroke-width:1.0000000pt;stroke-linecap:butt;stroke-linejoin:miter;stroke-opacity:1.0000000;"
     id="path5897" />
  <path
     d="M 178.00000,526.90625 C 179.48350,534.36431 180.87500,542.11458 180.87500,549.71875 L 180.87500,646.93750 L 194.12500,646.93750 L 194.12500,549.71875 C 194.12500,542.11459 195.51650,534.36430 197.00000,526.90625 C 189.72326,529.11363 185.27674,529.11362 178.00000,526.90625 z "
     transform="matrix(0.959962,0.000000,0.000000,0.955507,-44.99517,-422.7145)"
     style="fill:#ffffff;fill-opacity:1.0000000;fill-rule:evenodd;stroke:none;stroke-width:1.0000000pt;stroke-linecap:butt;stroke-linejoin:miter;stroke-opacity:1.0000000;"
     id="path10868" />
  <g
     transform="matrix(0.959962,0.000000,0.000000,0.955507,-44.99517,-422.7145)"
     style="fill:#0038a8;fill-opacity:1.0000000;"
     id="g16515">
    <path
       d="M 157.50000,623.34375 C 148.93543,623.34375 142.00000,630.27919 142.00000,638.84375 C 142.00000,639.49669 142.10906,640.11818 142.18750,640.75000 C 145.17278,645.17910 148.66482,649.42813 152.68750,653.53125 C 154.21295,654.03309 155.80728,654.37500 157.50000,654.37500 C 166.06457,654.37500 173.03125,647.40831 173.03125,638.84375 C 173.03125,630.27919 166.06457,623.34375 157.50000,623.34375 z "
       style="fill-rule:evenodd;stroke:none;stroke-width:1.0000000pt;stroke-linecap:butt;stroke-linejoin:miter;stroke-opacity:1.0000000;"
       id="path13976" />
    <path
       d="M 187.50000,614.18750 C 176.61185,614.18750 167.78125,623.04937 167.78125,633.93750 C 167.78125,644.82564 176.61186,653.65622 187.50000,653.65625 C 198.38815,653.65625 207.21874,644.82564 207.21875,633.93750 C 207.21875,623.04936 198.38815,614.18747 187.50000,614.18750 z "
       style="fill-rule:evenodd;stroke:none;stroke-width:1.0000000pt;stroke-linecap:butt;stroke-linejoin:miter;stroke-opacity:1.0000000;"
       id="path15884" />
    <path
       d="M 217.50000,623.34375 C 208.93543,623.34375 202.00000,630.27919 202.00000,638.84375 C 202.00000,647.40831 208.93544,654.37500 217.50000,654.37500 C 219.19272,654.37500 220.78705,654.03309 222.31250,653.53125 C 226.34603,649.41706 229.85303,645.16064 232.84375,640.71875 C 232.91970,640.09681 233.03125,639.48609 233.03125,638.84375 C 233.03125,630.27919 226.06458,623.34375 217.50000,623.34375 z "
       style="fill-rule:evenodd;stroke:none;stroke-width:1.0000000pt;stroke-linecap:butt;stroke-linejoin:miter;stroke-opacity:1.0000000;"
       id="path15882" />
    <path
       d="M 144.62500,644.12500 C 154.09998,656.84337 167.72480,668.24983 187.50000,677.87500 C 207.27521,668.24983 220.90002,656.84337 230.37500,644.12500 L 144.62500,644.12500 z "
       style="fill-rule:evenodd;stroke:none;stroke-width:1.0000000pt;stroke-linecap:butt;stroke-linejoin:miter;stroke-opacity:1.0000000;"
       id="path15876" />
  </g>
</g>
</svg>
