<?xml version="1.0" encoding="UTF-8" standalone="no"?>
<!DOCTYPE svg PUBLIC "-//W3C//DTD SVG 1.0//EN"
"http://www.w3.org/TR/2001/REC-SVG-20010904/DTD/svg10.dtd">
<!-- Created with Inkscape (http://www.inkscape.org/) -->
<svg
   xmlns="http://www.w3.org/2000/svg"
   xmlns:xlink="http://www.w3.org/1999/xlink"
   version="1.0"
   x="0.0000000"
   y="0.0000000"
   width="135.00000"
   height="90.00000"
   id="svg1">
  <defs
     id="defs3" />
  <g transform="scale(0.3)">
  <rect
     width="375.00000"
     height="187.50000"
     x="125.00000"
     y="489.86218"
     transform="matrix(1.600000,0.000000,0.000000,1.600000,-200.0000,-783.7795)"
     style="fill:#002b7f;fill-opacity:1.0000000;fill-rule:evenodd;stroke:none;stroke-width:1.0000000pt;stroke-linecap:butt;stroke-linejoin:miter;stroke-opacity:1.0000000;"
     id="rect908" />
  <path
     d="M 125.00000,677.36218 L 166.92500,677.36218 L 500.00000,510.82468 L 500.00000,489.86218 L 458.07500,489.86218 L 125.00000,656.39968 L 125.00000,677.36218 z "
     transform="matrix(1.600000,0.000000,0.000000,1.600000,-200.0000,-783.7795)"
     style="fill:#ffffff;fill-opacity:1.0000000;fill-rule:evenodd;stroke:none;stroke-width:1.0000000pt;stroke-linecap:butt;stroke-linejoin:miter;stroke-opacity:1.0000000;"
     id="path4640" />
  <path
     d="M 500.00000,677.36218 L 458.07500,677.36218 L 125.00000,510.82468 L 125.00000,489.86218 L 166.92500,489.86218 L 500.00000,656.39968 L 500.00000,677.36218 z "
     transform="matrix(1.600000,0.000000,0.000000,1.600000,-200.0000,-783.7795)"
     style="fill:#ffffff;fill-opacity:1.0000000;fill-rule:evenodd;stroke:none;stroke-width:1.0000000pt;stroke-linecap:butt;stroke-linejoin:miter;stroke-opacity:1.0000000;"
     id="path6505" />
  <rect
     width="62.500000"
     height="187.50000"
     x="281.25000"
     y="489.86218"
     transform="matrix(1.600000,0.000000,0.000000,1.600000,-200.0000,-783.7795)"
     style="fill:#ffffff;fill-opacity:1.0000000;fill-rule:evenodd;stroke:none;stroke-width:1.0000000pt;stroke-linecap:butt;stroke-linejoin:miter;stroke-opacity:1.0000000;"
     id="rect1530" />
  <rect
     width="375.00000"
     height="62.500000"
     x="125.00000"
     y="552.36218"
     transform="matrix(1.600000,0.000000,0.000000,1.600000,-200.0000,-783.7795)"
     style="fill:#ffffff;fill-opacity:1.0000000;fill-rule:evenodd;stroke:none;stroke-width:1.0000000pt;stroke-linecap:butt;stroke-linejoin:miter;stroke-opacity:1.0000000;"
     id="rect2152" />
  <rect
     width="375.00000"
     height="37.500000"
     x="125.00000"
     y="564.86218"
     transform="matrix(1.600000,0.000000,0.000000,1.600000,-200.0000,-783.7795)"
     style="fill:#ce1126;fill-opacity:1.0000000;fill-rule:evenodd;stroke:none;stroke-width:1.0000000pt;stroke-linecap:butt;stroke-linejoin:miter;stroke-opacity:1.0000000;"
     id="rect3395" />
  <rect
     width="37.500000"
     height="187.50000"
     x="293.75000"
     y="489.86218"
     transform="matrix(1.600000,0.000000,0.000000,1.600000,-200.0000,-783.7795)"
     style="fill:#ce1126;fill-opacity:1.0000000;fill-rule:evenodd;stroke:none;stroke-width:1.0000000pt;stroke-linecap:butt;stroke-linejoin:miter;stroke-opacity:1.0000000;"
     id="rect4017" />
  <path
     d="M 125.00000,677.36218 L 152.95000,677.36218 L 277.95000,614.86218 L 250.00000,614.86218 L 125.00000,677.36218 z "
     transform="matrix(1.600000,0.000000,0.000000,1.600000,-200.0000,-783.7795)"
     style="fill:#ce1126;fill-opacity:1.0000000;fill-rule:evenodd;stroke:none;stroke-width:1.0000000pt;stroke-linecap:butt;stroke-linejoin:miter;stroke-opacity:1.0000000;"
     id="path7127" />
  <path
     d="M 347.05000,552.36218 L 375.00000,552.36218 L 500.00000,489.86218 L 472.05000,489.86218 L 347.05000,552.36218 z "
     transform="matrix(1.600000,0.000000,0.000000,1.600000,-200.0000,-783.7795)"
     style="fill:#ce1126;fill-opacity:1.0000000;fill-rule:evenodd;stroke:none;stroke-width:1.0000000pt;stroke-linecap:butt;stroke-linejoin:miter;stroke-opacity:1.0000000;"
     id="path8371" />
  <path
     d="M 500.00000,677.36218 L 500.00000,663.38718 L 402.95000,614.86218 L 375.00000,614.86218 L 500.00000,677.36218 z "
     transform="matrix(1.600000,0.000000,0.000000,1.600000,-200.0000,-783.7795)"
     style="fill:#ce1126;fill-opacity:1.0000000;fill-rule:evenodd;stroke:none;stroke-width:1.0000000pt;stroke-linecap:butt;stroke-linejoin:miter;stroke-opacity:1.0000000;"
     id="path8994" />
  <path
     d="M 125.00000,489.86218 L 125.00000,503.83718 L 222.05000,552.36218 L 250.00000,552.36218 L 125.00000,489.86218 z "
     transform="matrix(1.600000,0.000000,0.000000,1.600000,-200.0000,-783.7795)"
     style="fill:#ce1126;fill-opacity:1.0000000;fill-rule:evenodd;stroke:none;stroke-width:1.0000000pt;stroke-linecap:butt;stroke-linejoin:miter;stroke-opacity:1.0000000;"
     id="path9616" />
  </g>
</svg>
