<?xml version="1.0" encoding="UTF-8" standalone="no"?>
<!DOCTYPE svg PUBLIC "-//W3C//DTD SVG 1.0//EN"
"http://www.w3.org/TR/2001/REC-SVG-20010904/DTD/svg10.dtd">
<!-- Created with Inkscape (http://www.inkscape.org/) -->
<svg
   xmlns="http://www.w3.org/2000/svg"
   xmlns:xlink="http://www.w3.org/1999/xlink"
   version="1.0"
   x="0.0000000"
   y="0.0000000"
   width="135.00000"
   height="90.00000"
   id="svg6084">
  <defs
     id="defs3" />
  <g
     id="layer1">
  <g transform="scale(0.3)">
    <rect
       width="187.50000"
       height="125.00000"
       x="125.00000"
       y="552.36218"
       transform="matrix(2.400000,0.000000,0.000000,2.400000,-300.0000,-1325.669)"
       style="fill:#ce1126;fill-opacity:1.0000000;stroke:none;stroke-width:2.5000000;stroke-linecap:butt;stroke-linejoin:miter;stroke-miterlimit:4.0000000;stroke-opacity:1.0000000"
       id="rect6094" />
    <path
       d="M 125.00000,552.36218 L 312.50000,552.36218 L 125.00000,677.36218 L 125.00000,552.36218 z "
       transform="matrix(2.400000,0.000000,0.000000,2.400000,-300.0000,-1325.669)"
       style="fill:#009e49;fill-opacity:1.0000000;fill-rule:evenodd;stroke:none;stroke-width:0.25000000pt;stroke-linecap:butt;stroke-linejoin:miter;stroke-opacity:1.0000000"
       id="path6716" />
    <path
       d="M 125.00000,677.36218 L 172.32286,677.36218 L 312.50000,583.91076 L 312.50000,552.36218 L 265.17714,552.36218 L 125.00000,645.81361 L 125.00000,677.36218 z "
       transform="matrix(2.400000,0.000000,0.000000,2.400000,-300.0000,-1325.669)"
       style="fill:#fcd116;fill-opacity:1.0000000;fill-rule:evenodd;stroke:none;stroke-width:0.25000000pt;stroke-linecap:butt;stroke-linejoin:miter;stroke-opacity:1.0000000"
       id="path7959" />
    <path
       d="M 125.00000,677.36218 L 158.80204,677.36218 L 312.50000,574.89688 L 312.50000,552.36218 L 278.69796,552.36218 L 125.00000,654.82748 L 125.00000,677.36218 z "
       transform="matrix(2.400000,0.000000,0.000000,2.400000,-300.0000,-1325.669)"
       style="fill:#000000;fill-opacity:1.0000000;fill-rule:evenodd;stroke:none;stroke-width:0.25000000pt;stroke-linecap:butt;stroke-linejoin:miter;stroke-opacity:1.0000000"
       id="path9823" />
    <path
       d="M 238.45000,597.23225 L 249.03021,590.17879 L 245.58970,577.93682 L 255.56668,585.82116 L 266.14690,578.76771 L 261.73421,590.69175 L 271.71120,598.57609 L 259.00721,598.06314 L 254.59451,609.98718 L 251.15400,597.74520 L 238.45000,597.23225 z "
       transform="matrix(2.400000,0.000000,0.000000,2.400000,-300.0000,-1325.669)"
       style="fill:#ffffff;fill-opacity:1.0000000;fill-rule:evenodd;stroke:none;stroke-width:1.0000000pt;stroke-linecap:butt;stroke-linejoin:miter;stroke-opacity:1.0000000"
       id="path2203" />
    <path
       d="M 167.20000,644.73225 L 177.78021,637.67879 L 174.33970,625.43682 L 184.31668,633.32116 L 194.89690,626.26771 L 190.48421,638.19175 L 200.46120,646.07609 L 187.75721,645.56314 L 183.34451,657.48718 L 179.90400,645.24520 L 167.20000,644.73225 z "
       transform="matrix(2.400000,0.000000,0.000000,2.400000,-300.0000,-1325.669)"
       style="fill:#ffffff;fill-opacity:1.0000000;fill-rule:evenodd;stroke:none;stroke-width:1.0000000pt;stroke-linecap:butt;stroke-linejoin:miter;stroke-opacity:1.0000000"
       id="path11725" />
  </g>
</g>
</svg>
