<?xml version="1.0" encoding="UTF-8" standalone="no"?>
<!DOCTYPE svg PUBLIC "-//W3C//DTD SVG 1.0//EN"
"http://www.w3.org/TR/2001/REC-SVG-20010904/DTD/svg10.dtd">
<!-- Created with Inkscape (http://www.inkscape.org/) -->
<svg
   xmlns="http://www.w3.org/2000/svg"
   xmlns:xlink="http://www.w3.org/1999/xlink"
   version="1.0"
   x="0.0000000"
   y="0.0000000"
   width="500.00000"
   height="300.00000"
   id="svg1">
  <defs
     id="defs3" />
  <metadata
     id="metadata4">
    <rdf:RDF
       id="RDF5">
      <cc:Work
         rdf:about=""
         id="Work6">
        <dc:format
           id="format7">image/svg+xml</dc:format>
        <dc:type
           id="type9"
           rdf:resource="http://purl.org/dc/dcmitype/StillImage" />
      </cc:Work>
    </rdf:RDF>
  </metadata>
  <rect
     width="312.50000"
     height="187.50000"
     x="2.5000000"
     y="549.86218"
     transform="matrix(1.600000,0.000000,0.000000,1.600000,-4.000000,-879.7795)"
     style="fill:#e8112d;fill-opacity:1.0000000;fill-rule:evenodd;stroke:none;stroke-width:1.0000000pt;stroke-linecap:butt;stroke-linejoin:miter;stroke-opacity:1.0000000;"
     id="rect11731" />
  <path
     d="M 161.39800,609.96624 C 158.77144,602.94118 164.49531,592.36218 158.75000,587.36218 C 160.69112,594.60662 154.22413,602.98718 156.10200,609.96624 C 152.40881,603.43855 156.37931,591.73718 149.95056,588.05468 C 153.00106,594.90631 147.88063,603.61218 150.87125,610.79468 C 146.20238,604.92512 148.32169,592.98718 141.36781,590.11524 C 145.45256,596.40530 141.80469,606.11218 145.83444,612.43124 C 140.30487,607.36430 140.52081,595.48718 133.21306,593.49306 C 138.23150,599.06668 136.14600,609.23718 141.11569,614.83556 C 134.86150,610.69606 133.16881,598.61218 125.68706,598.10499 C 131.51569,602.82487 131.04394,612.98718 136.83112,617.94849 C 130.00644,614.83830 126.44669,602.98718 118.97525,603.83743 C 125.47044,607.58743 126.62406,617.98718 133.08631,621.69330 C 125.85906,619.68899 120.52000,608.61218 113.24281,610.54924 C 120.24462,613.23699 122.99525,622.98718 129.97338,625.97787 C 122.52163,625.12880 115.53469,614.86218 108.63088,618.07524 C 115.96700,619.63456 120.24687,629.23718 127.56906,630.69662 C 120.07619,631.02374 111.61344,622.36218 105.25306,626.22999 C 112.74281,626.62249 118.44650,635.48718 125.93250,635.73343 C 118.58306,637.22868 108.85287,629.86218 103.19250,634.81274 C 110.65144,634.02881 117.63856,641.73718 125.10406,640.96418 C 118.07900,643.59074 107.32094,637.98718 102.50000,643.61218 C 109.74444,641.67106 117.84294,647.98718 125.10406,646.26018 C 118.57637,649.95337 107.05531,646.11218 103.19250,652.41162 C 110.04413,649.36112 119.05456,654.23718 125.93250,651.49093 C 120.06294,656.15980 108.06262,654.23718 105.25306,660.99437 C 111.54312,656.90962 121.24363,660.48718 127.56906,656.52774 C 122.50212,662.05730 110.31800,661.73718 108.63088,669.14912 C 114.20450,664.13068 124.35625,666.11218 129.97338,661.24649 C 125.83388,667.50068 113.76594,669.23718 113.24281,676.67512 C 117.96269,670.84649 128.31569,671.11218 133.08631,665.53105 C 129.97612,672.35574 118.32156,676.11218 118.97525,683.38693 C 122.72525,676.89174 133.02456,675.48718 136.83112,669.27587 C 134.82681,676.50312 123.87269,681.73718 125.68706,689.11937 C 128.37481,682.11755 138.36694,679.23718 141.11569,672.38880 C 140.26662,679.84056 130.28256,686.73718 133.21306,693.73131 C 134.77238,686.39518 144.21112,682.36218 145.83444,674.79312 C 146.16156,682.28599 137.39337,690.48718 141.36781,697.10912 C 141.76031,689.61937 150.41338,683.61218 150.87125,676.42968 C 152.36650,683.77912 145.03012,693.61218 149.95056,699.16968 C 149.16663,691.71074 156.82088,684.86218 156.10200,677.25812 C 158.72856,684.28318 153.00469,694.86218 158.75000,699.86218 C 156.80888,692.61774 163.27587,684.23718 161.39800,677.25812 C 165.09119,683.78581 161.12069,695.48718 167.54944,699.16968 C 164.49894,692.31805 169.61937,683.61218 166.62875,676.42968 C 171.29762,682.29924 169.17831,694.23718 176.13219,697.10912 C 172.04744,690.81905 175.69531,681.11218 171.66556,674.79312 C 177.19513,679.86006 176.97919,691.73718 184.28694,693.73131 C 179.26850,688.15768 181.35400,677.98718 176.38431,672.38880 C 182.63850,676.52830 184.33119,688.61218 191.81294,689.11937 C 185.98431,684.39949 186.45606,674.23718 180.66888,669.27587 C 187.49356,672.38605 191.05331,684.23718 198.52475,683.38693 C 192.02956,679.63693 190.87594,669.23718 184.41369,665.53105 C 191.64094,667.53537 196.98000,678.61218 204.25719,676.67512 C 197.25538,673.98737 194.50475,664.23718 187.52662,661.24649 C 194.97838,662.09556 201.96531,672.36218 208.86913,669.14912 C 201.53300,667.58980 197.25313,657.98718 189.93094,656.52774 C 197.42381,656.20062 205.88656,664.86218 212.24694,660.99437 C 204.75719,660.60187 199.05350,651.73718 191.56750,651.49093 C 198.91694,649.99568 208.64713,657.36218 214.30750,652.41162 C 206.84856,653.19555 199.86144,645.48718 192.39594,646.26018 C 199.42100,643.63362 210.17906,649.23718 215.00000,643.61218 C 207.75556,645.55330 199.65706,639.23718 192.39594,640.96418 C 198.92362,637.27099 210.44469,641.11218 214.30750,634.81274 C 207.45587,637.86324 198.44544,632.98718 191.56750,635.73343 C 197.43706,631.06456 209.43737,632.98718 212.24694,626.22999 C 205.95687,630.31474 196.25638,626.73718 189.93094,630.69662 C 194.99787,625.16706 207.18200,625.48718 208.86913,618.07524 C 203.29550,623.09368 193.14375,621.11218 187.52662,625.97787 C 191.66612,619.72368 203.73406,617.98718 204.25719,610.54924 C 199.53731,616.37787 189.18431,616.11218 184.41369,621.69330 C 187.52387,614.86862 199.17844,611.11218 198.52475,603.83743 C 194.77475,610.33262 184.47544,611.73718 180.66888,617.94849 C 182.67319,610.72124 193.62731,605.48718 191.81294,598.10499 C 189.12519,605.10680 179.13306,607.98718 176.38431,614.83556 C 177.23338,607.38381 187.21744,600.48718 184.28694,593.49306 C 182.72762,600.82918 173.28888,604.86218 171.66556,612.43124 C 171.33844,604.93837 180.10663,596.73718 176.13219,590.11524 C 175.73969,597.60499 167.08663,603.61218 166.62875,610.79468 C 165.13350,603.44524 172.46988,593.61218 167.54944,588.05468 C 168.33337,595.51362 160.67912,602.36218 161.39800,609.96624 z "
     transform="matrix(1.600000,0.000000,0.000000,1.600000,-4.000000,-879.7795)"
     style="fill:#f9d616;fill-opacity:1.0000000;fill-rule:evenodd;stroke:none;stroke-width:1.0000000pt;stroke-linecap:butt;stroke-linejoin:miter;stroke-opacity:1.0000000;"
     id="path8622" />
  <path
     d="M 544.15627 436.22754 A 181.38542 172.74803 0 1 0 181.38542,436.22754 A 181.38542 172.74803 0 1 0 544.15627 436.22754 z"
     transform="matrix(0.297709,0.000000,0.000000,0.312594,142.0000,13.63794)"
     style="fill:#e8112d;fill-opacity:1.0000000;fill-rule:evenodd;stroke:none;stroke-width:1.0000000pt;stroke-linecap:butt;stroke-linejoin:miter;stroke-opacity:1.0000000;"
     id="path7368" />
  <path
     d="M 544.15627 436.22754 A 181.38542 172.74803 0 1 0 181.38542,436.22754 A 181.38542 172.74803 0 1 0 544.15627 436.22754 z"
     transform="matrix(0.248091,0.000000,0.000000,0.260494,160.0000,33.36530)"
     style="fill:#f9d616;fill-opacity:1.0000000;fill-rule:evenodd;stroke:none;stroke-width:1.0000000pt;stroke-linecap:butt;stroke-linejoin:miter;stroke-opacity:1.0000000;"
     id="path7369" />
  <path
     d="M 184.62500,624.78125 C 161.81705,624.78125 143.31250,643.28578 143.31250,666.09375 C 143.31250,668.25825 143.61633,670.33089 143.93750,672.40625 C 145.22111,673.06890 146.53029,673.63551 147.90625,674.12500 C 147.37595,671.53720 147.09375,668.86947 147.09375,666.12500 C 147.09374,644.39419 164.57315,626.76641 186.21875,626.40625 C 185.88546,625.87523 185.55005,625.35357 185.18750,624.84375 C 184.99517,624.84108 184.81797,624.78125 184.62500,624.78125 z "
     transform="matrix(1.600000,0.000000,0.000000,1.600000,-4.000000,-879.7795)"
     style="fill:#e8112d;fill-opacity:1.0000000;fill-rule:evenodd;stroke:none;stroke-width:1.0000000pt;stroke-linecap:butt;stroke-linejoin:miter;stroke-opacity:1.0000000;"
     id="path908" />
  <path
     d="M 180.87500,622.00000 C 156.51800,622.00000 136.75000,641.76800 136.75000,666.12500 C 136.75000,666.59725 136.89150,667.03131 136.90625,667.50000 C 138.25999,668.73920 139.66968,669.90812 141.21875,670.90625 C 141.03725,669.31420 140.71875,667.76544 140.71875,666.12500 C 140.71876,642.71330 159.71330,623.68750 183.12500,623.68750 C 183.54216,623.68750 183.92947,623.80045 184.34375,623.81250 C 183.89460,623.23266 183.42404,622.67271 182.93750,622.12500 C 182.24777,622.09258 181.57314,622.00000 180.87500,622.00000 z "
     transform="matrix(1.600000,0.000000,0.000000,1.600000,-4.000000,-879.7795)"
     style="fill:#e8112d;fill-opacity:1.0000000;fill-rule:evenodd;stroke:none;stroke-width:1.0000000pt;stroke-linecap:butt;stroke-linejoin:miter;stroke-opacity:1.0000000;"
     id="path6718" />
  <path
     d="M 177.12500,618.90625 C 153.31992,618.90625 133.81724,636.63968 130.59375,659.56250 C 131.63577,661.39631 132.85257,663.09822 134.21875,664.68750 C 134.99701,640.34862 154.84873,620.78125 179.37500,620.78125 C 180.25322,620.78125 181.10299,620.88787 181.96875,620.93750 C 181.31186,620.26435 180.55652,619.70812 179.84375,619.09375 C 178.93598,619.04146 178.04607,618.90625 177.12500,618.90625 z "
     transform="matrix(1.600000,0.000000,0.000000,1.600000,-4.000000,-879.7795)"
     style="fill:#e8112d;fill-opacity:1.0000000;fill-rule:evenodd;stroke:none;stroke-width:1.0000000pt;stroke-linecap:butt;stroke-linejoin:miter;stroke-opacity:1.0000000;"
     id="path7345" />
  <path
     d="M 132.87500,624.78125 C 132.68203,624.78125 132.50483,624.84108 132.31250,624.84375 C 131.94995,625.35357 131.61454,625.87523 131.28125,626.40625 C 152.92685,626.76643 170.40625,644.39419 170.40625,666.12500 C 170.40625,668.86947 170.12405,671.53720 169.59375,674.12500 C 170.96971,673.63551 172.27889,673.06890 173.56250,672.40625 C 173.88367,670.33090 174.18750,668.25825 174.18750,666.09375 C 174.18750,643.28580 155.68294,624.78126 132.87500,624.78125 z "
     transform="matrix(1.600000,0.000000,0.000000,1.600000,-4.000000,-879.7795)"
     style="fill:#e8112d;fill-opacity:1.0000000;fill-rule:evenodd;stroke:none;stroke-width:1.0000000pt;stroke-linecap:butt;stroke-linejoin:miter;stroke-opacity:1.0000000;"
     id="path7353" />
  <path
     d="M 136.62500,622.00000 C 135.92686,622.00000 135.25223,622.09258 134.56250,622.12500 C 134.07595,622.67271 133.60541,623.23266 133.15625,623.81250 C 133.57053,623.80045 133.95784,623.68750 134.37500,623.68750 C 157.78670,623.68748 176.78125,642.71330 176.78125,666.12500 C 176.78125,667.76544 176.46275,669.31420 176.28125,670.90625 C 177.83033,669.90812 179.24000,668.73920 180.59375,667.50000 C 180.60850,667.03131 180.75000,666.59725 180.75000,666.12500 C 180.75000,641.76800 160.98200,622.00000 136.62500,622.00000 z "
     transform="matrix(1.600000,0.000000,0.000000,1.600000,-4.000000,-879.7795)"
     style="fill:#e8112d;fill-opacity:1.0000000;fill-rule:evenodd;stroke:none;stroke-width:1.0000000pt;stroke-linecap:butt;stroke-linejoin:miter;stroke-opacity:1.0000000;"
     id="path7358" />
  <path
     d="M 140.37500,618.90625 C 139.45393,618.90625 138.56402,619.04146 137.65625,619.09375 C 136.94348,619.70812 136.18814,620.26435 135.53125,620.93750 C 136.39701,620.88788 137.24678,620.78125 138.12500,620.78125 C 162.65127,620.78126 182.50299,640.34861 183.28125,664.68750 C 184.64743,663.09822 185.86423,661.39630 186.90625,659.56250 C 183.68276,636.63968 164.18008,618.90626 140.37500,618.90625 z "
     transform="matrix(1.600000,0.000000,0.000000,1.600000,-4.000000,-879.7795)"
     style="fill:#e8112d;fill-opacity:1.0000000;fill-rule:evenodd;stroke:none;stroke-width:1.0000000pt;stroke-linecap:butt;stroke-linejoin:miter;stroke-opacity:1.0000000;"
     id="path7363" />
</svg>
