<?xml version="1.0" encoding="UTF-8" standalone="no"?>
<!DOCTYPE svg PUBLIC "-//W3C//DTD SVG 1.0//EN"
"http://www.w3.org/TR/2001/REC-SVG-20010904/DTD/svg10.dtd">
<!-- Created with Inkscape (http://www.inkscape.org/) -->
<svg
   xmlns="http://www.w3.org/2000/svg"
   xmlns:xlink="http://www.w3.org/1999/xlink"
   version="1.0"
   x="0.0000000"
   y="0.0000000"
   width="135.00000"
   height="90.00000"
   id="svg9648">
  <defs
     id="defs9650" />
  <g transform="scale(0.3)">
  <rect
     width="350.00000"
     height="175.00000"
     x="125.00000"
     y="502.36218"
     transform="matrix(1.714286,0.000000,0.000000,1.714285,-214.2857,-861.1919)"
     style="fill:#ce1126;fill-opacity:1.0000000;fill-rule:evenodd;stroke:none;stroke-width:1.0000000pt;stroke-linecap:butt;stroke-linejoin:miter;stroke-opacity:1.0000000"
     id="rect9657" />
  <rect
     width="350.00000"
     height="12.500000"
     x="125.00000"
     y="664.86218"
     transform="matrix(1.714286,0.000000,0.000000,1.714285,-214.2857,-861.1919)"
     style="fill:#ffffff;fill-opacity:1.0000000;fill-rule:evenodd;stroke:none;stroke-width:1.0000000pt;stroke-linecap:butt;stroke-linejoin:miter;stroke-opacity:1.0000000"
     id="rect10279" />
  <rect
     width="350.00000"
     height="12.500000"
     x="125.00000"
     y="514.86218"
     transform="matrix(1.714286,0.000000,0.000000,1.714285,-214.2857,-861.1919)"
     style="fill:#ffffff;fill-opacity:1.0000000;fill-rule:evenodd;stroke:none;stroke-width:1.0000000pt;stroke-linecap:butt;stroke-linejoin:miter;stroke-opacity:1.0000000"
     id="rect11522" />
  <rect
     width="350.00000"
     height="12.500000"
     x="125.00000"
     y="614.86218"
     transform="matrix(1.714286,0.000000,0.000000,1.714285,-214.2857,-861.1919)"
     style="fill:#ffffff;fill-opacity:1.0000000;fill-rule:evenodd;stroke:none;stroke-width:1.0000000pt;stroke-linecap:butt;stroke-linejoin:miter;stroke-opacity:1.0000000"
     id="rect11523" />
  <rect
     width="350.00000"
     height="12.500000"
     x="125.00000"
     y="589.86218"
     transform="matrix(1.714286,0.000000,0.000000,1.714285,-214.2857,-861.1919)"
     style="fill:#ffffff;fill-opacity:1.0000000;fill-rule:evenodd;stroke:none;stroke-width:1.0000000pt;stroke-linecap:butt;stroke-linejoin:miter;stroke-opacity:1.0000000"
     id="rect11524" />
  <rect
     width="350.00000"
     height="12.500000"
     x="125.00000"
     y="564.86218"
     transform="matrix(1.714286,0.000000,0.000000,1.714285,-214.2857,-861.1919)"
     style="fill:#ffffff;fill-opacity:1.0000000;fill-rule:evenodd;stroke:none;stroke-width:1.0000000pt;stroke-linecap:butt;stroke-linejoin:miter;stroke-opacity:1.0000000"
     id="rect11525" />
  <rect
     width="350.00000"
     height="12.500000"
     x="125.00000"
     y="539.86218"
     transform="matrix(1.714286,0.000000,0.000000,1.714285,-214.2857,-861.1919)"
     style="fill:#ffffff;fill-opacity:1.0000000;fill-rule:evenodd;stroke:none;stroke-width:1.0000000pt;stroke-linecap:butt;stroke-linejoin:miter;stroke-opacity:1.0000000"
     id="rect11526" />
  <rect
     width="350.00000"
     height="12.500000"
     x="125.00000"
     y="639.86218"
     transform="matrix(1.714286,0.000000,0.000000,1.714285,-214.2857,-861.1919)"
     style="fill:#ffffff;fill-opacity:1.0000000;fill-rule:evenodd;stroke:none;stroke-width:1.0000000pt;stroke-linecap:butt;stroke-linejoin:miter;stroke-opacity:1.0000000"
     id="rect11527" />
  <rect
     width="175.00000"
     height="100.00000"
     x="125.00000"
     y="502.36215"
     transform="matrix(1.714286,0.000000,0.000000,1.714285,-214.2857,-861.1919)"
     style="fill:#002b7f;fill-opacity:1.0000000;fill-rule:evenodd;stroke:none;stroke-width:1.0000000pt;stroke-linecap:butt;stroke-linejoin:miter;stroke-opacity:1.0000000"
     id="rect12149" />
  <path
     d="M 273.63461 473.15302 A 53.392120 29.079638 0 1 1  166.85037,473.15302 A 53.392120 29.079638 0 1 1  273.63461 473.15302 z"
     transform="matrix(1.204030,0.000000,0.000000,2.210677,-141.9643,-960.2743)"
     style="fill:#fcd116;fill-opacity:1.0000000;fill-rule:evenodd;stroke:none;stroke-width:1.0000000pt;stroke-linecap:butt;stroke-linejoin:miter;stroke-opacity:1.0000000"
     id="path13392" />
  <path
     d="M 202.66834 515.33386 A 31.212633 31.640203 0 1 1  140.24307,515.33386 A 31.212633 31.640203 0 1 1  202.66834 515.33386 z"
     transform="matrix(1.830647,0.000000,0.000000,1.805907,-176.3785,-844.9307)"
     style="fill:#002b7f;fill-opacity:1.0000000;fill-rule:evenodd;stroke:none;stroke-width:1.0000000pt;stroke-linecap:butt;stroke-linejoin:miter;stroke-opacity:1.0000000"
     id="path17748" />
  <path
     d="M 186.99412,564.17049 L 184.21241,545.10711 L 173.43424,561.07574 L 179.19992,542.69336 L 162.56007,552.40449 L 175.73116,538.34399 L 156.52537,539.87424 L 174.49320,532.92049 L 156.52537,525.96674 L 175.73116,527.49699 L 162.56007,513.43649 L 179.19992,523.14761 L 173.43424,504.76524 L 184.21241,520.73386 L 186.99412,501.67049 L 189.77583,520.73386 L 200.55400,504.76524 L 194.78832,523.14761 L 211.42817,513.43649 L 198.25708,527.49699 L 217.46287,525.96674 L 199.49504,532.92049 L 217.46287,539.87424 L 198.25708,538.34399 L 211.42817,552.40449 L 194.78832,542.69336 L 200.55400,561.07574 L 189.77583,545.10711 L 186.99412,564.17049 z "
     transform="matrix(1.714286,0.000000,0.000000,1.714285,-133.0612,-827.8631)"
     style="fill:#fcd116;fill-opacity:1.0000000;fill-rule:evenodd;stroke:none;stroke-width:1.0000000pt;stroke-linecap:butt;stroke-linejoin:miter;stroke-opacity:1.0000000"
     id="path15879" />
  </g>
</svg>
