<?xml version="1.0" encoding="UTF-8" standalone="no"?>
<!DOCTYPE svg PUBLIC "-//W3C//DTD SVG 1.0//EN"
"http://www.w3.org/TR/2001/REC-SVG-20010904/DTD/svg10.dtd">
<!-- Created with Inkscape (http://www.inkscape.org/) -->
<svg
   xmlns="http://www.w3.org/2000/svg"
   xmlns:xlink="http://www.w3.org/1999/xlink"
   version="1.0"
   x="0.0000000"
   y="0.0000000"
   width="135.00000"
   height="90.00000"
   id="svg10929">
  <defs
     id="defs10931" />
 <g transform="scale(0.3)">
  <rect
     width="187.50000"
     height="125.00000"
     x="125.00000"
     y="552.36218"
     transform="matrix(2.400000,0.000000,0.000000,2.400000,-300.0000,-1325.669)"
     style="fill:#006b54;fill-opacity:1.0000000;fill-rule:evenodd;stroke:none;stroke-width:1.0000000pt;stroke-linecap:butt;stroke-linejoin:miter;stroke-opacity:1.0000000;"
     id="rect10918" />
  <rect
     width="187.50000"
     height="25.000000"
     x="125.00000"
     y="627.36218"
     transform="matrix(2.400000,0.000000,0.000000,2.400000,-300.0000,-1325.669)"
     style="fill:#fcd116;fill-opacity:1.0000000;fill-rule:evenodd;stroke:none;stroke-width:1.0000000pt;stroke-linecap:butt;stroke-linejoin:miter;stroke-opacity:1.0000000;"
     id="rect12182" />
  <rect
     width="187.50000"
     height="25.000000"
     x="125.00000"
     y="577.36218"
     transform="matrix(2.400000,0.000000,0.000000,2.400000,-300.0000,-1325.669)"
     style="fill:#fcd116;fill-opacity:1.0000000;fill-rule:evenodd;stroke:none;stroke-width:1.0000000pt;stroke-linecap:butt;stroke-linejoin:miter;stroke-opacity:1.0000000;"
     id="rect12804" />
  <rect
     width="75.000000"
     height="75.000000"
     x="125.00000"
     y="552.36218"
     transform="matrix(2.400000,0.000000,0.000000,2.400000,-300.0000,-1325.669)"
     style="fill:#ce1126;fill-opacity:1.0000000;fill-rule:evenodd;stroke:none;stroke-width:1.0000000pt;stroke-linecap:butt;stroke-linejoin:miter;stroke-opacity:1.0000000;"
     id="rect11560" />
  <path
     d="M 139.91245,582.52299 L 157.16930,582.52299 L 162.49995,566.11223 L 167.83060,582.52299 L 185.08745,582.52299 L 171.12838,592.66397 L 176.45903,609.07473 L 162.49995,598.93376 L 148.54088,609.07473 L 153.87153,592.66397 L 139.91245,582.52299 z "
     transform="matrix(2.400000,0.000000,0.000000,2.400000,-300.0000,-1325.669)"
     style="fill:#ffffff;fill-opacity:1.0000000;fill-rule:evenodd;stroke:none;stroke-width:1.0000000pt;stroke-linecap:butt;stroke-linejoin:miter;stroke-opacity:1.0000000;"
     id="path2203" />
   </g>
</svg>
