<?xml version="1.0" encoding="UTF-8" standalone="no"?>
<!DOCTYPE svg PUBLIC "-//W3C//DTD SVG 1.0//EN"
"http://www.w3.org/TR/2001/REC-SVG-20010904/DTD/svg10.dtd">
<!-- Created with Inkscape (http://www.inkscape.org/) -->
<svg
   xmlns="http://www.w3.org/2000/svg"
   xmlns:xlink="http://www.w3.org/1999/xlink"
   version="1.0"
   x="0.0000000"
   y="0.0000000"
   width="135.00000"
   height="90.00000"
   id="svg12173">
  <defs
     id="defs12175" />
  <g transform="scale(0.3)">
  <rect
     width="375.00000"
     height="250.00000"
     x="125.00000"
     y="427.36218"
     transform="matrix(1.200000,0.000000,0.000000,1.200000,-150.0000,-512.8346)"
     style="fill:#007a3d;fill-opacity:1.0000000;fill-rule:evenodd;stroke:none;stroke-width:1.0000000pt;stroke-linecap:butt;stroke-linejoin:miter;stroke-opacity:1.0000000;"
     id="rect12182" />
  <rect
     width="375.00000"
     height="150.00000"
     x="125.00000"
     y="477.36218"
     transform="matrix(1.200000,0.000000,0.000000,1.200000,-150.0000,-512.8346)"
     style="fill:#ffffff;fill-opacity:1.0000000;fill-rule:evenodd;stroke:none;stroke-width:1.0000000pt;stroke-linecap:butt;stroke-linejoin:miter;stroke-opacity:1.0000000;"
     id="rect12804" />
  <rect
     width="375.00000"
     height="100.00000"
     x="125.00000"
     y="502.36218"
     transform="matrix(1.200000,0.000000,0.000000,1.200000,-150.0000,-512.8346)"
     style="fill:#ce1126;fill-opacity:1.0000000;fill-rule:evenodd;stroke:none;stroke-width:1.0000000pt;stroke-linecap:butt;stroke-linejoin:miter;stroke-opacity:1.0000000;"
     id="rect13426" />
  <path
     d="M 264.95000,541.68716 L 301.27820,541.68716 L 312.50000,507.13718 L 323.72180,541.68716 L 360.05000,541.68716 L 330.66410,563.03720 L 341.88590,597.58718 L 312.50000,576.23714 L 283.11410,597.58718 L 294.33590,563.03720 L 264.95000,541.68716 z "
     transform="matrix(1.200000,0.000000,0.000000,1.200000,-150.0000,-512.8346)"
     style="fill:#fcd116;fill-opacity:1.0000000;fill-rule:evenodd;stroke:none;stroke-width:1.0000000pt;stroke-linecap:butt;stroke-linejoin:miter;stroke-opacity:1.0000000;"
     id="path2203" />
  </g>
</svg>
