<?xml version="1.0" encoding="UTF-8" standalone="no"?>
<!DOCTYPE svg PUBLIC "-//W3C//DTD SVG 1.0//EN"
"http://www.w3.org/TR/2001/REC-SVG-20010904/DTD/svg10.dtd">
<!-- Created with Inkscape (http://www.inkscape.org/) -->
<svg
   xmlns="http://www.w3.org/2000/svg"
   xmlns:xlink="http://www.w3.org/1999/xlink"
   version="1.0"
   x="0.0000000"
   y="0.0000000"
   width="135.00000"
   height="90.00000"
   id="svg1">
  <defs
     id="defs3" />
 <g transform="scale(0.3)">
  <rect
     width="625.00000"
     height="312.50000"
     x="125.00000"
     y="364.86218"
     transform="matrix(0.960000,0.000000,0.000000,0.960000,-120.0000,-350.2677)"
     style="fill:#00cc00;fill-opacity:1.0000000;fill-rule:evenodd;stroke:none;stroke-width:1.0000000pt;stroke-linecap:butt;stroke-linejoin:miter;stroke-opacity:1.0000000;"
     id="rect908" />
  <rect
     width="625.00000"
     height="112.50000"
     x="125.00000"
     y="464.86218"
     transform="matrix(0.960000,0.000000,0.000000,0.960000,-120.0000,-350.2677)"
     style="fill:#d20000;fill-opacity:1.0000000;fill-rule:evenodd;stroke:none;stroke-width:1.0000000pt;stroke-linecap:butt;stroke-linejoin:miter;stroke-opacity:1.0000000;"
     id="rect1530" />
  <rect
     width="625.00000"
     height="100.00000"
     x="125.00000"
     y="364.86218"
     transform="matrix(0.960000,0.000000,0.000000,0.960000,-120.0000,-350.2677)"
     style="fill:#3399ff;fill-opacity:1.0000000;fill-rule:evenodd;stroke:none;stroke-width:1.0000000pt;stroke-linecap:butt;stroke-linejoin:miter;stroke-opacity:1.0000000;"
     id="rect2152" />
  <rect
     width="625.00000"
     height="100.00000"
     x="125.00000"
     y="471.11218"
     transform="matrix(0.960000,0.000000,0.000000,0.960000,-120.0000,-350.2677)"
     style="fill:#ffffff;fill-opacity:1.0000000;fill-rule:evenodd;stroke:none;stroke-width:1.0000000pt;stroke-linecap:butt;stroke-linejoin:miter;stroke-opacity:1.0000000;"
     id="rect2774" />
  <path
     d="M 213.76479 358.64459 A 45.297775 46.315701 0 1 0 123.16924,358.64459 A 45.297775 46.315701 0 1 0 213.76479 358.64459 z"
     transform="matrix(0.794741,0.000000,0.000000,0.777275,-49.88762,-230.7652)"
     style="fill:#ffffff;fill-opacity:1.0000000;fill-rule:evenodd;stroke:none;stroke-width:1.0000000pt;stroke-linecap:butt;stroke-linejoin:miter;stroke-opacity:1.0000000;"
     id="path3396" />
  <path
     d="M 81.429207 451.93878 A 20.123310 24.803150 0 1 0 41.182587,451.93878 A 20.123310 24.803150 0 1 0 81.429207 451.93878 z"
     transform="matrix(1.774062,0.000000,0.000000,1.439334,-15.25642,-602.4905)"
     style="fill:#3399ff;fill-opacity:1.0000000;fill-rule:evenodd;stroke:none;stroke-width:1.0000000pt;stroke-linecap:butt;stroke-linejoin:miter;stroke-opacity:1.0000000;"
     id="path4666" />
  <path
     d="M -127.74731,299.88417 L -89.547307,299.88417 L -77.747307,263.55417 L -65.947307,299.88417 L -27.747307,299.88417 L -58.647307,322.33417 L -46.847307,358.66417 L -77.747307,336.21417 L -108.64731,358.66417 L -96.847309,322.33417 L -127.74731,299.88417 z "
     transform="matrix(0.136947,0.000000,0.000000,0.136947,116.2473,33.50708)"
     style="fill:#ffffff;fill-opacity:1.0000000;fill-rule:evenodd;stroke:none;stroke-width:1.0000000pt;stroke-linecap:butt;stroke-linejoin:miter;stroke-opacity:1.0000000;"
     id="path2203" />
  <path
     d="M -127.74731,299.88417 L -89.547307,299.88417 L -77.747307,263.55417 L -65.947307,299.88417 L -27.747307,299.88417 L -58.647307,322.33417 L -46.847307,358.66417 L -77.747307,336.21417 L -108.64731,358.66417 L -96.847309,322.33417 L -127.74731,299.88417 z "
     transform="matrix(0.136947,0.000000,0.000000,0.136947,145.0473,33.50708)"
     style="fill:#ffffff;fill-opacity:1.0000000;fill-rule:evenodd;stroke:none;stroke-width:1.0000000pt;stroke-linecap:butt;stroke-linejoin:miter;stroke-opacity:1.0000000;"
     id="path23463" />
  <path
     d="M -127.74731,299.88417 L -89.547307,299.88417 L -77.747307,263.55417 L -65.947307,299.88417 L -27.747307,299.88417 L -58.647307,322.33417 L -46.847307,358.66417 L -77.747307,336.21417 L -108.64731,358.66417 L -96.847309,322.33417 L -127.74731,299.88417 z "
     transform="matrix(0.136947,0.000000,0.000000,0.136947,173.8473,33.50708)"
     style="fill:#ffffff;fill-opacity:1.0000000;fill-rule:evenodd;stroke:none;stroke-width:1.0000000pt;stroke-linecap:butt;stroke-linejoin:miter;stroke-opacity:1.0000000;"
     id="path23466" />
  <path
     d="M -127.74731,299.88417 L -89.547307,299.88417 L -77.747307,263.55417 L -65.947307,299.88417 L -27.747307,299.88417 L -58.647307,322.33417 L -46.847307,358.66417 L -77.747307,336.21417 L -108.64731,358.66417 L -96.847309,322.33417 L -127.74731,299.88417 z "
     transform="matrix(0.136947,0.000000,0.000000,0.136947,202.6473,33.50708)"
     style="fill:#ffffff;fill-opacity:1.0000000;fill-rule:evenodd;stroke:none;stroke-width:1.0000000pt;stroke-linecap:butt;stroke-linejoin:miter;stroke-opacity:1.0000000;"
     id="path23469" />
  <path
     d="M -127.74731,299.88417 L -89.547307,299.88417 L -77.747307,263.55417 L -65.947307,299.88417 L -27.747307,299.88417 L -58.647307,322.33417 L -46.847307,358.66417 L -77.747307,336.21417 L -108.64731,358.66417 L -96.847309,322.33417 L -127.74731,299.88417 z "
     transform="matrix(0.136947,0.000000,0.000000,0.136947,231.4473,33.50708)"
     style="fill:#ffffff;fill-opacity:1.0000000;fill-rule:evenodd;stroke:none;stroke-width:1.0000000pt;stroke-linecap:butt;stroke-linejoin:miter;stroke-opacity:1.0000000;"
     id="path23472" />
  <path
     d="M -127.74731,299.88417 L -89.547307,299.88417 L -77.747307,263.55417 L -65.947307,299.88417 L -27.747307,299.88417 L -58.647307,322.33417 L -46.847307,358.66417 L -77.747307,336.21417 L -108.64731,358.66417 L -96.847309,322.33417 L -127.74731,299.88417 z "
     transform="matrix(0.136947,0.000000,0.000000,0.136947,145.0473,4.707084)"
     style="fill:#ffffff;fill-opacity:1.0000000;fill-rule:evenodd;stroke:none;stroke-width:1.0000000pt;stroke-linecap:butt;stroke-linejoin:miter;stroke-opacity:1.0000000;"
     id="path23495" />
  <path
     d="M -127.74731,299.88417 L -89.547307,299.88417 L -77.747307,263.55417 L -65.947307,299.88417 L -27.747307,299.88417 L -58.647307,322.33417 L -46.847307,358.66417 L -77.747307,336.21417 L -108.64731,358.66417 L -96.847309,322.33417 L -127.74731,299.88417 z "
     transform="matrix(0.136947,0.000000,0.000000,0.136947,173.8473,4.707084)"
     style="fill:#ffffff;fill-opacity:1.0000000;fill-rule:evenodd;stroke:none;stroke-width:1.0000000pt;stroke-linecap:butt;stroke-linejoin:miter;stroke-opacity:1.0000000;"
     id="path23498" />
  <path
     d="M -127.74731,299.88417 L -89.547307,299.88417 L -77.747307,263.55417 L -65.947307,299.88417 L -27.747307,299.88417 L -58.647307,322.33417 L -46.847307,358.66417 L -77.747307,336.21417 L -108.64731,358.66417 L -96.847309,322.33417 L -127.74731,299.88417 z "
     transform="matrix(0.136947,0.000000,0.000000,0.136947,202.6473,4.707084)"
     style="fill:#ffffff;fill-opacity:1.0000000;fill-rule:evenodd;stroke:none;stroke-width:1.0000000pt;stroke-linecap:butt;stroke-linejoin:miter;stroke-opacity:1.0000000;"
     id="path23501" />
  <path
     d="M -127.74731,299.88417 L -89.547307,299.88417 L -77.747307,263.55417 L -65.947307,299.88417 L -27.747307,299.88417 L -58.647307,322.33417 L -46.847307,358.66417 L -77.747307,336.21417 L -108.64731,358.66417 L -96.847309,322.33417 L -127.74731,299.88417 z "
     transform="matrix(0.136947,0.000000,0.000000,0.136947,231.4473,4.707084)"
     style="fill:#ffffff;fill-opacity:1.0000000;fill-rule:evenodd;stroke:none;stroke-width:1.0000000pt;stroke-linecap:butt;stroke-linejoin:miter;stroke-opacity:1.0000000;"
     id="path23504" />
  <path
     d="M -127.74731,299.88417 L -89.547307,299.88417 L -77.747307,263.55417 L -65.947307,299.88417 L -27.747307,299.88417 L -58.647307,322.33417 L -46.847307,358.66417 L -77.747307,336.21417 L -108.64731,358.66417 L -96.847309,322.33417 L -127.74731,299.88417 z "
     transform="matrix(0.136947,0.000000,0.000000,0.136947,173.8473,-24.09292)"
     style="fill:#ffffff;fill-opacity:1.0000000;fill-rule:evenodd;stroke:none;stroke-width:1.0000000pt;stroke-linecap:butt;stroke-linejoin:miter;stroke-opacity:1.0000000;"
     id="path23514" />
  <path
     d="M -127.74731,299.88417 L -89.547307,299.88417 L -77.747307,263.55417 L -65.947307,299.88417 L -27.747307,299.88417 L -58.647307,322.33417 L -46.847307,358.66417 L -77.747307,336.21417 L -108.64731,358.66417 L -96.847309,322.33417 L -127.74731,299.88417 z "
     transform="matrix(0.136947,0.000000,0.000000,0.136947,202.6473,-24.09292)"
     style="fill:#ffffff;fill-opacity:1.0000000;fill-rule:evenodd;stroke:none;stroke-width:1.0000000pt;stroke-linecap:butt;stroke-linejoin:miter;stroke-opacity:1.0000000;"
     id="path23517" />
  <path
     d="M -127.74731,299.88417 L -89.547307,299.88417 L -77.747307,263.55417 L -65.947307,299.88417 L -27.747307,299.88417 L -58.647307,322.33417 L -46.847307,358.66417 L -77.747307,336.21417 L -108.64731,358.66417 L -96.847309,322.33417 L -127.74731,299.88417 z "
     transform="matrix(0.136947,0.000000,0.000000,0.136947,231.4473,-24.09292)"
     style="fill:#ffffff;fill-opacity:1.0000000;fill-rule:evenodd;stroke:none;stroke-width:1.0000000pt;stroke-linecap:butt;stroke-linejoin:miter;stroke-opacity:1.0000000;"
     id="path23520" />
  </g>
</svg>
