<?xml version="1.0" encoding="UTF-8" standalone="no"?>
<!DOCTYPE svg PUBLIC "-//W3C//DTD SVG 1.0//EN"
"http://www.w3.org/TR/2001/REC-SVG-20010904/DTD/svg10.dtd">
<!-- Created with Inkscape (http://www.inkscape.org/) -->
<svg
   xmlns="http://www.w3.org/2000/svg"
   xmlns:xlink="http://www.w3.org/1999/xlink"
   version="1.0"
   x="0.0000000"
   y="0.0000000"
   width="135.00000"
   height="90.00000"
   id="svg1">
  <defs
     id="defs3" />
  <g
     id="layer1">
     <g transform="scale(0.3)">
    <rect
       width="517.50000"
       height="345.00000"
       x="125.00000"
       y="332.36218"
       transform="matrix(0.869565,0.000000,0.000000,0.869565,-108.6956,-289.0105)"
       style="fill:#00a3dd;fill-opacity:1.0000000;stroke:none;stroke-width:25.000000;stroke-linecap:butt;stroke-linejoin:miter;stroke-miterlimit:4.0000000;stroke-opacity:1.0000000"
       id="rect1061" />
    <path
       d="M 320.66515,490.69966 L 368.86197,490.69966 L 383.75000,444.86218 L 398.63802,490.69966 L 446.83484,490.69966 L 407.84839,519.02474 L 422.73645,564.86218 L 383.75000,536.53709 L 344.76354,564.86218 L 359.65157,519.02474 L 320.66515,490.69966 z "
       transform="matrix(0.869565,0.000000,0.000000,0.869565,-108.6956,-289.0105)"
       style="fill:#ffc61e;fill-opacity:1.0000000;fill-rule:evenodd;stroke:none;stroke-width:1.0000000pt;stroke-linecap:butt;stroke-linejoin:miter;stroke-opacity:1.0000000"
       id="path1732" />
    <path
       d="M 150.00000,622.64134 L 166.06788,622.64134 L 171.03125,607.36218 L 175.99463,622.64134 L 192.06250,622.64134 L 179.06518,632.08303 L 184.02858,647.36218 L 171.03125,637.92048 L 158.03393,647.36218 L 162.99731,632.08303 L 150.00000,622.64134 z "
       transform="matrix(0.869565,0.000000,0.000000,0.869565,-108.6956,-289.0105)"
       style="fill:#ffc61e;fill-opacity:1.0000000;fill-rule:evenodd;stroke:none;stroke-width:1.0000000pt;stroke-linecap:butt;stroke-linejoin:miter;stroke-opacity:1.0000000"
       id="path2359" />
    <path
       d="M 150.00000,372.64134 L 166.06788,372.64134 L 171.03125,357.36218 L 175.99463,372.64134 L 192.06250,372.64134 L 179.06518,382.08303 L 184.02858,397.36218 L 171.03125,387.92048 L 158.03393,397.36218 L 162.99731,382.08303 L 150.00000,372.64134 z "
       transform="matrix(0.869565,0.000000,0.000000,0.869565,-108.6956,-289.0105)"
       style="fill:#ffc61e;fill-opacity:1.0000000;fill-rule:evenodd;stroke:none;stroke-width:1.0000000pt;stroke-linecap:butt;stroke-linejoin:miter;stroke-opacity:1.0000000"
       id="path2360" />
    <path
       d="M 150.00000,572.64136 L 166.06788,572.64136 L 171.03125,557.36220 L 175.99463,572.64136 L 192.06250,572.64136 L 179.06518,582.08305 L 184.02858,597.36220 L 171.03125,587.92050 L 158.03393,597.36220 L 162.99731,582.08305 L 150.00000,572.64136 z "
       transform="matrix(0.869565,0.000000,0.000000,0.869565,-108.6956,-289.0105)"
       style="fill:#ffc61e;fill-opacity:1.0000000;fill-rule:evenodd;stroke:none;stroke-width:1.0000000pt;stroke-linecap:butt;stroke-linejoin:miter;stroke-opacity:1.0000000"
       id="path2361" />
    <path
       d="M 150.00000,522.64134 L 166.06788,522.64134 L 171.03125,507.36218 L 175.99463,522.64134 L 192.06250,522.64134 L 179.06518,532.08303 L 184.02858,547.36218 L 171.03125,537.92048 L 158.03393,547.36218 L 162.99731,532.08303 L 150.00000,522.64134 z "
       transform="matrix(0.869565,0.000000,0.000000,0.869565,-108.6956,-289.0105)"
       style="fill:#ffc61e;fill-opacity:1.0000000;fill-rule:evenodd;stroke:none;stroke-width:1.0000000pt;stroke-linecap:butt;stroke-linejoin:miter;stroke-opacity:1.0000000"
       id="path2362" />
    <path
       d="M 150.00000,472.64135 L 166.06788,472.64135 L 171.03125,457.36219 L 175.99463,472.64135 L 192.06250,472.64135 L 179.06518,482.08304 L 184.02858,497.36219 L 171.03125,487.92049 L 158.03393,497.36219 L 162.99731,482.08304 L 150.00000,472.64135 z "
       transform="matrix(0.869565,0.000000,0.000000,0.869565,-108.6956,-289.0105)"
       style="fill:#ffc61e;fill-opacity:1.0000000;fill-rule:evenodd;stroke:none;stroke-width:1.0000000pt;stroke-linecap:butt;stroke-linejoin:miter;stroke-opacity:1.0000000"
       id="path2363" />
    <path
       d="M 150.00000,422.64134 L 166.06788,422.64134 L 171.03125,407.36218 L 175.99463,422.64134 L 192.06250,422.64134 L 179.06518,432.08303 L 184.02858,447.36218 L 171.03125,437.92048 L 158.03393,447.36218 L 162.99731,432.08303 L 150.00000,422.64134 z "
       transform="matrix(0.869565,0.000000,0.000000,0.869565,-108.6956,-289.0105)"
       style="fill:#ffc61e;fill-opacity:1.0000000;fill-rule:evenodd;stroke:none;stroke-width:1.0000000pt;stroke-linecap:butt;stroke-linejoin:miter;stroke-opacity:1.0000000"
       id="path2364" />
  </g>
</g>
</svg>
