<?xml version="1.0" encoding="UTF-8" standalone="no"?>
<!DOCTYPE svg PUBLIC "-//W3C//DTD SVG 1.0//EN"
"http://www.w3.org/TR/2001/REC-SVG-20010904/DTD/svg10.dtd">
<!-- Created with Inkscape (http://www.inkscape.org/) -->
<svg
   xmlns="http://www.w3.org/2000/svg"
   xmlns:xlink="http://www.w3.org/1999/xlink"
   version="1.0"
   x="0.0000000"
   y="0.0000000"
   width="135.00000"
   height="90.00000"
   id="svg2821">
  <defs
     id="defs2823" />
  <g transform="scale(0.3)">
  <rect
     width="350.00000"
     height="175.00000"
     x="91.918495"
     y="390.93109"
     transform="matrix(1.714286,0.000000,0.000000,1.714286,-157.5745,-670.1677)"
     style="fill:#1eb53a;fill-opacity:1.0000000;fill-rule:evenodd;stroke:none;stroke-width:1.0000000pt;stroke-linecap:butt;stroke-linejoin:miter;stroke-opacity:1.0000000;"
     id="rect908" />
  <rect
     width="350.00000"
     height="75.000000"
     x="91.918495"
     y="440.93109"
     transform="matrix(1.714286,0.000000,0.000000,1.714286,-157.5745,-670.1677)"
     style="fill:#fcd116;fill-opacity:1.0000000;fill-rule:evenodd;stroke:none;stroke-width:1.0000000pt;stroke-linecap:butt;stroke-linejoin:miter;stroke-opacity:1.0000000;"
     id="rect3453" />
  <path
     d="M 91.918495,565.93109 L 179.41850,478.43109 L 91.918495,390.93109 L 91.918495,565.93109 z "
     transform="matrix(1.714286,0.000000,0.000000,1.714286,-157.5745,-670.1677)"
     style="fill:#ce1126;fill-opacity:1.0000000;fill-rule:evenodd;stroke:none;stroke-width:1.0000000pt;stroke-linecap:butt;stroke-linejoin:miter;stroke-opacity:1.0000000;"
     id="path4075" />
  <path
     d="M 363.72498,582.13719 L 381.88908,582.13719 L 387.49998,564.86220 L 393.11088,582.13719 L 411.27498,582.13719 L 396.58203,592.81221 L 402.19293,610.08720 L 387.49998,599.41218 L 372.80703,610.08720 L 378.41793,592.81221 L 363.72498,582.13719 z "
     transform="matrix(1.714286,0.000000,0.000000,1.714286,-214.2857,-861.1925)"
     style="fill:#000000;fill-opacity:1.0000000;fill-rule:evenodd;stroke:none;stroke-width:1.0000000pt;stroke-linecap:butt;stroke-linejoin:miter;stroke-opacity:1.0000000;"
     id="path2203" />
  <path
     d="M 276.22498,582.13719 L 294.38908,582.13719 L 299.99998,564.86220 L 305.61088,582.13719 L 323.77498,582.13719 L 309.08203,592.81221 L 314.69293,610.08720 L 299.99998,599.41218 L 285.30703,610.08720 L 290.91793,592.81221 L 276.22498,582.13719 z "
     transform="matrix(1.714286,0.000000,0.000000,1.714286,-214.2857,-861.1925)"
     style="fill:#000000;fill-opacity:1.0000000;fill-rule:evenodd;stroke:none;stroke-width:1.0000000pt;stroke-linecap:butt;stroke-linejoin:miter;stroke-opacity:1.0000000;"
     id="path5964" />
  </g>
</svg>
