<?xml version="1.0" encoding="UTF-8" standalone="no"?>
<!DOCTYPE svg PUBLIC "-//W3C//DTD SVG 1.0//EN"
"http://www.w3.org/TR/2001/REC-SVG-20010904/DTD/svg10.dtd">
<!-- Created with Inkscape (http://www.inkscape.org/) -->
<svg
   xmlns="http://www.w3.org/2000/svg"
   xmlns:xlink="http://www.w3.org/1999/xlink"
   version="1.0"
   x="0.0000000"
   y="0.0000000"
   width="135.00000"
   height="90.00000"
   id="svg3405">
  <defs
     id="defs3407" />
  <g transform="scale(0.3)">
  <rect
     width="562.50000"
     height="375.00000"
     x="125.00000"
     y="302.36218"
     transform="matrix(0.800000,0.000000,0.000000,0.800000,-100.0000,-241.8897)"
     style="fill:#ce1126;fill-opacity:1.0000000;fill-rule:evenodd;stroke:none;stroke-width:1.4966435pt;stroke-linecap:butt;stroke-linejoin:miter;stroke-opacity:1.0000000;"
     id="rect3414" />
  <rect
     width="562.50000"
     height="75.000000"
     x="125.00000"
     y="527.36218"
     transform="matrix(0.800000,0.000000,0.000000,0.800000,-100.0000,-241.8897)"
     style="fill:#ffffff;fill-opacity:1.0000000;fill-rule:evenodd;stroke:none;stroke-width:1.4966435pt;stroke-linecap:butt;stroke-linejoin:miter;stroke-opacity:1.0000000;"
     id="rect4036" />
  <rect
     width="562.50000"
     height="75.000000"
     x="125.00000"
     y="377.36218"
     transform="matrix(0.800000,0.000000,0.000000,0.800000,-100.0000,-241.8897)"
     style="fill:#ffffff;fill-opacity:1.0000000;fill-rule:evenodd;stroke:none;stroke-width:1.4966435pt;stroke-linecap:butt;stroke-linejoin:miter;stroke-opacity:1.0000000;"
     id="rect4658" />
  <path
     d="M 125.00000,677.36218 L 449.76250,489.86218 L 125.00000,302.36218 L 125.00000,677.36218 z "
     transform="matrix(0.800000,0.000000,0.000000,0.800000,-100.0000,-241.8897)"
     style="fill:#0042c6;fill-opacity:1.0000000;fill-rule:evenodd;stroke:none;stroke-width:1.0000000pt;stroke-linecap:butt;stroke-linejoin:miter;stroke-opacity:1.0000000;"
     id="path4659" />
  <path
     d="M 173.81252,470.54951 L 219.22277,470.54951 L 233.25002,427.36204 L 247.27727,470.54951 L 292.68752,470.54951 L 255.95514,497.23707 L 269.98239,540.42454 L 233.25002,513.73699 L 196.51764,540.42454 L 210.54489,497.23707 L 173.81252,470.54951 z "
     transform="matrix(0.800000,0.000000,0.000000,0.800000,-100.0000,-241.8897)"
     style="fill:#ffffff;fill-opacity:1.0000000;fill-rule:evenodd;stroke:none;stroke-width:1.0000000pt;stroke-linecap:butt;stroke-linejoin:miter;stroke-opacity:1.0000000;"
     id="path2203" />
  </g>
</svg>
