<?xml version="1.0" encoding="UTF-8" standalone="no"?>
<!DOCTYPE svg PUBLIC "-//W3C//DTD SVG 1.0//EN"
"http://www.w3.org/TR/2001/REC-SVG-20010904/DTD/svg10.dtd">
<!-- Created with Inkscape (http://www.inkscape.org/) -->
<svg
   xmlns="http://www.w3.org/2000/svg"
   xmlns:xlink="http://www.w3.org/1999/xlink"
   version="1.0"
   x="0.0000000"
   y="0.0000000"
   width="135.00000"
   height="90.00000"
   id="svg7793">
  <defs
     id="defs7795" />
  <g transform="scale(0.3)">
  <rect
     width="450.00000"
     height="300.00000"
     x="125.00000"
     y="377.36218"
     transform="translate(-125.0000,-377.3622)"
     style="fill:#ffffff;fill-opacity:1.0000000;fill-rule:evenodd;stroke:none;stroke-width:0.87115211pt;stroke-linecap:butt;stroke-linejoin:miter;stroke-opacity:1.0000000;"
     id="rect7802" />
  <rect
     width="225.00000"
     height="150.00000"
     x="350.00000"
     y="377.36218"
     transform="translate(-125.0000,-377.3622)"
     style="fill:#ce1126;fill-opacity:1.0000000;fill-rule:evenodd;stroke:none;stroke-width:0.87115211pt;stroke-linecap:butt;stroke-linejoin:miter;stroke-opacity:1.0000000;"
     id="rect9666" />
  <rect
     width="225.00000"
     height="150.00000"
     x="125.00000"
     y="527.36218"
     transform="translate(-125.0000,-377.3622)"
     style="fill:#0072c6;fill-opacity:1.0000000;fill-rule:evenodd;stroke:none;stroke-width:0.87115211pt;stroke-linecap:butt;stroke-linejoin:miter;stroke-opacity:1.0000000;"
     id="rect9667" />
  <path
     d="M 189.95000,436.91217 L 226.27820,436.91217 L 237.50000,402.36219 L 248.72180,436.91217 L 285.05000,436.91217 L 255.66410,458.26221 L 266.88590,492.81219 L 237.50000,471.46215 L 208.11410,492.81219 L 219.33590,458.26221 L 189.95000,436.91217 z "
     transform="translate(-125.0000,-377.3622)"
     style="fill:#0072c6;fill-opacity:1.0000000;fill-rule:evenodd;stroke:none;stroke-width:1.0000000pt;stroke-linecap:butt;stroke-linejoin:miter;stroke-opacity:1.0000000;"
     id="path2203" />
  <path
     d="M 414.95003,586.91216 L 451.27823,586.91216 L 462.50003,552.36218 L 473.72183,586.91216 L 510.05003,586.91216 L 480.66413,608.26220 L 491.88593,642.81218 L 462.50003,621.46214 L 433.11413,642.81218 L 444.33593,608.26220 L 414.95003,586.91216 z "
     transform="translate(-125.0000,-377.3622)"
     style="fill:#ce1126;fill-opacity:1.0000000;fill-rule:evenodd;stroke:none;stroke-width:1.0000000pt;stroke-linecap:butt;stroke-linejoin:miter;stroke-opacity:1.0000000;"
     id="path11549" />
  </g>
</svg>
