<?xml version="1.0" encoding="UTF-8" standalone="no"?>
<!DOCTYPE svg PUBLIC "-//W3C//DTD SVG 1.0//EN"
"http://www.w3.org/TR/2001/REC-SVG-20010904/DTD/svg10.dtd">
<!-- Created with Inkscape (http://www.inkscape.org/) -->
<svg
   xmlns="http://www.w3.org/2000/svg"
   xmlns:xlink="http://www.w3.org/1999/xlink"
   version="1.0"
   x="0.0000000"
   y="0.0000000"
   width="135.00000"
   height="90.00000"
   id="svg5929">
  <defs
     id="defs5931" />
  <g transform="scale(0.3)">
  <rect
     width="630.00000"
     height="247.50000"
     x="125.00000"
     y="429.86218"
     transform="matrix(1.212123,0.000000,0.000000,1.212121,-151.5154,-521.0450)"
     style="fill:#70193d;fill-opacity:1.0000000;fill-rule:evenodd;stroke:none;stroke-width:1.0000000pt;stroke-linecap:butt;stroke-linejoin:miter;stroke-opacity:1.0000000;"
     id="rect908" />
  <path
     d="M 125.00000,429.86218 L 305.00000,429.86218 L 350.00000,443.61218 L 305.00000,457.36218 L 350.00000,471.11218 L 305.00000,484.86218 L 350.00000,498.61218 L 305.00000,512.36218 L 350.00000,526.11218 L 305.00000,539.86218 L 350.00000,553.61218 L 305.00000,567.36218 L 350.00000,581.11218 L 305.00000,594.86218 L 350.00000,608.61218 L 305.00000,622.36218 L 350.00000,636.11218 L 305.00000,649.86218 L 350.00000,663.61218 L 305.00000,677.36218 L 125.00000,677.36218 L 125.00000,429.86218 z "
     transform="matrix(1.212123,0.000000,0.000000,1.212121,-151.5154,-521.0450)"
     style="fill:#ffffff;fill-opacity:1.0000000;fill-rule:evenodd;stroke:none;stroke-width:1.0000000pt;stroke-linecap:butt;stroke-linejoin:miter;stroke-opacity:1.0000000;"
     id="path6560" />
  </g>
</svg>
