<?xml version="1.0" encoding="UTF-8" standalone="no"?>
<!DOCTYPE svg PUBLIC "-//W3C//DTD SVG 1.0//EN"
"http://www.w3.org/TR/2001/REC-SVG-20010904/DTD/svg10.dtd">
<!-- Created with Inkscape (http://www.inkscape.org/) -->
<svg
   xmlns="http://www.w3.org/2000/svg"
   xmlns:xlink="http://www.w3.org/1999/xlink"
   version="1.0"
   x="0.0000000"
   y="0.0000000"
   width="135.00000"
   height="90.00000"
   id="svg4017">
  <defs
     id="defs4019" />
  <g transform="scale(0.3)">
  <rect
     width="281.25000"
     height="187.50000"
     x="125.00000"
     y="489.86218"
     transform="matrix(1.600000,0.000000,0.000000,1.600000,-200.0000,-783.7795)"
     style="fill:#006b3f;fill-opacity:1.0000000;fill-rule:evenodd;stroke:none;stroke-width:1.0000000pt;stroke-linecap:butt;stroke-linejoin:miter;stroke-opacity:1.0000000;"
     id="rect4026" />
  <rect
     width="281.25000"
     height="62.500000"
     x="125.00000"
     y="552.36218"
     transform="matrix(1.600000,0.000000,0.000000,1.600000,-200.0000,-783.7795)"
     style="fill:#fcd116;fill-opacity:1.0000000;fill-rule:evenodd;stroke:none;stroke-width:1.0000000pt;stroke-linecap:butt;stroke-linejoin:miter;stroke-opacity:1.0000000;"
     id="rect4648" />
  <rect
     width="281.25000"
     height="62.500000"
     x="125.00000"
     y="489.86218"
     transform="matrix(1.600000,0.000000,0.000000,1.600000,-200.0000,-783.7795)"
     style="fill:#ce1126;fill-opacity:1.0000000;fill-rule:evenodd;stroke:none;stroke-width:1.0000000pt;stroke-linecap:butt;stroke-linejoin:miter;stroke-opacity:1.0000000;"
     id="rect5270" />
  <path
     d="M 232.76875,576.23585 L 257.87093,576.23585 L 265.62500,552.36218 L 273.37907,576.23585 L 298.48125,576.23585 L 278.17609,590.98851 L 285.93016,614.86218 L 265.62500,600.10953 L 245.31984,614.86218 L 253.07391,590.98851 L 232.76875,576.23585 z "
     transform="matrix(1.600000,0.000000,0.000000,1.600000,-200.0000,-783.7795)"
     style="fill:#000000;fill-opacity:1.0000000;fill-rule:evenodd;stroke:none;stroke-width:1.0000000pt;stroke-linecap:butt;stroke-linejoin:miter;stroke-opacity:1.0000000;"
     id="path2203" />
  </g>
</svg>
