<?xml version="1.0" encoding="UTF-8" standalone="no"?>
<!DOCTYPE svg PUBLIC "-//W3C//DTD SVG 1.0//EN"
"http://www.w3.org/TR/2001/REC-SVG-20010904/DTD/svg10.dtd">
<!-- Created with Inkscape (http://www.inkscape.org/) -->
<svg
   xmlns="http://www.w3.org/2000/svg"
   xmlns:xlink="http://www.w3.org/1999/xlink"
   version="1.0"
   x="0.0000000"
   y="0.0000000"
   width="135.00000"
   height="90.00000"
   id="svg12819">
  <defs
     id="defs12821" />
  <g transform="scale(0.3)">
  <rect
     width="450.00000"
     height="300.00000"
     x="125.00000"
     y="377.36218"
     transform="translate(-125.0000,-377.3622)"
     style="fill:#006b54;fill-opacity:1.0000000;fill-rule:evenodd;stroke:none;stroke-width:1.0000000pt;stroke-linecap:butt;stroke-linejoin:miter;stroke-opacity:1.0000000;"
     id="rect12828" />
  <rect
     width="112.50000"
     height="300.00000"
     x="125.00000"
     y="377.36218"
     transform="translate(-125.0000,-377.3622)"
     style="fill:#ffffff;fill-opacity:1.0000000;fill-rule:evenodd;stroke:none;stroke-width:1.0000000pt;stroke-linecap:butt;stroke-linejoin:miter;stroke-opacity:1.0000000;"
     id="rect13450" />
  <path
     d="M 479.50357 503.21451 A 62.039280 48.830917 0 1 0 355.42501,503.21451 A 62.039280 48.830917 0 1 0 479.50357 503.21451 z"
     transform="matrix(1.450694,0.000000,0.000000,1.843095,-324.3629,-777.4722)"
     style="fill:#ffffff;fill-opacity:1.0000000;fill-rule:evenodd;stroke:none;stroke-width:1.0000000pt;stroke-linecap:butt;stroke-linejoin:miter;stroke-opacity:1.0000000;"
     id="path14072" />
  <path
     d="M 479.50357 503.21451 A 62.039280 48.830917 0 1 0 355.42501,503.21451 A 62.039280 48.830917 0 1 0 479.50357 503.21451 z"
     transform="matrix(1.329803,0.000000,0.000000,1.689503,-251.4701,-720.1201)"
     style="fill:#006b54;fill-opacity:1.0000000;fill-rule:evenodd;stroke:none;stroke-width:1.0000000pt;stroke-linecap:butt;stroke-linejoin:miter;stroke-opacity:1.0000000;"
     id="path14694" />
  <path
     d="M 317.71879,593.09406 L 339.51666,593.09406 L 346.25004,572.36216 L 352.98342,593.09406 L 374.78129,593.09406 L 357.14898,605.90526 L 363.88235,626.63716 L 346.25004,613.82595 L 328.61773,626.63716 L 335.35110,605.90526 L 317.71879,593.09406 z "
     transform="matrix(0.664323,0.747404,-0.747351,0.664370,546.2477,-548.8385)"
     style="fill:#ffffff;fill-opacity:1.0000000;fill-rule:evenodd;stroke:none;stroke-width:1.0000000pt;stroke-linecap:butt;stroke-linejoin:miter;stroke-opacity:1.0000000;"
     id="path2203" />
  </g>
</svg>
