<?xml version="1.0" encoding="UTF-8" standalone="no"?>
<!DOCTYPE svg PUBLIC "-//W3C//DTD SVG 1.0//EN"
"http://www.w3.org/TR/2001/REC-SVG-20010904/DTD/svg10.dtd">
<!-- Created with Inkscape (http://www.inkscape.org/) -->
<svg
   xmlns="http://www.w3.org/2000/svg"
   xmlns:xlink="http://www.w3.org/1999/xlink"
   version="1.0"
   x="0.0000000"
   y="0.0000000"
   width="135.00000"
   height="90.00000"
   id="svg1">
  <defs
     id="defs3" />
  <g transform="scale(0.3)">
  <g
     id="layer1">
    <rect
       width="237.50000"
       height="125.00000"
       x="125.00000"
       y="552.36218"
       transform="matrix(2.400000,0.000000,0.000000,2.400000,-300.0000,-1325.669)"
       style="fill:#75b2dd;fill-opacity:1.0000000;stroke:none;stroke-width:1.2500000;stroke-linecap:butt;stroke-linejoin:miter;stroke-miterlimit:4.0000000;stroke-opacity:1.0000000"
       id="rect1061" />
    <path
       d="M 240.71484,653.51158 L 249.79689,653.51158 L 252.60234,644.87408 L 255.40779,653.51158 L 264.48984,653.51158 L 257.14337,658.84908 L 259.94881,667.48658 L 252.60234,662.14907 L 245.25586,667.48658 L 248.06131,658.84908 L 240.71484,653.51158 z "
       transform="matrix(2.400000,0.000000,0.000000,2.400000,-321.2452,-1517.698)"
       style="fill:#ffffff;fill-opacity:1.0000000;fill-rule:evenodd;stroke:none;stroke-width:1.0000000pt;stroke-linecap:butt;stroke-linejoin:miter;stroke-opacity:1.0000000"
       id="path2203" />
    <path
       d="M 240.71484,653.51158 L 249.79689,653.51158 L 252.60234,644.87408 L 255.40779,653.51158 L 264.48984,653.51158 L 257.14337,658.84908 L 259.94881,667.48658 L 252.60234,662.14907 L 245.25586,667.48658 L 248.06131,658.84908 L 240.71484,653.51158 z "
       transform="matrix(0.000000,-2.400000,2.399998,0.000000,-1382.697,756.2458)"
       style="fill:#ffffff;fill-opacity:1.0000000;fill-rule:evenodd;stroke:none;stroke-width:1.0000000pt;stroke-linecap:butt;stroke-linejoin:miter;stroke-opacity:1.0000000"
       id="path2981" />
    <path
       d="M 240.71484,653.51158 L 249.79689,653.51158 L 252.60234,644.87408 L 255.40779,653.51158 L 264.48984,653.51158 L 257.14337,658.84908 L 259.94881,667.48658 L 252.60234,662.14907 L 245.25586,667.48658 L 248.06131,658.84908 L 240.71484,653.51158 z "
       transform="matrix(2.399998,0.000000,0.000000,-2.400000,-321.2452,1817.697)"
       style="fill:#ffffff;fill-opacity:1.0000000;fill-rule:evenodd;stroke:none;stroke-width:1.0000000pt;stroke-linecap:butt;stroke-linejoin:miter;stroke-opacity:1.0000000"
       id="path2984" />
    <path
       d="M 240.71484,653.51158 L 249.79689,653.51158 L 252.60234,644.87408 L 255.40779,653.51158 L 264.48984,653.51158 L 257.14337,658.84908 L 259.94881,667.48658 L 252.60234,662.14907 L 245.25586,667.48658 L 248.06131,658.84908 L 240.71484,653.51158 z "
       transform="matrix(0.000000,2.400000,-2.399998,0.000000,1952.697,-456.2455)"
       style="fill:#ffffff;fill-opacity:1.0000000;fill-rule:evenodd;stroke:none;stroke-width:1.0000000pt;stroke-linecap:butt;stroke-linejoin:miter;stroke-opacity:1.0000000"
       id="path2987" />
  </g>
</g>
</svg>
