<?xml version="1.0" encoding="UTF-8" standalone="no"?>
<!DOCTYPE svg PUBLIC "-//W3C//DTD SVG 1.0//EN"
"http://www.w3.org/TR/2001/REC-SVG-20010904/DTD/svg10.dtd">
<!-- Created with Inkscape (http://www.inkscape.org/) -->
<svg
   xmlns="http://www.w3.org/2000/svg"
   xmlns:xlink="http://www.w3.org/1999/xlink"
   version="1.0"
   x="0.0000000"
   y="0.0000000"
   width="135.00000"
   height="90.00000"
   id="svg1">
  <defs
     id="defs3" />
  <g transform="scale(0.3)">
  <rect
     width="375.00000"
     height="250.00000"
     x="125.00000"
     y="427.36218"
     transform="matrix(1.200000,0.000000,0.000000,1.200000,-150.0000,-512.8346)"
     style="fill:#ce1126;fill-opacity:1.0000000;fill-rule:evenodd;stroke:none;stroke-width:1.0000000pt;stroke-linecap:butt;stroke-linejoin:miter;stroke-opacity:1.0000000;"
     id="rect908" />
  <path
     d="M 561.10936,569.24545 L 588.35564,569.24545 L 596.77201,543.33297 L 605.18840,569.24545 L 632.43466,569.24545 L 610.39515,585.25799 L 618.81153,611.17047 L 596.77201,595.15794 L 574.73249,611.17047 L 583.14887,585.25799 L 561.10936,569.24545 z "
     transform="matrix(1.200000,0.000000,0.000000,1.200000,-641.1264,-621.9996)"
     style="fill:#fcd116;fill-opacity:1.0000000;fill-rule:evenodd;stroke:none;stroke-width:1.0000000pt;stroke-linecap:butt;stroke-linejoin:miter;stroke-opacity:1.0000000;"
     id="path2203" />
  <path
     d="M 561.10936,569.24545 L 588.35564,569.24545 L 596.77201,543.33297 L 605.18840,569.24545 L 632.43466,569.24545 L 610.39515,585.25799 L 618.81153,611.17047 L 596.77201,595.15794 L 574.73249,611.17047 L 583.14887,585.25799 L 561.10936,569.24545 z "
     transform="matrix(-0.205770,-0.343010,0.343000,-0.205776,73.57188,354.2201)"
     style="fill:#fcd116;fill-opacity:1.0000000;fill-rule:evenodd;stroke:none;stroke-width:1.0000000pt;stroke-linecap:butt;stroke-linejoin:miter;stroke-opacity:1.0000000;"
     id="path2796" />
  <path
     d="M 561.10936,569.24545 L 588.35564,569.24545 L 596.77201,543.33297 L 605.18840,569.24545 L 632.43466,569.24545 L 610.39515,585.25799 L 618.81153,611.17047 L 596.77201,595.15794 L 574.73249,611.17047 L 583.14887,585.25799 L 561.10936,569.24545 z "
     transform="matrix(-5.656144e-2,-0.395980,0.395935,-5.656778e-2,-16.21800,329.1644)"
     style="fill:#fcd116;fill-opacity:1.0000000;fill-rule:evenodd;stroke:none;stroke-width:1.0000000pt;stroke-linecap:butt;stroke-linejoin:miter;stroke-opacity:1.0000000;"
     id="path2875" />
  <path
     d="M 561.10936,569.24545 L 588.35564,569.24545 L 596.77201,543.33297 L 605.18840,569.24545 L 632.43466,569.24545 L 610.39515,585.25799 L 618.81153,611.17047 L 596.77201,595.15794 L 574.73249,611.17047 L 583.14887,585.25799 L 561.10936,569.24545 z "
     transform="matrix(0.109896,-0.384600,0.384520,0.109919,-108.9250,270.6707)"
     style="fill:#fcd116;fill-opacity:1.0000000;fill-rule:evenodd;stroke:none;stroke-width:1.0000000pt;stroke-linecap:butt;stroke-linejoin:miter;stroke-opacity:1.0000000;"
     id="path2878" />
  <path
     d="M 561.10936,569.24545 L 588.35564,569.24545 L 596.77201,543.33297 L 605.18840,569.24545 L 632.43466,569.24545 L 610.39515,585.25799 L 618.81153,611.17047 L 596.77201,595.15794 L 574.73249,611.17047 L 583.14887,585.25799 L 561.10936,569.24545 z "
     transform="matrix(0.249906,-0.312347,0.312380,0.249878,-180.5776,176.2638)"
     style="fill:#fcd116;fill-opacity:1.0000000;fill-rule:evenodd;stroke:none;stroke-width:1.0000000pt;stroke-linecap:butt;stroke-linejoin:miter;stroke-opacity:1.0000000;"
     id="path2881" />
  </g>
</svg>
