<?xml version="1.0" encoding="UTF-8" standalone="no"?>
<!DOCTYPE svg PUBLIC "-//W3C//DTD SVG 1.0//EN"
"http://www.w3.org/TR/2001/REC-SVG-20010904/DTD/svg10.dtd">
<!-- Created with Inkscape (http://www.inkscape.org/) -->
<svg
   xmlns="http://www.w3.org/2000/svg"
   xmlns:xlink="http://www.w3.org/1999/xlink"
   version="1.0"
   x="0.0000000"
   y="0.0000000"
   width="135.00000"
   height="90.00000"
   id="svg1">
  <defs
     id="defs3" />
  <g transform="scale(0.3)">
  <rect
     width="315.00000"
     height="200.00000"
     x="125.00000"
     y="477.36218"
     transform="matrix(1.500000,0.000000,0.000000,1.500000,-187.5000,-716.0433)"
     style="fill:#ffffff;fill-opacity:1.0000000;fill-rule:evenodd;stroke:none;stroke-width:1.0000000pt;stroke-linecap:butt;stroke-linejoin:miter;stroke-opacity:1.0000000"
     id="rect908" />
  <rect
     width="315.00000"
     height="31.250000"
     x="125.00000"
     y="627.36218"
     transform="matrix(1.500000,0.000000,0.000000,1.500000,-187.5000,-716.0433)"
     style="fill:#3a75c4;fill-opacity:1.0000000;fill-rule:evenodd;stroke:none;stroke-width:1.0000000pt;stroke-linecap:butt;stroke-linejoin:miter;stroke-opacity:1.0000000"
     id="rect3394" />
  <rect
     width="315.00000"
     height="31.250000"
     x="125.00000"
     y="496.11218"
     transform="matrix(1.500000,0.000000,0.000000,1.500000,-187.5000,-716.0433)"
     style="fill:#3a75c4;fill-opacity:1.0000000;fill-rule:evenodd;stroke:none;stroke-width:1.0000000pt;stroke-linecap:butt;stroke-linejoin:miter;stroke-opacity:1.0000000"
     id="rect4637" />
  <g
     transform="matrix(1.500000,0.000000,0.000000,1.500000,-784.8281,-804.1683)"
     style="fill:#3a75c4;fill-opacity:1.0000000"
     id="g16476">
    <path
       d="M 660.71875,594.86218 L 625.00000,656.73718 L 696.43750,656.73718 L 660.71875,594.86218 z M 660.71875,608.58093 L 684.53125,649.86218 L 636.90625,649.86218 L 660.71875,608.58093 z "
       style="fill-rule:evenodd;stroke:none;stroke-width:6.8750000;stroke-linecap:butt;stroke-linejoin:miter;stroke-miterlimit:4.0000000;stroke-opacity:1.0000000"
       id="path13360" />
    <path
       d="M 660.71875,677.36218 L 625.00000,615.48718 L 696.43750,615.48718 L 660.71875,677.36218 z M 660.71875,663.64343 L 684.53125,622.36218 L 636.90625,622.36218 L 660.71875,663.64343 z "
       style="fill-rule:evenodd;stroke:none;stroke-width:6.8750000;stroke-linecap:butt;stroke-linejoin:miter;stroke-miterlimit:4.0000000;stroke-opacity:1.0000000"
       id="path16475" />
  </g>
</g>
</svg>
