<?xml version="1.0" encoding="UTF-8" standalone="no"?>
<!DOCTYPE svg PUBLIC "-//W3C//DTD SVG 1.0//EN"
"http://www.w3.org/TR/2001/REC-SVG-20010904/DTD/svg10.dtd">
<!-- Created with Inkscape (http://www.inkscape.org/) -->
<svg
   xmlns="http://www.w3.org/2000/svg"
   xmlns:xlink="http://www.w3.org/1999/xlink"
   version="1.0"
   x="0.0000000"
   y="0.0000000"
   width="135.00000"
   height="90.00000"
   id="svg943">
  <defs
     id="defs945" />
  <g transform="scale(0.3)">
  <rect
     width="500.00000"
     height="250.00000"
     x="125.00000"
     y="427.36218"
     transform="matrix(1.200000,0.000000,0.000000,1.200000,-150.0000,-512.8346)"
     style="fill:#d81e05;fill-opacity:1.0000000;fill-rule:evenodd;stroke:none;stroke-width:1.0000000pt;stroke-linecap:butt;stroke-linejoin:miter;stroke-opacity:1.0000000;"
     id="rect952" />
  <path
     d="M 350.00000,427.36218 L 375.00000,552.36218 L 400.00000,427.36218 L 350.00000,427.36218 z "
     transform="matrix(1.200000,0.000000,0.000000,1.200000,-150.0000,-512.8346)"
     style="fill:#f9dd16;fill-opacity:1.0000000;fill-rule:evenodd;stroke:none;stroke-width:1.0000000pt;stroke-linecap:butt;stroke-linejoin:miter;stroke-opacity:1.0000000;"
     id="path1574" />
  <path
     d="M 350.00000,677.36218 L 375.00000,552.36218 L 400.00000,677.36218 L 350.00000,677.36218 z "
     transform="matrix(1.200000,0.000000,0.000000,1.200000,-150.0000,-512.8346)"
     style="fill:#f9dd16;fill-opacity:1.0000000;fill-rule:evenodd;stroke:none;stroke-width:1.0000000pt;stroke-linecap:butt;stroke-linejoin:miter;stroke-opacity:1.0000000;"
     id="path2198" />
  <path
     d="M 125.00000,577.36218 L 375.00000,552.36218 L 125.00000,527.36218 L 125.00000,577.36218 z "
     transform="matrix(1.200000,0.000000,0.000000,1.200000,-150.0000,-512.8346)"
     style="fill:#f9dd16;fill-opacity:1.0000000;fill-rule:evenodd;stroke:none;stroke-width:1.0000000pt;stroke-linecap:butt;stroke-linejoin:miter;stroke-opacity:1.0000000;"
     id="path2199" />
  <path
     d="M 625.00000,577.36218 L 375.00000,552.36218 L 625.00000,527.36218 L 625.00000,577.36218 z "
     transform="matrix(1.200000,0.000000,0.000000,1.200000,-150.0000,-512.8346)"
     style="fill:#f9dd16;fill-opacity:1.0000000;fill-rule:evenodd;stroke:none;stroke-width:1.0000000pt;stroke-linecap:butt;stroke-linejoin:miter;stroke-opacity:1.0000000;"
     id="path2200" />
  <path
     d="M 375.00000,552.36218 L 550.00000,427.36218 L 625.00000,427.36218 L 375.00000,552.36218 z "
     transform="matrix(1.200000,0.000000,0.000000,1.200000,-150.0000,-512.8346)"
     style="fill:#f9dd16;fill-opacity:1.0000000;fill-rule:evenodd;stroke:none;stroke-width:1.0000000pt;stroke-linecap:butt;stroke-linejoin:miter;stroke-opacity:1.0000000;"
     id="path2201" />
  <path
     d="M 375.00000,552.36218 L 200.00000,427.36218 L 125.00000,427.36218 L 375.00000,552.36218 z "
     transform="matrix(1.200000,0.000000,0.000000,1.200000,-150.0000,-512.8346)"
     style="fill:#f9dd16;fill-opacity:1.0000000;fill-rule:evenodd;stroke:none;stroke-width:1.0000000pt;stroke-linecap:butt;stroke-linejoin:miter;stroke-opacity:1.0000000;"
     id="path4068" />
  <path
     d="M 375.00000,552.36218 L 200.00000,677.36218 L 125.00000,677.36218 L 375.00000,552.36218 z "
     transform="matrix(1.200000,0.000000,0.000000,1.200000,-150.0000,-512.8346)"
     style="fill:#f9dd16;fill-opacity:1.0000000;fill-rule:evenodd;stroke:none;stroke-width:1.0000000pt;stroke-linecap:butt;stroke-linejoin:miter;stroke-opacity:1.0000000;"
     id="path4069" />
  <path
     d="M 375.00000,552.36218 L 550.00000,677.36218 L 625.00000,677.36218 L 375.00000,552.36218 z "
     transform="matrix(1.200000,0.000000,0.000000,1.200000,-150.0000,-512.8346)"
     style="fill:#f9dd16;fill-opacity:1.0000000;fill-rule:evenodd;stroke:none;stroke-width:1.0000000pt;stroke-linecap:butt;stroke-linejoin:miter;stroke-opacity:1.0000000;"
     id="path4070" />
  <path
     d="M 353.75000 548.92468 A 45.937500 45.937500 0 1 0 261.87500,548.92468 A 45.937500 45.937500 0 1 0 353.75000 548.92468 z"
     transform="matrix(0.979592,0.000000,0.000000,0.979592,-1.530840,-387.7225)"
     style="fill:#d81e05;fill-opacity:1.0000000;fill-rule:evenodd;stroke:none;stroke-width:1.0000000pt;stroke-linecap:butt;stroke-linejoin:miter;stroke-opacity:1.0000000;"
     id="path4071" />
  <path
     d="M 245.00000 506.73718 A 28.437500 23.125000 0 1 0 188.12500,506.73718 A 28.437500 23.125000 0 1 0 245.00000 506.73718 z"
     transform="matrix(1.318681,0.000000,0.000000,1.621621,14.42316,-671.7357)"
     style="fill:#f9dd16;fill-opacity:1.0000000;fill-rule:evenodd;stroke:none;stroke-width:1.0000000pt;stroke-linecap:butt;stroke-linejoin:miter;stroke-opacity:1.0000000;"
     id="path4693" />
  </g>
</svg>
