<?xml version="1.0" encoding="UTF-8" standalone="no"?>
<!DOCTYPE svg PUBLIC "-//W3C//DTD SVG 1.0//EN"
"http://www.w3.org/TR/2001/REC-SVG-20010904/DTD/svg10.dtd">
<!-- Created with Inkscape (http://www.inkscape.org/) -->
<svg
   xmlns="http://www.w3.org/2000/svg"
   xmlns:xlink="http://www.w3.org/1999/xlink"
   version="1.0"
   x="0.0000000"
   y="0.0000000"
   width="135.00000"
   height="90.00000"
   id="svg52853">
  <defs
     id="defs52855" />
  <g transform="scale(0.3)">
  <rect
     width="315.00000"
     height="157.50000"
     x="125.00000"
     y="519.86218"
     transform="matrix(1.904762,0.000000,0.000000,1.904762,-238.0952,-990.2137)"
     style="fill:#d81c3f;fill-opacity:1.0000000;fill-rule:evenodd;stroke:none;stroke-width:1.0000000pt;stroke-linecap:butt;stroke-linejoin:miter;stroke-opacity:1.0000000;"
     id="rect52862" />
  <rect
     width="315.00000"
     height="105.00000"
     x="125.00000"
     y="519.86218"
     transform="matrix(1.904762,0.000000,0.000000,1.904762,-238.0952,-990.2137)"
     style="fill:#0051ba;fill-opacity:1.0000000;fill-rule:evenodd;stroke:none;stroke-width:1.0000000pt;stroke-linecap:butt;stroke-linejoin:miter;stroke-opacity:1.0000000;"
     id="rect53484" />
  <rect
     width="315.00000"
     height="52.500000"
     x="125.00000"
     y="519.86218"
     transform="matrix(1.904762,0.000000,0.000000,1.904762,-238.0952,-990.2137)"
     style="fill:#ffffff;fill-opacity:1.0000000;fill-rule:evenodd;stroke:none;stroke-width:1.0000000pt;stroke-linecap:butt;stroke-linejoin:miter;stroke-opacity:1.0000000;"
     id="rect54727" />
  <g
     transform="matrix(0.196356,0.000000,0.000000,0.196356,88.64596,22.59416)"
     id="g55370">
    <path
       d="M 312.50250,151.69969 C 240.71370,151.78958 172.71426,173.98440 125.00000,195.44811 L 139.47506,422.17586 C 149.50425,540.65679 226.71304,609.63685 312.50250,636.72469 C 398.29194,609.63685 475.50075,540.65679 485.52995,422.17586 L 499.92500,196.16811 C 451.89072,171.30440 384.29130,152.26958 312.50250,151.69969 z "
       style="fill:#d81c3f;fill-opacity:1.0000000;fill-rule:evenodd;stroke:none;stroke-width:1.0000000pt;stroke-linecap:butt;stroke-linejoin:miter;stroke-opacity:0.43220338;"
       id="path27260" />
    <path
       d="M 312.46250,151.69969 C 245.81945,151.78709 182.69415,168.73798 138.40000,189.60594 L 151.83750,414.66844 C 161.14781,529.86078 232.82235,596.92621 312.46250,623.26219 C 392.10265,596.92621 463.77719,529.86078 473.08750,414.66844 L 486.52500,189.60594 C 442.23085,168.73798 379.10555,151.78709 312.46250,151.69969 z "
       style="fill:#0051ba;fill-opacity:1.0000000;fill-rule:evenodd;stroke:none;stroke-width:1.0000000pt;stroke-linecap:butt;stroke-linejoin:miter;stroke-opacity:0.43220338;"
       id="rect23499" />
    <path
       d="M 312.50000,308.59375 L 270.15625,391.28125 L 242.78125,355.71875 L 171.25000,450.25000 C 172.54277,456.11786 174.06098,461.78195 175.71875,467.31250 C 183.70773,480.79537 199.05983,496.18751 218.75000,496.18750 C 234.37500,496.18750 250.00000,483.68751 265.62500,483.68750 C 281.25000,483.68750 296.87500,496.18751 312.50000,496.18750 C 328.12500,496.18750 343.75000,483.68751 359.37500,483.68750 C 375.00000,483.68750 390.62500,496.18751 406.25000,496.18750 C 425.76223,496.18750 441.01199,481.08140 449.06250,467.68750 C 450.78085,462.00872 452.32426,456.15964 453.65625,450.12500 L 382.21875,355.71875 L 354.84375,391.28125 L 312.50000,308.59375 z M 265.62500,496.18750 C 250.00000,496.18750 234.37500,508.68751 218.75000,508.68750 C 206.38375,508.68750 195.76052,504.30770 187.53125,498.09375 C 190.43730,504.26152 193.51131,510.26003 196.87500,515.93750 C 203.32121,519.94579 210.64722,522.65626 218.75000,522.65625 C 234.37500,522.65625 250.00000,510.15624 265.62500,510.15625 C 281.25000,510.15625 296.87500,522.65627 312.50000,522.65625 C 328.12500,522.65625 343.75000,510.15624 359.37500,510.15625 C 375.00000,510.15625 390.62500,522.65627 406.25000,522.65625 C 414.23840,522.65625 421.46236,520.00622 427.84375,516.09375 C 431.20591,510.43465 434.27780,504.45676 437.18750,498.31250 C 428.99728,504.41039 418.47216,508.68750 406.25000,508.68750 C 390.62500,508.68750 375.00000,496.18751 359.37500,496.18750 C 343.75000,496.18750 328.12500,508.68751 312.50000,508.68750 C 296.87500,508.68750 281.25000,496.18751 265.62500,496.18750 z M 265.62500,522.65625 C 250.00000,522.65625 234.37500,535.15627 218.75000,535.15625 C 215.35528,535.15625 212.12712,534.75858 209.00000,534.15625 C 236.03205,570.26963 272.91204,594.44292 312.46875,608.34375 C 351.94376,594.46582 388.76544,570.27526 415.78125,534.21875 C 412.72303,534.79347 409.56265,535.15625 406.25000,535.15625 C 390.62500,535.15625 375.00000,522.65627 359.37500,522.65625 C 343.75000,522.65625 328.12500,535.15627 312.50000,535.15625 C 296.87500,535.15625 281.25000,522.65627 265.62500,522.65625 z "
       style="fill:#ffffff;fill-opacity:1.0000000;fill-rule:evenodd;stroke:none;stroke-width:1.0000000pt;stroke-linecap:butt;stroke-linejoin:miter;stroke-opacity:1.0000000;"
       id="rect28503" />
    <g
       transform="matrix(0.283600,0.000000,0.000000,0.283565,242.0125,162.4449)"
       style="fill:#fcd116;fill-opacity:1.0000000;"
       id="g35344">
      <path
         d="M 0.0000000,69.112183 L 125.00000,69.112183 L 62.500000,177.36218"
         style="fill-rule:evenodd;stroke:none;stroke-width:1.0000000pt;stroke-linecap:butt;stroke-linejoin:miter;stroke-opacity:1.0000000;"
         id="path34720" />
      <path
         d="M 3.5527137e-15,141.27468 L 125.00000,141.27468 L 62.500000,33.024683"
         style="fill-rule:evenodd;stroke:none;stroke-width:1.0000000pt;stroke-linecap:butt;stroke-linejoin:miter;stroke-opacity:1.0000000;"
         id="path35343" />
    </g>
    <g
       transform="matrix(0.283600,0.000000,0.000000,0.283565,347.5375,162.4435)"
       style="fill:#fcd116;fill-opacity:1.0000000;"
       id="g38452">
      <path
         d="M 0.0000000,69.112183 L 125.00000,69.112183 L 62.500000,177.36218"
         style="fill-rule:evenodd;stroke:none;stroke-width:1.0000000pt;stroke-linecap:butt;stroke-linejoin:miter;stroke-opacity:1.0000000;"
         id="path38453" />
      <path
         d="M 3.5527137e-15,141.27468 L 125.00000,141.27468 L 62.500000,33.024683"
         style="fill-rule:evenodd;stroke:none;stroke-width:1.0000000pt;stroke-linecap:butt;stroke-linejoin:miter;stroke-opacity:1.0000000;"
         id="path38454" />
    </g>
    <g
       transform="matrix(0.283600,0.000000,0.000000,0.283565,294.7750,233.1060)"
       style="fill:#fcd116;fill-opacity:1.0000000;"
       id="g38455">
      <path
         d="M 0.0000000,69.112183 L 125.00000,69.112183 L 62.500000,177.36218"
         style="fill-rule:evenodd;stroke:none;stroke-width:1.0000000pt;stroke-linecap:butt;stroke-linejoin:miter;stroke-opacity:1.0000000;"
         id="path38456" />
      <path
         d="M 3.5527137e-15,141.27468 L 125.00000,141.27468 L 62.500000,33.024683"
         style="fill-rule:evenodd;stroke:none;stroke-width:1.0000000pt;stroke-linecap:butt;stroke-linejoin:miter;stroke-opacity:1.0000000;"
         id="path38457" />
    </g>
  </g>
</g>
</svg>
