<?xml version="1.0" encoding="UTF-8" standalone="no"?>
<!DOCTYPE svg PUBLIC "-//W3C//DTD SVG 1.0//EN"
"http://www.w3.org/TR/2001/REC-SVG-20010904/DTD/svg10.dtd">
<!-- Created with Inkscape (http://www.inkscape.org/) -->
<svg
   xmlns="http://www.w3.org/2000/svg"
   xmlns:xlink="http://www.w3.org/1999/xlink"
   version="1.0"
   x="0.0000000"
   y="0.0000000"
   width="135.00000"
   height="90.00000"
   id="svg2394">
  <defs
     id="defs3" />
  <g transform="scale(0.3)">
  <g
     id="layer1">
    <rect
       width="1125.0000"
       height="750.00000"
       x="125.00000"
       y="-72.637817"
       transform="matrix(0.400000,0.000000,0.000000,0.400000,-50.00000,29.05513)"
       style="fill:#000000;fill-opacity:1.0000000;stroke:none;stroke-width:25.000000;stroke-linecap:butt;stroke-linejoin:miter;stroke-miterlimit:4.0000000;stroke-opacity:1.0000000"
       id="rect2404" />
    <rect
       width="1125.0000"
       height="500.00000"
       x="125.00000"
       y="177.36218"
       transform="matrix(0.400000,0.000000,0.000000,0.400000,-50.00000,29.05513)"
       style="fill:#ce1126;fill-opacity:1.0000000;stroke:none;stroke-width:25.000000;stroke-linecap:butt;stroke-linejoin:miter;stroke-miterlimit:4.0000000;stroke-opacity:1.0000000"
       id="rect3026" />
    <rect
       width="1125.0000"
       height="250.00000"
       x="125.00000"
       y="427.36218"
       transform="matrix(0.400000,0.000000,0.000000,0.400000,-50.00000,29.05513)"
       style="fill:#339e35;fill-opacity:1.0000000;stroke:none;stroke-width:25.000000;stroke-linecap:butt;stroke-linejoin:miter;stroke-miterlimit:4.0000000;stroke-opacity:1.0000000"
       id="rect3648" />
    <path
       d="M -8.6373901 306.66653 A 236.08897 190.02283 0 1 1  -480.81534,306.66653 A 236.08897 190.02283 0 1 1  -8.6373901 306.66653 z"
       transform="matrix(0.273202,0.000000,0.000000,0.339433,291.8597,9.907342)"
       style="fill:#ce1126;fill-opacity:1.0000000;stroke:none;stroke-width:25.000000;stroke-linecap:butt;stroke-linejoin:miter;stroke-miterlimit:4.0000000;stroke-opacity:1.0000000"
       id="path4270" />
    <path
       d="M -32.600311,-359.26491 C -3.3370906,-361.82511 7.1729294,-362.15754 26.088969,-367.22608 C 33.937119,-369.32899 41.246059,-373.44424 39.844129,-378.67634 C 38.442189,-383.90843 30.054839,-383.81788 22.206689,-381.71497 C 3.2906394,-376.64643 -5.9775206,-371.67932 -32.600311,-359.26491 M -37.322291,-374.24111 C -8.3935606,-379.34202 2.0474894,-380.58920 20.449799,-387.28709 C 28.084809,-390.06601 35.007269,-394.80262 33.154659,-399.89262 C 31.302049,-404.98262 22.954509,-404.16140 15.319499,-401.38248 C -3.0828106,-394.68459 -11.882791,-388.92861 -37.322291,-374.24111 M -43.331561,-388.74877 C -14.957491,-396.35158 -4.6648706,-398.50401 13.083659,-406.78028 C 20.447409,-410.21405 26.930709,-415.53597 24.641529,-420.44514 C 22.352339,-425.35430 14.108139,-423.80867 6.7443894,-420.37490 C -11.004141,-412.09862 -19.268971,-405.59758 -43.331561,-388.74877 M -50.582391,-402.67748 C -22.978921,-412.72432 -12.913061,-415.76562 4.0466094,-425.55729 C 11.083059,-429.61979 17.077849,-435.48651 14.369519,-440.17748 C 11.661189,-444.86845 3.5830594,-442.61017 -3.4533906,-438.54767 C -20.413061,-428.75600 -28.079831,-421.55937 -50.582391,-402.67748 M -59.019591,-415.92124 C -32.396801,-428.33565 -22.634311,-432.24267 -6.5925906,-443.47521 C 0.063019371,-448.13552 5.5236794,-454.50240 2.4168094,-458.93947 C -0.69006063,-463.37655 -8.5406206,-460.42280 -15.196231,-455.76249 C -31.237961,-444.52996 -38.248331,-436.69250 -59.019591,-415.92124 M -68.578961,-428.37925 C -43.139461,-443.06675 -33.754651,-447.80976 -18.752941,-460.39769 C -12.528831,-465.62034 -7.6438606,-472.43891 -11.125631,-476.58832 C -14.607391,-480.73773 -22.170651,-477.11100 -28.394761,-471.88835 C -43.396461,-459.30043 -49.697071,-450.88180 -68.578961,-428.37925 M -79.187741,-439.95670 C -55.125151,-456.80551 -46.189421,-462.34841 -32.341911,-476.19592 C -26.596671,-481.94117 -22.324571,-489.15955 -26.154731,-492.98971 C -29.984891,-496.81987 -37.203271,-492.54777 -42.948521,-486.80253 C -56.796031,-472.95502 -62.338931,-464.01929 -79.187741,-439.95670 M -90.765191,-450.56548 C -68.262641,-469.44737 -59.844011,-475.74798 -47.256091,-490.74968 C -42.033441,-496.97379 -38.406711,-504.53705 -42.556121,-508.01881 C -46.705531,-511.50058 -53.524101,-506.61561 -58.746751,-500.39150 C -71.334681,-485.38979 -76.077691,-476.00498 -90.765191,-450.56548 M -103.22320,-460.12485 C -82.451941,-480.89611 -74.614481,-487.90648 -63.381951,-503.94821 C -58.721641,-510.60382 -55.767891,-518.45438 -60.204971,-521.56125 C -64.642041,-524.66812 -71.008921,-519.20746 -75.669231,-512.55185 C -86.901771,-496.51013 -90.808791,-486.74764 -103.22320,-460.12485 M -116.46696,-468.56205 C -97.585071,-491.06461 -90.388441,-498.73138 -80.596771,-515.69105 C -76.534271,-522.72750 -74.275991,-530.80563 -78.966961,-533.51396 C -83.657931,-536.22229 -89.524651,-530.22750 -93.587151,-523.19105 C -103.37882,-506.23138 -106.42012,-496.16552 -116.46696,-468.56205 M -130.39567,-475.81288 C -113.54686,-499.87547 -107.04582,-508.14030 -98.769541,-525.88883 C -95.335771,-533.25258 -93.790141,-541.49678 -98.699301,-543.78597 C -103.60847,-546.07515 -108.93039,-539.59185 -112.36416,-532.22810 C -120.64043,-514.47957 -122.79286,-504.18695 -130.39567,-475.81288 M -144.90333,-481.82215 C -130.21583,-507.26165 -124.45985,-516.06163 -117.76196,-534.46394 C -114.98304,-542.09895 -114.16182,-550.44649 -119.25182,-552.29910 C -124.34182,-554.15171 -129.07843,-547.22925 -131.85735,-539.59424 C -138.55524,-521.19193 -139.80242,-510.75088 -144.90333,-481.82215 M -159.87953,-486.54413 C -147.46512,-513.16692 -142.49801,-522.43508 -137.42947,-541.35113 C -135.32656,-549.19928 -135.23601,-557.58663 -140.46810,-558.98857 C -145.70020,-560.39050 -149.81545,-553.08156 -151.91836,-545.23341 C -156.98690,-526.31737 -157.31933,-515.80735 -159.87953,-486.54413 M -175.21029,-489.94288 C -165.16345,-517.54635 -161.02301,-527.21215 -157.62240,-546.49797 C -156.21151,-554.49953 -156.85230,-562.86286 -162.18668,-563.80346 C -167.52105,-564.74405 -170.98362,-557.10426 -172.39452,-549.10269 C -175.79513,-529.81687 -175.21029,-519.31788 -175.21029,-489.94288 M -190.77893,-491.99253 C -183.17612,-520.36660 -179.89387,-530.35648 -178.18707,-549.86530 C -177.47893,-557.95938 -178.84619,-566.23503 -184.24225,-566.70713 C -189.63830,-567.17922 -192.42185,-559.26671 -193.12999,-551.17263 C -194.83679,-531.66382 -193.33913,-521.25574 -190.77893,-491.99253 M -206.46696,-492.67748 C -201.36605,-521.60621 -198.96696,-531.84415 -198.96696,-551.42748 C -198.96696,-559.55248 -201.05029,-567.67748 -206.46696,-567.67748 C -211.88363,-567.67748 -213.96696,-559.55248 -213.96696,-551.42748 C -213.96696,-531.84415 -211.56788,-521.60621 -206.46696,-492.67748 M -222.15499,-491.99253 C -219.59479,-521.25574 -218.09713,-531.66382 -219.80393,-551.17263 C -220.51207,-559.26671 -223.29562,-567.17922 -228.69167,-566.70713 C -234.08773,-566.23503 -235.45499,-557.95938 -234.74685,-549.86530 C -233.04005,-530.35648 -229.75780,-520.36660 -222.15499,-491.99253 M -237.72363,-489.94288 C -237.72363,-519.31788 -237.13879,-529.81687 -240.53940,-549.10269 C -241.95030,-557.10426 -245.41287,-564.74405 -250.74724,-563.80346 C -256.08162,-562.86286 -256.72241,-554.49953 -255.31152,-546.49797 C -251.91091,-527.21215 -247.77047,-517.54635 -237.72363,-489.94288 M -253.05439,-486.54413 C -255.61459,-515.80735 -255.94702,-526.31737 -261.01556,-545.23341 C -263.11847,-553.08156 -267.23372,-560.39050 -272.46582,-558.98857 C -277.69791,-557.58663 -277.60735,-549.19928 -275.50445,-541.35113 C -270.43591,-522.43508 -265.46880,-513.16692 -253.05439,-486.54413 M -268.03059,-481.82215 C -273.13150,-510.75088 -274.37868,-521.19193 -281.07657,-539.59424 C -283.85549,-547.22925 -288.59209,-554.15171 -293.68210,-552.29910 C -298.77210,-550.44649 -297.95088,-542.09895 -295.17196,-534.46394 C -288.47407,-516.06163 -282.71809,-507.26165 -268.03059,-481.82215 M -282.53825,-475.81288 C -290.14106,-504.18695 -292.29349,-514.47957 -300.56976,-532.22810 C -304.00353,-539.59185 -309.32545,-546.07515 -314.23462,-543.78597 C -319.14378,-541.49678 -317.59815,-533.25258 -314.16438,-525.88883 C -305.88810,-508.14030 -299.38705,-499.87547 -282.53825,-475.81288 M -296.46696,-468.56205 C -306.51380,-496.16552 -309.55510,-506.23138 -319.34677,-523.19105 C -323.40927,-530.22750 -329.27599,-536.22229 -333.96696,-533.51396 C -338.65793,-530.80563 -336.39965,-522.72750 -332.33715,-515.69105 C -322.54548,-498.73138 -315.34885,-491.06461 -296.46696,-468.56205 M -309.71072,-460.12485 C -322.12513,-486.74764 -326.03215,-496.51013 -337.26469,-512.55185 C -341.92500,-519.20746 -348.29188,-524.66812 -352.72895,-521.56125 C -357.16602,-518.45438 -354.21228,-510.60382 -349.55197,-503.94821 C -338.31944,-487.90648 -330.48198,-480.89611 -309.71072,-460.12485 M -322.16873,-450.56548 C -336.85623,-476.00498 -341.59924,-485.38979 -354.18717,-500.39150 C -359.40982,-506.61561 -366.22839,-511.50058 -370.37780,-508.01881 C -374.52721,-504.53705 -370.90048,-496.97379 -365.67783,-490.74968 C -353.08991,-475.74798 -344.67128,-469.44737 -322.16873,-450.56548 M -333.74618,-439.95670 C -350.59499,-464.01929 -356.13789,-472.95502 -369.98540,-486.80253 C -375.73065,-492.54777 -382.94903,-496.81987 -386.77919,-492.98971 C -390.60935,-489.15955 -386.33725,-481.94117 -380.59200,-476.19592 C -366.74450,-462.34841 -357.80877,-456.80551 -333.74618,-439.95670 M -344.35496,-428.37925 C -363.23685,-450.88180 -369.53746,-459.30043 -384.53916,-471.88835 C -390.76327,-477.11100 -398.32653,-480.73773 -401.80829,-476.58832 C -405.29006,-472.43891 -400.40509,-465.62034 -394.18098,-460.39769 C -379.17927,-447.80976 -369.79446,-443.06675 -344.35496,-428.37925 M -353.91433,-415.92124 C -374.68559,-436.69250 -381.69596,-444.52996 -397.73769,-455.76249 C -404.39330,-460.42280 -412.24386,-463.37655 -415.35073,-458.93947 C -418.45760,-454.50240 -412.99694,-448.13552 -406.34133,-443.47521 C -390.29961,-432.24267 -380.53712,-428.33565 -353.91433,-415.92124 M -362.35153,-402.67748 C -384.85409,-421.55937 -392.52086,-428.75600 -409.48052,-438.54767 C -416.51698,-442.61017 -424.59510,-444.86845 -427.30344,-440.17748 C -430.01177,-435.48651 -424.01698,-429.61979 -416.98052,-425.55729 C -400.02086,-415.76562 -389.95500,-412.72432 -362.35153,-402.67748 M -369.60236,-388.74877 C -393.66495,-405.59758 -401.92978,-412.09862 -419.67831,-420.37490 C -427.04206,-423.80867 -435.28626,-425.35430 -437.57545,-420.44514 C -439.86463,-415.53597 -433.38133,-410.21405 -426.01758,-406.78028 C -408.26905,-398.50401 -397.97643,-396.35158 -369.60236,-388.74877 M -375.61163,-374.24111 C -401.05113,-388.92861 -409.85111,-394.68459 -428.25342,-401.38248 C -435.88842,-404.16140 -444.23597,-404.98262 -446.08858,-399.89262 C -447.94119,-394.80262 -441.01873,-390.06601 -433.38372,-387.28709 C -414.98141,-380.58920 -404.54036,-379.34202 -375.61163,-374.24111 M -380.33361,-359.26491 C -406.95640,-371.67932 -416.22456,-376.64643 -435.14061,-381.71497 C -442.98876,-383.81788 -451.37611,-383.90843 -452.77805,-378.67634 C -454.17998,-373.44424 -446.87104,-369.32899 -439.02289,-367.22608 C -420.10685,-362.15754 -409.59683,-361.82511 -380.33361,-359.26491 z "
       transform="matrix(0.400000,0.000000,0.000000,0.400000,307.5868,239.0710)"
       style="fill:#ce1126;fill-opacity:1.0000000;fill-rule:evenodd;stroke:none;stroke-width:0.25000000pt;stroke-linecap:butt;stroke-linejoin:miter;stroke-opacity:1.0000000"
       id="path4904" />
    <rect
       width="1125.0000"
       height="18.750000"
       x="125.00000"
       y="158.61218"
       transform="matrix(0.400000,0.000000,0.000000,0.400000,-50.00000,29.05513)"
       style="fill:#000000;fill-opacity:1.0000000;stroke:none;stroke-width:25.000000;stroke-linecap:butt;stroke-linejoin:miter;stroke-miterlimit:4.0000000;stroke-opacity:1.0000000"
       id="rect4271" />
  </g>
</g>
</svg>
