<?xml version="1.0" encoding="UTF-8" standalone="no"?>
<!DOCTYPE svg PUBLIC "-//W3C//DTD SVG 1.0//EN"
"http://www.w3.org/TR/2001/REC-SVG-20010904/DTD/svg10.dtd">
<!-- Created with Inkscape (http://www.inkscape.org/) -->
<svg
   xmlns="http://www.w3.org/2000/svg"
   xmlns:xlink="http://www.w3.org/1999/xlink"
   version="1.0"
   x="0.0000000"
   y="0.0000000"
   width="135.00000"
   height="90.00000"
   id="svg1">
  <defs
     id="defs3" />
  <g transform="scale(0.3)">
  <rect
     width="375.00000"
     height="187.50000"
     x="125.00000"
     y="489.86218"
     transform="matrix(1.600000,0.000000,0.000000,1.600000,-200.0000,-783.7795)"
     style="fill:#002b7f;fill-opacity:1.0000000;fill-rule:evenodd;stroke:none;stroke-width:0.69457798pt;stroke-linecap:butt;stroke-linejoin:miter;stroke-opacity:1.0000000;"
     id="rect908" />
  <g
     transform="matrix(1.600000,0.000000,0.000000,1.600000,-200.0000,-783.7795)"
     id="g4907">
    <path
       d="M 355.26057,408.82154 L 367.28880,408.82154 L 371.00432,397.36218 L 374.71985,408.82154 L 386.74807,408.82154 L 377.01843,415.90282 L 380.73396,427.36218 L 371.00432,420.28091 L 361.27468,427.36218 L 364.99021,415.90282 L 355.26057,408.82154 z "
       transform="translate(35.25193,225.9375)"
       style="fill:#ffffff;fill-opacity:1.0000000;fill-rule:evenodd;stroke:none;stroke-width:1.0000000pt;stroke-linecap:butt;stroke-linejoin:miter;stroke-opacity:1.0000000;"
       id="path5977" />
    <path
       d="M 360.06682,410.36984 L 368.42307,410.36984 L 371.00432,402.42468 L 373.58557,410.36984 L 381.94182,410.36984 L 375.18244,415.27952 L 377.76369,423.22468 L 371.00432,418.31500 L 364.24494,423.22468 L 366.82619,415.27952 L 360.06682,410.36984 z "
       transform="translate(35.25193,225.9375)"
       style="fill:#ce1126;fill-opacity:1.0000000;fill-rule:evenodd;stroke:none;stroke-width:1.0000000pt;stroke-linecap:butt;stroke-linejoin:miter;stroke-opacity:1.0000000;"
       id="path2203" />
  </g>
  <g
     transform="matrix(1.600000,0.000000,0.000000,1.600000,-200.0000,-783.7795)"
     id="g4891">
    <path
       d="M 360.95054,410.69106 L 371.78501,410.69106 L 375.13179,400.38718 L 378.47856,410.69106 L 389.31304,410.69106 L 380.54903,417.05830 L 383.89580,427.36218 L 375.13179,420.99493 L 366.36778,427.36218 L 369.71455,417.05830 L 360.95054,410.69106 z "
       transform="translate(-12.20677,155.6500)"
       style="fill:#ffffff;fill-opacity:1.0000000;fill-rule:evenodd;stroke:none;stroke-width:1.0000000pt;stroke-linecap:butt;stroke-linejoin:miter;stroke-opacity:1.0000000;"
       id="path16649" />
    <path
       d="M 365.75679,412.26323 L 372.91929,412.26323 L 375.13179,405.44968 L 377.34429,412.26323 L 384.50679,412.26323 L 378.71304,416.47363 L 380.92554,423.28718 L 375.13179,419.07677 L 369.33804,423.28718 L 371.55054,416.47363 L 365.75679,412.26323 z "
       transform="translate(-12.20677,155.6500)"
       style="fill:#ce1126;fill-opacity:1.0000000;fill-rule:evenodd;stroke:none;stroke-width:1.0000000pt;stroke-linecap:butt;stroke-linejoin:miter;stroke-opacity:1.0000000;"
       id="path16650" />
  </g>
  <g
     transform="matrix(1.600000,0.000000,0.000000,1.600000,-200.0000,-783.7795)"
     id="g4894">
    <path
       d="M 360.95054,410.69106 L 371.78501,410.69106 L 375.13179,400.38718 L 378.47856,410.69106 L 389.31304,410.69106 L 380.54903,417.05830 L 383.89580,427.36218 L 375.13179,420.99493 L 366.36778,427.36218 L 369.71455,417.05830 L 360.95054,410.69106 z "
       transform="translate(31.11821,112.0625)"
       style="fill:#ffffff;fill-opacity:1.0000000;fill-rule:evenodd;stroke:none;stroke-width:1.0000000pt;stroke-linecap:butt;stroke-linejoin:miter;stroke-opacity:1.0000000;"
       id="path11001" />
    <path
       d="M 365.75679,412.26323 L 372.91929,412.26323 L 375.13179,405.44968 L 377.34429,412.26323 L 384.50679,412.26323 L 378.71304,416.47363 L 380.92554,423.28718 L 375.13179,419.07677 L 369.33804,423.28718 L 371.55054,416.47363 L 365.75679,412.26323 z "
       transform="translate(31.11821,112.0625)"
       style="fill:#ce1126;fill-opacity:1.0000000;fill-rule:evenodd;stroke:none;stroke-width:1.0000000pt;stroke-linecap:butt;stroke-linejoin:miter;stroke-opacity:1.0000000;"
       id="path11000" />
  </g>
  <g
     transform="matrix(1.600000,0.000000,0.000000,1.600000,-200.0000,-783.7795)"
     id="g4904">
    <path
       d="M 347.66682,412.52967 L 357.30754,412.52967 L 360.28557,403.36218 L 363.26359,412.52967 L 372.90432,412.52967 L 365.10593,418.19469 L 368.08396,427.36218 L 360.28557,421.69716 L 352.48718,427.36218 L 355.46521,418.19469 L 347.66682,412.52967 z "
       transform="translate(83.10817,143.0000)"
       style="fill:#ffffff;fill-opacity:1.0000000;fill-rule:evenodd;stroke:none;stroke-width:1.0000000pt;stroke-linecap:butt;stroke-linejoin:miter;stroke-opacity:1.0000000;"
       id="path19819" />
    <path
       d="M 352.47307,414.10184 L 358.44182,414.10184 L 360.28557,408.42468 L 362.12932,414.10184 L 368.09807,414.10184 L 363.26995,417.61002 L 365.11370,423.28718 L 360.28557,419.77900 L 355.45745,423.28718 L 357.30120,417.61002 L 352.47307,414.10184 z "
       transform="translate(83.10817,143.0000)"
       style="fill:#ce1126;fill-opacity:1.0000000;fill-rule:evenodd;stroke:none;stroke-width:1.0000000pt;stroke-linecap:butt;stroke-linejoin:miter;stroke-opacity:1.0000000;"
       id="path19182" />
  </g>
  <g
     transform="matrix(0.800000,0.000000,0.000000,0.800000,-100.0000,-391.8897)"
     id="g1763">
    <rect
       width="375.00000"
       height="187.50000"
       x="125.00000"
       y="489.86218"
       style="fill:#002b7f;fill-opacity:1.0000000;fill-rule:evenodd;stroke:none;stroke-width:1.0000000pt;stroke-linecap:butt;stroke-linejoin:miter;stroke-opacity:1.0000000;"
       id="rect1764" />
    <path
       d="M 125.00000,677.36218 L 166.92500,677.36218 L 500.00000,510.82468 L 500.00000,489.86218 L 458.07500,489.86218 L 125.00000,656.39968 L 125.00000,677.36218 z "
       style="fill:#ffffff;fill-opacity:1.0000000;fill-rule:evenodd;stroke:none;stroke-width:1.0000000pt;stroke-linecap:butt;stroke-linejoin:miter;stroke-opacity:1.0000000;"
       id="path4640" />
    <path
       d="M 500.00000,677.36218 L 458.07500,677.36218 L 125.00000,510.82468 L 125.00000,489.86218 L 166.92500,489.86218 L 500.00000,656.39968 L 500.00000,677.36218 z "
       style="fill:#ffffff;fill-opacity:1.0000000;fill-rule:evenodd;stroke:none;stroke-width:1.0000000pt;stroke-linecap:butt;stroke-linejoin:miter;stroke-opacity:1.0000000;"
       id="path6505" />
    <rect
       width="62.500000"
       height="187.50000"
       x="281.25000"
       y="489.86218"
       style="fill:#ffffff;fill-opacity:1.0000000;fill-rule:evenodd;stroke:none;stroke-width:1.0000000pt;stroke-linecap:butt;stroke-linejoin:miter;stroke-opacity:1.0000000;"
       id="rect1530" />
    <rect
       width="375.00000"
       height="62.500000"
       x="125.00000"
       y="552.36218"
       style="fill:#ffffff;fill-opacity:1.0000000;fill-rule:evenodd;stroke:none;stroke-width:1.0000000pt;stroke-linecap:butt;stroke-linejoin:miter;stroke-opacity:1.0000000;"
       id="rect2152" />
    <rect
       width="375.00000"
       height="37.500000"
       x="125.00000"
       y="564.86218"
       style="fill:#ce1126;fill-opacity:1.0000000;fill-rule:evenodd;stroke:none;stroke-width:1.0000000pt;stroke-linecap:butt;stroke-linejoin:miter;stroke-opacity:1.0000000;"
       id="rect3395" />
    <rect
       width="37.500000"
       height="187.50000"
       x="293.75000"
       y="489.86218"
       style="fill:#ce1126;fill-opacity:1.0000000;fill-rule:evenodd;stroke:none;stroke-width:1.0000000pt;stroke-linecap:butt;stroke-linejoin:miter;stroke-opacity:1.0000000;"
       id="rect4017" />
    <path
       d="M 125.00000,677.36218 L 152.95000,677.36218 L 277.95000,614.86218 L 250.00000,614.86218 L 125.00000,677.36218 z "
       style="fill:#ce1126;fill-opacity:1.0000000;fill-rule:evenodd;stroke:none;stroke-width:1.0000000pt;stroke-linecap:butt;stroke-linejoin:miter;stroke-opacity:1.0000000;"
       id="path7127" />
    <path
       d="M 347.05000,552.36218 L 375.00000,552.36218 L 500.00000,489.86218 L 472.05000,489.86218 L 347.05000,552.36218 z "
       style="fill:#ce1126;fill-opacity:1.0000000;fill-rule:evenodd;stroke:none;stroke-width:1.0000000pt;stroke-linecap:butt;stroke-linejoin:miter;stroke-opacity:1.0000000;"
       id="path8371" />
    <path
       d="M 500.00000,677.36218 L 500.00000,663.38718 L 402.95000,614.86218 L 375.00000,614.86218 L 500.00000,677.36218 z "
       style="fill:#ce1126;fill-opacity:1.0000000;fill-rule:evenodd;stroke:none;stroke-width:1.0000000pt;stroke-linecap:butt;stroke-linejoin:miter;stroke-opacity:1.0000000;"
       id="path8994" />
    <path
       d="M 125.00000,489.86218 L 125.00000,503.83718 L 222.05000,552.36218 L 250.00000,552.36218 L 125.00000,489.86218 z "
       style="fill:#ce1126;fill-opacity:1.0000000;fill-rule:evenodd;stroke:none;stroke-width:1.0000000pt;stroke-linecap:butt;stroke-linejoin:miter;stroke-opacity:1.0000000;"
       id="path9616" />
    </g>
  </g>
</svg>
