<?xml version="1.0" encoding="UTF-8" standalone="no"?>
<!DOCTYPE svg PUBLIC "-//W3C//DTD SVG 1.0//EN"
"http://www.w3.org/TR/2001/REC-SVG-20010904/DTD/svg10.dtd">
<!-- Created with Inkscape (http://www.inkscape.org/) -->
<svg
   xmlns="http://www.w3.org/2000/svg"
   xmlns:xlink="http://www.w3.org/1999/xlink"
   version="1.0"
   x="0.0000000"
   y="0.0000000"
   width="135.00000"
   height="90.00000"
   id="svg2891">
  <defs
     id="defs2893" />
  <g transform="scale(0.3)">
  <rect
     width="500.00000"
     height="250.00000"
     x="125.00601"
     y="427.36218"
     transform="matrix(1.199986,0.000000,0.000000,1.200000,-149.9982,-512.8346)"
     style="fill:#002b7f;fill-opacity:1.0000000;fill-rule:evenodd;stroke:none;stroke-width:1.0000000pt;stroke-linecap:butt;stroke-linejoin:miter;stroke-opacity:1.0000000;"
     id="rect2900" />
  <rect
     width="500.00000"
     height="50.000000"
     x="125.00000"
     y="577.36218"
     transform="matrix(1.199986,0.000000,0.000000,1.200000,-149.9982,-512.8346)"
     style="fill:#ffffff;fill-opacity:1.0000000;fill-rule:evenodd;stroke:none;stroke-width:1.0000000pt;stroke-linecap:butt;stroke-linejoin:miter;stroke-opacity:1.0000000;"
     id="rect3522" />
  <rect
     width="500.00000"
     height="50.000000"
     x="125.00000"
     y="477.36218"
     transform="matrix(1.199986,0.000000,0.000000,1.200000,-149.9982,-512.8346)"
     style="fill:#ffffff;fill-opacity:1.0000000;fill-rule:evenodd;stroke:none;stroke-width:1.0000000pt;stroke-linecap:butt;stroke-linejoin:miter;stroke-opacity:1.0000000;"
     id="rect4144" />
  <path
     d="M 125.00000,427.36218 L 341.50625,552.36218 L 125.00000,677.36218 L 125.00000,427.36218 z "
     transform="matrix(1.199986,0.000000,0.000000,1.200000,-149.9982,-512.8346)"
     style="fill:#ce1126;fill-opacity:1.0000000;fill-rule:evenodd;stroke:none;stroke-width:1.0000000pt;stroke-linecap:butt;stroke-linejoin:miter;stroke-opacity:1.0000000;"
     id="path4145" />
  <path
     d="M -19.756001,608.06857 L 7.4901484,608.06857 L 15.906499,582.20141 L 24.322849,608.06857 L 51.568999,608.06857 L 29.529574,624.05308 L 37.945924,649.92023 L 15.906499,633.93571 L -6.1329255,649.92023 L 2.2834244,624.05308 L -19.756001,608.06857 z "
     transform="matrix(1.199986,0.000000,0.000000,1.200000,67.52146,-593.6417)"
     style="fill:#ffffff;fill-opacity:1.0000000;fill-rule:evenodd;stroke:none;stroke-width:1.0000000pt;stroke-linecap:butt;stroke-linejoin:miter;stroke-opacity:1.0000000;"
     id="path2203" />
  </g>
</svg>
