<?xml version="1.0" encoding="UTF-8" standalone="no"?>
<!DOCTYPE svg PUBLIC "-//W3C//DTD SVG 1.0//EN"
"http://www.w3.org/TR/2001/REC-SVG-20010904/DTD/svg10.dtd">
<!-- Created with Inkscape (http://www.inkscape.org/) -->
<svg
   xmlns="http://www.w3.org/2000/svg"
   xmlns:xlink="http://www.w3.org/1999/xlink"
   version="1.0"
   x="0.0000000"
   y="0.0000000"
   width="135.00000"
   height="90.00000"
   id="svg15969">
  <defs
     id="defs15971" />
  <g transform="scale(0.3)">
  <rect
     width="261.25000"
     height="137.50000"
     x="125.00000"
     y="539.86218"
     transform="matrix(2.181818,0.000000,0.000000,2.181818,-272.7273,-1177.881)"
     style="fill:#ce1126;fill-opacity:1.0000000;fill-rule:evenodd;stroke:none;stroke-width:1.0000000pt;stroke-linecap:butt;stroke-linejoin:miter;stroke-opacity:1.0000000;"
     id="rect15978" />
  <rect
     width="261.25000"
     height="12.500000"
     x="125.00000"
     y="652.36218"
     transform="matrix(2.181818,0.000000,0.000000,2.181818,-272.7273,-1177.881)"
     style="fill:#ffffff;fill-opacity:1.0000000;fill-rule:evenodd;stroke:none;stroke-width:1.0000000pt;stroke-linecap:butt;stroke-linejoin:miter;stroke-opacity:1.0000000;"
     id="rect16600" />
  <rect
     width="261.25000"
     height="12.500000"
     x="125.00000"
     y="627.36218"
     transform="matrix(2.181818,0.000000,0.000000,2.181818,-272.7273,-1177.881)"
     style="fill:#ffffff;fill-opacity:1.0000000;fill-rule:evenodd;stroke:none;stroke-width:1.0000000pt;stroke-linecap:butt;stroke-linejoin:miter;stroke-opacity:1.0000000;"
     id="rect17222" />
  <rect
     width="261.25000"
     height="12.500000"
     x="125.00000"
     y="552.36218"
     transform="matrix(2.181818,0.000000,0.000000,2.181818,-272.7273,-1177.881)"
     style="fill:#ffffff;fill-opacity:1.0000000;fill-rule:evenodd;stroke:none;stroke-width:1.0000000pt;stroke-linecap:butt;stroke-linejoin:miter;stroke-opacity:1.0000000;"
     id="rect17223" />
  <rect
     width="261.25000"
     height="12.500000"
     x="125.00000"
     y="577.36218"
     transform="matrix(2.181818,0.000000,0.000000,2.181818,-272.7273,-1177.881)"
     style="fill:#ffffff;fill-opacity:1.0000000;fill-rule:evenodd;stroke:none;stroke-width:1.0000000pt;stroke-linecap:butt;stroke-linejoin:miter;stroke-opacity:1.0000000;"
     id="rect17224" />
  <rect
     width="261.25000"
     height="12.500000"
     x="125.00000"
     y="602.36218"
     transform="matrix(2.181818,0.000000,0.000000,2.181818,-272.7273,-1177.881)"
     style="fill:#ffffff;fill-opacity:1.0000000;fill-rule:evenodd;stroke:none;stroke-width:1.0000000pt;stroke-linecap:butt;stroke-linejoin:miter;stroke-opacity:1.0000000;"
     id="rect17225" />
  <rect
     width="62.500000"
     height="62.500000"
     x="125.00000"
     y="539.86218"
     transform="matrix(2.181818,0.000000,0.000000,2.181818,-272.7273,-1177.881)"
     style="fill:#00337f;fill-opacity:1.0000000;fill-rule:evenodd;stroke:none;stroke-width:1.0000000pt;stroke-linecap:butt;stroke-linejoin:miter;stroke-opacity:1.0000000;"
     id="rect17227" />
  <path
     d="M 138.41870,565.32082 L 152.04178,565.32082 L 156.24995,552.36219 L 160.45813,565.32082 L 174.08120,565.32082 L 163.06149,573.32856 L 167.26966,586.28719 L 156.24995,578.27945 L 145.23024,586.28719 L 149.43841,573.32856 L 138.41870,565.32082 z "
     transform="matrix(2.181818,0.000000,0.000000,2.181818,-272.7273,-1177.881)"
     style="fill:#ffffff;fill-opacity:1.0000000;fill-rule:evenodd;stroke:none;stroke-width:1.0000000pt;stroke-linecap:butt;stroke-linejoin:miter;stroke-opacity:1.0000000;"
     id="path2203" />
  </g>
</svg>
