<?xml version="1.0" encoding="UTF-8" standalone="no"?>
<!DOCTYPE svg PUBLIC "-//W3C//DTD SVG 1.0//EN"
"http://www.w3.org/TR/2001/REC-SVG-20010904/DTD/svg10.dtd">
<!-- Created with Inkscape (http://www.inkscape.org/) -->
<svg
   xmlns="http://www.w3.org/2000/svg"
   xmlns:xlink="http://www.w3.org/1999/xlink"
   version="1.0"
   x="0.0000000"
   y="0.0000000"
   width="135.00000"
   height="90.00000"
   id="svg1">
  <defs
     id="defs3">
  <g transform="scale(0.3)">
    <linearGradient
       id="linearGradient4659">
      <stop
         style="stop-color:#ff0000;stop-opacity:1.0000000;"
         offset="0.0000000"
         id="stop4660" />
      <stop
         style="stop-color:#ffffff;stop-opacity:1.0000000;"
         offset="1.0000000"
         id="stop4661" />
    </linearGradient>
  </defs>
  <rect
     width="56.250000"
     height="37.500000"
     x="125.00000"
     y="639.86218"
     transform="matrix(8.000000,0.000000,0.000000,7.999999,-1000.000,-5118.897)"
     style="fill:#003f87;fill-opacity:1.0000000;fill-rule:evenodd;stroke:none;stroke-width:1.0000000pt;stroke-linecap:butt;stroke-linejoin:miter;stroke-opacity:1.0000000;"
     id="rect908" />
  <path
     d="M 125.00000,677.36218 L 181.25000,677.36218 L 181.25000,639.86218 L 125.00000,677.36218 z "
     transform="matrix(8.000000,0.000000,0.000000,7.999999,-1000.000,-5118.897)"
     style="fill:#009e60;fill-opacity:1.0000000;fill-rule:evenodd;stroke:none;stroke-width:1.0000000pt;stroke-linecap:butt;stroke-linejoin:miter;stroke-opacity:1.0000000;"
     id="path2773" />
  <path
     d="M 125.00000,677.36218 L 136.26735,677.36218 L 181.25000,647.37374 L 181.25000,639.86218 L 169.98265,639.86218 L 125.00000,669.85062 L 125.00000,677.36218 z "
     transform="matrix(8.000000,0.000000,0.000000,7.999999,-1000.000,-5118.897)"
     style="fill:#ffffff;fill-opacity:1.0000000;fill-rule:evenodd;stroke:none;stroke-width:1.0000000pt;stroke-linecap:butt;stroke-linejoin:miter;stroke-opacity:1.0000000;"
     id="path4017" />
  <path
     d="M 125.00000,677.36218 L 133.45051,677.36218 L 181.25000,645.49585 L 181.25000,639.86218 L 172.79949,639.86218 L 125.00000,671.72850 L 125.00000,677.36218 z "
     transform="matrix(8.000000,0.000000,0.000000,7.999999,-1000.000,-5118.897)"
     style="fill:#ce1126;fill-opacity:1.0000000;fill-rule:evenodd;stroke:none;stroke-width:1.0000000pt;stroke-linecap:butt;stroke-linejoin:miter;stroke-opacity:1.0000000;"
     id="path5260" />
  <path
     d="M 462.50000,600.00000 L 452.79431,573.72219 L 431.25000,591.62656 L 435.98350,564.01650 L 408.37344,568.75000 L 426.27781,547.20569 L 400.00000,537.50000 L 426.27781,527.79431 L 408.37344,506.25000 L 435.98350,510.98350 L 431.25000,483.37344 L 452.79431,501.27781 L 462.50000,475.00000 L 472.20569,501.27781 L 493.75000,483.37344 L 489.01650,510.98350 L 516.62656,506.25000 L 498.72219,527.79431 L 525.00000,537.50000 L 498.72219,547.20569 L 516.62656,568.75000 L 489.01650,564.01650 L 493.75000,591.62656 L 472.20569,573.72219 L 462.50000,600.00000 z "
     transform="matrix(0.800000,0.000000,0.000000,0.800000,-280.0000,-348.2000)"
     style="fill:#fcd116;fill-opacity:1.0000000;fill-rule:evenodd;stroke:none;stroke-width:1.0000000pt;stroke-linecap:butt;stroke-linejoin:miter;stroke-opacity:1.0000000;"
     id="path4037" />
  <path
     d="M 462.50000,500.00000 C 441.80000,500.00000 425.00000,516.79997 425.00000,537.50000 C 425.00000,558.20001 441.80000,574.99999 462.50000,575.00000 C 483.20000,575.00000 500.00000,558.19999 500.00000,537.50000 C 500.00000,516.79999 483.20000,500.00000 462.50000,500.00000 z M 462.50000,506.25000 C 479.75000,506.25002 493.75000,520.25000 493.75000,537.50000 C 493.75000,554.74997 479.75000,568.75000 462.50000,568.75000 C 445.25001,568.75003 431.25000,554.75000 431.25000,537.50000 C 431.25001,520.24998 445.25000,506.25000 462.50000,506.25000 z "
     transform="matrix(0.800000,0.000000,0.000000,0.800000,-280.0000,-348.2000)"
     style="fill:#003f87;fill-opacity:1.0000000;fill-rule:evenodd;stroke:none;stroke-width:1.0000000pt;stroke-linecap:butt;stroke-linejoin:miter;stroke-opacity:1.0000000;"
     id="path4663" />
  </g>
</svg>
