<?xml version="1.0" encoding="UTF-8" standalone="no"?>
<!DOCTYPE svg PUBLIC "-//W3C//DTD SVG 1.0//EN"
"http://www.w3.org/TR/2001/REC-SVG-20010904/DTD/svg10.dtd">
<!-- Created with Inkscape (http://www.inkscape.org/) -->
<svg
   xmlns="http://www.w3.org/2000/svg"
   xmlns:xlink="http://www.w3.org/1999/xlink"
   version="1.0"
   x="0.0000000"
   y="0.0000000"
   width="135.00000"
   height="90.00000"
   id="svg1">
  <defs
     id="defs3" />
  <g transform="scale(0.3)">
  <rect
     width="243.75000"
     height="162.50000"
     x="125.00000"
     y="514.86218"
     transform="matrix(1.846154,0.000000,0.000000,1.846154,-230.7692,-950.5149)"
     style="fill:#007c59;fill-opacity:1.0000000;fill-rule:evenodd;stroke:none;stroke-width:1.0000000pt;stroke-linecap:butt;stroke-linejoin:miter;stroke-opacity:1.0000000"
     id="rect4026" />
  <rect
     width="243.75000"
     height="40.625000"
     x="125.00000"
     y="596.11218"
     transform="matrix(1.846154,0.000000,0.000000,1.846154,-230.7692,-950.5149)"
     style="fill:#f9d616;fill-opacity:1.0000000;fill-rule:evenodd;stroke:none;stroke-width:1.0000000pt;stroke-linecap:butt;stroke-linejoin:miter;stroke-opacity:1.0000000"
     id="rect5269" />
  <rect
     width="243.75000"
     height="81.250000"
     x="125.00000"
     y="514.86218"
     transform="matrix(1.846154,0.000000,0.000000,1.846154,-230.7692,-950.5149)"
     style="fill:#0084c9;fill-opacity:1.0000000;fill-rule:evenodd;stroke:none;stroke-width:1.0000000pt;stroke-linecap:butt;stroke-linejoin:miter;stroke-opacity:1.0000000"
     id="rect5891" />
  <path
     d="M 299.45644,867.83261 L 307.69004,625.29241 L 193.55044,839.45521 L 264.27744,607.31041 L 98.597643,784.63421 L 226.99824,578.70501 L 21.069043,707.10561 L 198.39284,541.42581 L -33.751957,612.15281 L 180.41084,498.01321 L -62.129357,506.24681 L 174.27744,451.42581 L -62.129357,396.60481 L 180.41084,404.83841 L -33.751957,290.69881 L 198.39284,361.42581 L 21.069043,195.74601 L 226.99824,324.14661 L 98.597643,118.21741 L 264.27744,295.54121 L 193.55044,63.396414 L 307.69004,277.55921 L 299.45644,35.019014 L 354.27744,271.42581 L 409.09844,35.019014 L 400.86484,277.55921 L 515.00444,63.396414 L 444.27744,295.54121 L 609.95724,118.21741 L 481.55664,324.14661 L 687.48584,195.74601 L 510.16204,361.42581 L 742.30684,290.69881 L 528.14404,404.83841 L 770.68424,396.60481 L 534.27744,451.42581 L 770.68424,506.24681 L 528.14404,498.01321 L 742.30684,612.15281 L 510.16204,541.42581 L 687.48584,707.10561 L 481.55664,578.70501 L 609.95724,784.63421 L 444.27744,607.31041 L 515.00444,839.45521 L 400.86484,625.29241 L 409.09844,867.83261 L 354.27744,631.42581 L 299.45644,867.83261 z "
     transform="matrix(0.116380,0.000000,0.000000,0.116380,328.0000,22.46290)"
     style="fill:#eaaf0f;fill-opacity:1.0000000;fill-rule:evenodd;stroke:none;stroke-width:1.0000000pt;stroke-linecap:butt;stroke-linejoin:miter;stroke-opacity:1.0000000"
     id="path908" />
  <path
     d="M -249.14410 282.64816 A 160.00000 160.00000 0 1 1  -569.14410,282.64816 A 160.00000 160.00000 0 1 1  -249.14410 282.64816 z"
     transform="matrix(0.116380,0.000000,0.000000,0.116380,416.8472,42.10524)"
     style="fill:#0084c9;fill-opacity:1.0000000;fill-rule:evenodd;stroke:none;stroke-width:1.0000000pt;stroke-linecap:butt;stroke-linejoin:miter;stroke-opacity:1.0000000"
     id="path1531" />
  <path
     d="M -475.30908 338.69531 A 130.00000 130.00000 0 1 1  -735.30908,338.69531 A 130.00000 130.00000 0 1 1  -475.30908 338.69531 z"
     transform="matrix(0.116380,0.000000,0.000000,0.116380,439.6769,35.58260)"
     style="fill:#eaaf0f;fill-opacity:1.0000000;fill-rule:evenodd;stroke:none;stroke-width:1.0000000pt;stroke-linecap:butt;stroke-linejoin:miter;stroke-opacity:1.0000000"
     id="path2158" />
  </g>
</svg>
