<?xml version="1.0" encoding="UTF-8" standalone="no"?>
<!DOCTYPE svg PUBLIC "-//W3C//DTD SVG 1.0//EN"
"http://www.w3.org/TR/2001/REC-SVG-20010904/DTD/svg10.dtd">
<!-- Created with Inkscape (http://www.inkscape.org/) -->
<svg
   xmlns="http://www.w3.org/2000/svg"
   xmlns:xlink="http://www.w3.org/1999/xlink"
   version="1.0"
   x="0.0000000"
   y="0.0000000"
   width="135.00000"
   height="90.00000"
   id="svg15340">
  <defs
     id="defs15342" />
  <g transform="scale(0.3)">
  <rect
     width="600.00000"
     height="300.00000"
     x="125.00000"
     y="377.36218"
     transform="translate(-125.0000,-377.3622)"
     style="fill:#fcd116;fill-opacity:1.0000000;fill-rule:evenodd;stroke:none;stroke-width:1.0000000pt;stroke-linecap:butt;stroke-linejoin:miter;stroke-opacity:1.0000000;"
     id="rect15349" />
  <rect
     width="375.00000"
     height="187.50000"
     x="125.00000"
     y="489.86218"
     transform="matrix(0.800000,0.000000,0.000000,0.800000,-100.0000,-391.8898)"
     style="fill:#002b7f;fill-opacity:1.0000000;fill-rule:evenodd;stroke:none;stroke-width:1.0000000pt;stroke-linecap:butt;stroke-linejoin:miter;stroke-opacity:1.0000000;"
     id="rect908" />
  <path
     d="M 125.00000,677.36218 L 166.92500,677.36218 L 500.00000,510.82468 L 500.00000,489.86218 L 458.07500,489.86218 L 125.00000,656.39968 L 125.00000,677.36218 z "
     transform="matrix(0.800000,0.000000,0.000000,0.800000,-100.0000,-391.8898)"
     style="fill:#ffffff;fill-opacity:1.0000000;fill-rule:evenodd;stroke:none;stroke-width:1.0000000pt;stroke-linecap:butt;stroke-linejoin:miter;stroke-opacity:1.0000000;"
     id="path4640" />
  <path
     d="M 500.00000,677.36218 L 458.07500,677.36218 L 125.00000,510.82468 L 125.00000,489.86218 L 166.92500,489.86218 L 500.00000,656.39968 L 500.00000,677.36218 z "
     transform="matrix(0.800000,0.000000,0.000000,0.800000,-100.0000,-391.8898)"
     style="fill:#ffffff;fill-opacity:1.0000000;fill-rule:evenodd;stroke:none;stroke-width:1.0000000pt;stroke-linecap:butt;stroke-linejoin:miter;stroke-opacity:1.0000000;"
     id="path6505" />
  <rect
     width="62.500000"
     height="187.50000"
     x="281.25000"
     y="489.86218"
     transform="matrix(0.800000,0.000000,0.000000,0.800000,-100.0000,-391.8898)"
     style="fill:#ffffff;fill-opacity:1.0000000;fill-rule:evenodd;stroke:none;stroke-width:1.0000000pt;stroke-linecap:butt;stroke-linejoin:miter;stroke-opacity:1.0000000;"
     id="rect1530" />
  <rect
     width="375.00000"
     height="62.500000"
     x="125.00000"
     y="552.36218"
     transform="matrix(0.800000,0.000000,0.000000,0.800000,-100.0000,-391.8898)"
     style="fill:#ffffff;fill-opacity:1.0000000;fill-rule:evenodd;stroke:none;stroke-width:1.0000000pt;stroke-linecap:butt;stroke-linejoin:miter;stroke-opacity:1.0000000;"
     id="rect2152" />
  <rect
     width="375.00000"
     height="37.500000"
     x="125.00000"
     y="564.86218"
     transform="matrix(0.800000,0.000000,0.000000,0.800000,-100.0000,-391.8898)"
     style="fill:#ce1126;fill-opacity:1.0000000;fill-rule:evenodd;stroke:none;stroke-width:1.0000000pt;stroke-linecap:butt;stroke-linejoin:miter;stroke-opacity:1.0000000;"
     id="rect3395" />
  <rect
     width="37.500000"
     height="187.50000"
     x="293.75000"
     y="489.86218"
     transform="matrix(0.800000,0.000000,0.000000,0.800000,-100.0000,-391.8898)"
     style="fill:#ce1126;fill-opacity:1.0000000;fill-rule:evenodd;stroke:none;stroke-width:1.0000000pt;stroke-linecap:butt;stroke-linejoin:miter;stroke-opacity:1.0000000;"
     id="rect4017" />
  <path
     d="M 125.00000,677.36218 L 152.95000,677.36218 L 277.95000,614.86218 L 250.00000,614.86218 L 125.00000,677.36218 z "
     transform="matrix(0.800000,0.000000,0.000000,0.800000,-100.0000,-391.8898)"
     style="fill:#ce1126;fill-opacity:1.0000000;fill-rule:evenodd;stroke:none;stroke-width:1.0000000pt;stroke-linecap:butt;stroke-linejoin:miter;stroke-opacity:1.0000000;"
     id="path7127" />
  <path
     d="M 347.05000,552.36218 L 375.00000,552.36218 L 500.00000,489.86218 L 472.05000,489.86218 L 347.05000,552.36218 z "
     transform="matrix(0.800000,0.000000,0.000000,0.800000,-100.0000,-391.8898)"
     style="fill:#ce1126;fill-opacity:1.0000000;fill-rule:evenodd;stroke:none;stroke-width:1.0000000pt;stroke-linecap:butt;stroke-linejoin:miter;stroke-opacity:1.0000000;"
     id="path8371" />
  <path
     d="M 500.00000,677.36218 L 500.00000,663.38718 L 402.95000,614.86218 L 375.00000,614.86218 L 500.00000,677.36218 z "
     transform="matrix(0.800000,0.000000,0.000000,0.800000,-100.0000,-391.8898)"
     style="fill:#ce1126;fill-opacity:1.0000000;fill-rule:evenodd;stroke:none;stroke-width:1.0000000pt;stroke-linecap:butt;stroke-linejoin:miter;stroke-opacity:1.0000000;"
     id="path8994" />
  <path
     d="M 125.00000,489.86218 L 125.00000,503.83718 L 222.05000,552.36218 L 250.00000,552.36218 L 125.00000,489.86218 z "
     transform="matrix(0.800000,0.000000,0.000000,0.800000,-100.0000,-391.8898)"
     style="fill:#ce1126;fill-opacity:1.0000000;fill-rule:evenodd;stroke:none;stroke-width:1.0000000pt;stroke-linecap:butt;stroke-linejoin:miter;stroke-opacity:1.0000000;"
     id="path9616" />
  <path
     d="M 321.02341 529.79938 A 74.857475 93.571846 0 1 0 171.30846,529.79938 A 74.857475 93.571846 0 1 0 321.02341 529.79938 z"
     transform="matrix(0.333968,0.000000,0.000000,0.267174,67.78850,-66.54860)"
     style="fill:#002b7f;fill-opacity:1.0000000;fill-rule:evenodd;stroke:none;stroke-width:1.0000000pt;stroke-linecap:butt;stroke-linejoin:miter;stroke-opacity:1.0000000;"
     id="path16014" />
  <path
     d="M 251.22505,444.63724 L 269.38915,444.63724 L 275.00005,427.36225 L 280.61095,444.63724 L 298.77505,444.63724 L 284.08210,455.31226 L 289.69300,472.58725 L 275.00005,461.91223 L 260.30710,472.58725 L 265.91800,455.31226 L 251.22505,444.63724 z "
     transform="translate(-125.0000,-377.3622)"
     style="fill:#fcd116;fill-opacity:1.0000000;fill-rule:evenodd;stroke:none;stroke-width:1.0000000pt;stroke-linecap:butt;stroke-linejoin:miter;stroke-opacity:1.0000000;"
     id="path2203" />
  <path
     d="M 260.73497,499.16563 L 271.63343,499.16563 L 274.99997,488.79968 L 278.36651,499.16563 L 289.26497,499.16563 L 280.44920,505.57123 L 283.81574,515.93718 L 274.99997,509.53158 L 266.18420,515.93718 L 269.55074,505.57123 L 260.73497,499.16563 z "
     transform="translate(-125.0000,-377.3622)"
     style="fill:#fcd116;fill-opacity:1.0000000;fill-rule:evenodd;stroke:none;stroke-width:1.0000000pt;stroke-linecap:butt;stroke-linejoin:miter;stroke-opacity:1.0000000;"
     id="path988" />
  <path
     d="M 260.73497,399.16563 L 271.63343,399.16563 L 274.99997,388.79968 L 278.36651,399.16563 L 289.26497,399.16563 L 280.44920,405.57123 L 283.81574,415.93718 L 274.99997,409.53158 L 266.18420,415.93718 L 269.55074,405.57123 L 260.73497,399.16563 z "
     transform="translate(-125.0000,-377.3622)"
     style="fill:#fcd116;fill-opacity:1.0000000;fill-rule:evenodd;stroke:none;stroke-width:1.0000000pt;stroke-linecap:butt;stroke-linejoin:miter;stroke-opacity:1.0000000;"
     id="path1616" />
  <path
     d="M 173.23499,449.15939 L 184.13345,449.15939 L 187.49999,438.79344 L 190.86653,449.15939 L 201.76499,449.15939 L 192.94922,455.56499 L 196.31576,465.93094 L 187.49999,459.52534 L 178.68422,465.93094 L 182.05076,455.56499 L 173.23499,449.15939 z "
     transform="translate(-125.0000,-377.3622)"
     style="fill:#fcd116;fill-opacity:1.0000000;fill-rule:evenodd;stroke:none;stroke-width:1.0000000pt;stroke-linecap:butt;stroke-linejoin:miter;stroke-opacity:1.0000000;"
     id="path1626" />
  <path
     d="M 348.23495,449.15939 L 359.13341,449.15939 L 362.49995,438.79344 L 365.86649,449.15939 L 376.76495,449.15939 L 367.94918,455.56499 L 371.31572,465.93094 L 362.49995,459.52534 L 353.68418,465.93094 L 357.05072,455.56499 L 348.23495,449.15939 z "
     transform="translate(-125.0000,-377.3622)"
     style="fill:#fcd116;fill-opacity:1.0000000;fill-rule:evenodd;stroke:none;stroke-width:1.0000000pt;stroke-linecap:butt;stroke-linejoin:miter;stroke-opacity:1.0000000;"
     id="path1631" />
  </g>
</svg>
