<?xml version="1.0" encoding="UTF-8" standalone="no"?>
<!DOCTYPE svg PUBLIC "-//W3C//DTD SVG 1.0//EN"
"http://www.w3.org/TR/2001/REC-SVG-20010904/DTD/svg10.dtd">
<!-- Created with Inkscape (http://www.inkscape.org/) -->
<svg
   xmlns="http://www.w3.org/2000/svg"
   xmlns:xlink="http://www.w3.org/1999/xlink"
   version="1.0"
   x="0.0000000"
   y="0.0000000"
   width="135.00000"
   height="90.00000"
   id="svg1542">
  <defs
     id="defs1544" />
  <g transform="scale(0.3)">
  <rect
     width="150.00000"
     height="75.000000"
     x="125.00000"
     y="602.36218"
     transform="matrix(4.000000,0.000000,0.000000,4.000000,-500.0000,-2409.449)"
     style="fill:#ce1126;fill-opacity:1.0000000;fill-rule:evenodd;stroke:none;stroke-width:1.0000000pt;stroke-linecap:butt;stroke-linejoin:miter;stroke-opacity:1.0000000;"
     id="rect1551" />
  <rect
     width="100.00000"
     height="37.500000"
     x="175.00000"
     y="602.36218"
     transform="matrix(4.000000,0.000000,0.000000,4.000000,-500.0000,-2409.449)"
     style="fill:#fcd116;fill-opacity:1.0000000;fill-rule:evenodd;stroke:none;stroke-width:1.0000000pt;stroke-linecap:butt;stroke-linejoin:miter;stroke-opacity:1.0000000;"
     id="rect2175" />
  <rect
     width="100.00000"
     height="37.500000"
     x="175.00000"
     y="639.86218"
     transform="matrix(4.000000,0.000000,0.000000,4.000000,-500.0000,-2409.449)"
     style="fill:#009e49;fill-opacity:1.0000000;fill-rule:evenodd;stroke:none;stroke-width:1.0000000pt;stroke-linecap:butt;stroke-linejoin:miter;stroke-opacity:1.0000000;"
     id="rect2797" />
  <path
     d="M 121.50627,707.31588 L 130.58832,707.31588 L 133.39376,698.67839 L 136.19921,707.31588 L 145.28126,707.31588 L 137.93479,712.65340 L 140.74024,721.29089 L 133.39376,715.95338 L 126.04729,721.29089 L 128.85274,712.65340 L 121.50627,707.31588 z "
     transform="matrix(4.000000,0.000000,0.000000,4.000000,-433.5750,-2694.714)"
     style="fill:#000000;fill-opacity:1.0000000;fill-rule:evenodd;stroke:none;stroke-width:1.0000000pt;stroke-linecap:butt;stroke-linejoin:miter;stroke-opacity:1.0000000;"
     id="path2203" />
  </g>
</svg>
