<?xml version="1.0" encoding="UTF-8" standalone="no"?>
<!DOCTYPE svg PUBLIC "-//W3C//DTD SVG 1.0//EN"
"http://www.w3.org/TR/2001/REC-SVG-20010904/DTD/svg10.dtd">
<!-- Created with Inkscape (http://www.inkscape.org/) -->
<svg
   xmlns="http://www.w3.org/2000/svg"
   xmlns:xlink="http://www.w3.org/1999/xlink"
   version="1.0"
   x="0.0000000"
   y="0.0000000"
   width="135.00000"
   height="90.00000"
   id="svg1">
  <defs
     id="defs3" />
  <g transform="scale(0.3)">
  <g
     transform="matrix(1.200000,0.000000,0.000000,1.200000,6.000000e-6,2.085937e-5)"
     id="g1136">
    <rect
       width="500.00000"
       height="250.00000"
       rx="0.0000000"
       ry="0.0000000"
       x="125.00000"
       y="427.36218"
       transform="translate(-125.0000,-427.3622)"
       style="fill:#002b7f;fill-opacity:1.0000000;fill-rule:evenodd;stroke:none;stroke-width:1.0000000pt;stroke-linecap:butt;stroke-linejoin:miter;stroke-opacity:1.0000000;"
       id="rect2777" />
    <path
       d="M 192.18217,434.76093 L 174.82687,488.72213 L 121.81737,468.64683 L 153.18507,515.86013 L 104.43867,544.78783 L 160.90887,549.70053 L 153.13267,605.84813 L 192.18217,564.76093 L 231.23167,605.84813 L 223.45547,549.70053 L 279.92567,544.78783 L 231.17927,515.86013 L 262.54697,468.64683 L 209.53747,488.72213 L 192.18217,434.76093 z "
       transform="matrix(0.416667,0.000000,0.000000,0.416667,44.92410,-31.15060)"
       style="fill:#ffffff;fill-opacity:1.0000000;fill-rule:evenodd;stroke:none;stroke-width:1.0000000pt;stroke-linecap:butt;stroke-linejoin:miter;stroke-opacity:1.0000000;"
       id="path908" />
    <path
       d="M 497.01882,622.58047 L 493.57548,633.28653 L 483.05823,629.30353 L 489.28168,638.67079 L 479.61025,644.41014 L 490.81410,645.38483 L 489.27128,656.52468 L 497.01882,648.37286 L 504.76636,656.52468 L 503.22354,645.38483 L 514.42739,644.41014 L 504.75596,638.67079 L 510.97941,629.30353 L 500.46216,633.28653 L 497.01882,622.58047 z "
       transform="translate(-125.0000,-427.3622)"
       style="fill:#ffffff;fill-opacity:1.0000000;fill-rule:evenodd;stroke:none;stroke-width:1.0000000pt;stroke-linecap:butt;stroke-linejoin:miter;stroke-opacity:1.0000000;"
       id="path4680" />
    <path
       d="M 192.18217,434.76093 L 174.82687,488.72213 L 121.81737,468.64683 L 153.18507,515.86013 L 104.43867,544.78783 L 160.90887,549.70053 L 153.13267,605.84813 L 192.18217,564.76093 L 231.23167,605.84813 L 223.45547,549.70053 L 279.92567,544.78783 L 231.17927,515.86013 L 262.54697,468.64683 L 209.53747,488.72213 L 192.18217,434.76093 z "
       transform="matrix(0.198403,0.000000,0.000000,0.198403,333.8893,-59.47040)"
       style="fill:#ffffff;fill-opacity:1.0000000;fill-rule:evenodd;stroke:none;stroke-width:1.0000000pt;stroke-linecap:butt;stroke-linejoin:miter;stroke-opacity:1.0000000;"
       id="path5308" />
    <path
       d="M 192.18217,434.76093 L 174.82687,488.72213 L 121.81737,468.64683 L 153.18507,515.86013 L 104.43867,544.78783 L 160.90887,549.70053 L 153.13267,605.84813 L 192.18217,564.76093 L 231.23167,605.84813 L 223.45547,549.70053 L 279.92567,544.78783 L 231.17927,515.86013 L 262.54697,468.64683 L 209.53747,488.72213 L 192.18217,434.76093 z "
       transform="matrix(0.198403,0.000000,0.000000,0.198403,274.3643,16.51720)"
       style="fill:#ffffff;fill-opacity:1.0000000;fill-rule:evenodd;stroke:none;stroke-width:1.0000000pt;stroke-linecap:butt;stroke-linejoin:miter;stroke-opacity:1.0000000;"
       id="path5939" />
    <path
       d="M 192.18217,434.76093 L 174.82687,488.72213 L 121.81737,468.64683 L 153.18507,515.86013 L 104.43867,544.78783 L 160.90887,549.70053 L 153.13267,605.84813 L 192.18217,564.76093 L 231.23167,605.84813 L 223.45547,549.70053 L 279.92567,544.78783 L 231.17927,515.86013 L 262.54697,468.64683 L 209.53747,488.72213 L 192.18217,434.76093 z "
       transform="matrix(0.198403,0.000000,0.000000,0.198403,392.4143,-11.39530)"
       style="fill:#ffffff;fill-opacity:1.0000000;fill-rule:evenodd;stroke:none;stroke-width:1.0000000pt;stroke-linecap:butt;stroke-linejoin:miter;stroke-opacity:1.0000000;"
       id="path5942" />
    <path
       d="M 65.410182,110.29851 L 41.898782,167.93781 L -20.184918,172.48701 L 27.367882,212.65921 L 12.509482,273.11001 L 65.410182,240.29851 L 118.31088,273.11001 L 103.45248,212.65921 L 151.00528,172.48701 L 88.921582,167.93781 L 65.410182,110.29851 z "
       transform="matrix(0.115759,0.000000,0.000000,0.115764,392.4344,112.2189)"
       style="fill:#ffffff;fill-opacity:1.0000000;fill-rule:evenodd;stroke:none;stroke-width:1.0000000pt;stroke-linecap:butt;stroke-linejoin:miter;stroke-opacity:1.0000000;"
       id="path6568" />
    <g
       transform="matrix(0.666667,0.000000,0.000000,0.666667,-83.33338,-326.5748)"
       id="g1655">
      <rect
         width="375.00000"
         height="187.50000"
         x="125.00000"
         y="489.86218"
         style="fill:#002b7f;fill-opacity:1.0000000;fill-rule:evenodd;stroke:none;stroke-width:1.0000000pt;stroke-linecap:butt;stroke-linejoin:miter;stroke-opacity:1.0000000;"
         id="rect908" />
      <path
         d="M 125.00000,677.36218 L 166.92500,677.36218 L 500.00000,510.82468 L 500.00000,489.86218 L 458.07500,489.86218 L 125.00000,656.39968 L 125.00000,677.36218 z "
         style="fill:#ffffff;fill-opacity:1.0000000;fill-rule:evenodd;stroke:none;stroke-width:1.0000000pt;stroke-linecap:butt;stroke-linejoin:miter;stroke-opacity:1.0000000;"
         id="path4640" />
      <path
         d="M 500.00000,677.36218 L 458.07500,677.36218 L 125.00000,510.82468 L 125.00000,489.86218 L 166.92500,489.86218 L 500.00000,656.39968 L 500.00000,677.36218 z "
         style="fill:#ffffff;fill-opacity:1.0000000;fill-rule:evenodd;stroke:none;stroke-width:1.0000000pt;stroke-linecap:butt;stroke-linejoin:miter;stroke-opacity:1.0000000;"
         id="path6505" />
      <rect
         width="62.500000"
         height="187.50000"
         x="281.25000"
         y="489.86218"
         style="fill:#ffffff;fill-opacity:1.0000000;fill-rule:evenodd;stroke:none;stroke-width:1.0000000pt;stroke-linecap:butt;stroke-linejoin:miter;stroke-opacity:1.0000000;"
         id="rect1530" />
      <rect
         width="375.00000"
         height="62.500000"
         x="125.00000"
         y="552.36218"
         style="fill:#ffffff;fill-opacity:1.0000000;fill-rule:evenodd;stroke:none;stroke-width:1.0000000pt;stroke-linecap:butt;stroke-linejoin:miter;stroke-opacity:1.0000000;"
         id="rect2152" />
      <rect
         width="375.00000"
         height="37.500000"
         x="125.00000"
         y="564.86218"
         style="fill:#ce1126;fill-opacity:1.0000000;fill-rule:evenodd;stroke:none;stroke-width:1.0000000pt;stroke-linecap:butt;stroke-linejoin:miter;stroke-opacity:1.0000000;"
         id="rect3395" />
      <rect
         width="37.500000"
         height="187.50000"
         x="293.75000"
         y="489.86218"
         style="fill:#ce1126;fill-opacity:1.0000000;fill-rule:evenodd;stroke:none;stroke-width:1.0000000pt;stroke-linecap:butt;stroke-linejoin:miter;stroke-opacity:1.0000000;"
         id="rect4017" />
      <path
         d="M 125.00000,677.36218 L 152.95000,677.36218 L 277.95000,614.86218 L 250.00000,614.86218 L 125.00000,677.36218 z "
         style="fill:#ce1126;fill-opacity:1.0000000;fill-rule:evenodd;stroke:none;stroke-width:1.0000000pt;stroke-linecap:butt;stroke-linejoin:miter;stroke-opacity:1.0000000;"
         id="path7127" />
      <path
         d="M 347.05000,552.36218 L 375.00000,552.36218 L 500.00000,489.86218 L 472.05000,489.86218 L 347.05000,552.36218 z "
         style="fill:#ce1126;fill-opacity:1.0000000;fill-rule:evenodd;stroke:none;stroke-width:1.0000000pt;stroke-linecap:butt;stroke-linejoin:miter;stroke-opacity:1.0000000;"
         id="path8371" />
      <path
         d="M 500.00000,677.36218 L 500.00000,663.38718 L 402.95000,614.86218 L 375.00000,614.86218 L 500.00000,677.36218 z "
         style="fill:#ce1126;fill-opacity:1.0000000;fill-rule:evenodd;stroke:none;stroke-width:1.0000000pt;stroke-linecap:butt;stroke-linejoin:miter;stroke-opacity:1.0000000;"
         id="path8994" />
      <path
         d="M 125.00000,489.86218 L 125.00000,503.83718 L 222.05000,552.36218 L 250.00000,552.36218 L 125.00000,489.86218 z "
         style="fill:#ce1126;fill-opacity:1.0000000;fill-rule:evenodd;stroke:none;stroke-width:1.0000000pt;stroke-linecap:butt;stroke-linejoin:miter;stroke-opacity:1.0000000;"
         id="path9616" />
    </g>
  </g>
  </g>
</svg>
