<?xml version="1.0" encoding="UTF-8" standalone="no"?>
<!-- Created with Sodipodi ("http://www.sodipodi.com/") -->

<svg
   xmlns:dc="http://purl.org/dc/elements/1.1/"
   xmlns:cc="http://creativecommons.org/ns#"
   xmlns:rdf="http://www.w3.org/1999/02/22-rdf-syntax-ns#"
   xmlns:svg="http://www.w3.org/2000/svg"
   xmlns="http://www.w3.org/2000/svg"
   xmlns:sodipodi="http://sodipodi.sourceforge.net/DTD/sodipodi-0.dtd"
   xmlns:inkscape="http://www.inkscape.org/namespaces/inkscape"
   id="svg734"
   sodipodi:version="0.33pre"
   width="135"
   height="90"
   sodipodi:docname="ir.svg"
   version="1.1"
   inkscape:version="0.48.1 r9760">
  <sodipodi:namedview
     id="base"
     snaptoguides="true"
     showgrid="false"
     snaptogrid="true"
     inkscape:zoom="0.3778322"
     inkscape:cx="434.05511"
     inkscape:cy="248.03149"
     inkscape:window-width="1280"
     inkscape:window-height="746"
     inkscape:window-x="0"
     inkscape:window-y="24"
     inkscape:window-maximized="1"
     inkscape:current-layer="svg734" />
  <metadata
     id="metadata4587">
    <rdf:RDF>
      <cc:Work
         rdf:about="">
        <dc:format>image/svg+xml</dc:format>
        <dc:type
           rdf:resource="http://purl.org/dc/dcmitype/StillImage" />
      </cc:Work>
    </rdf:RDF>
  </metadata>
  <defs
     id="defs736">
    <clipPath
       clipPathUnits="userSpaceOnUse"
       id="clipPath7329">
      <rect
         id="rect7331"
         height="496.06302"
         x="185.98123"
         style="fill:#000000;fill-opacity:0.67000002;stroke:none"
         width="496.06302"
         y="-1.7760443e-05" />
    </clipPath>
    <clipPath
       clipPathUnits="userSpaceOnUse"
       id="clipPath6805">
      <rect
         id="rect6807"
         height="512"
         x="-85.311478"
         style="fill:#000000;fill-opacity:0.67000002;stroke:none"
         width="682.66669"
         y="7.859413e-06" />
    </clipPath>
  </defs>
  <g transform="scale(0.21)">
  <g
     id="flag"
     transform="matrix(0.93749999,0,0,0.93749999,79.97951,-7.3681994e-6)"
     clip-path="url(#clipPath6805)"
     inkscape:label="#g4383">
    <rect
       style="font-size:12px;fill:#ffffff;fill-opacity:1;fill-rule:evenodd;stroke-width:1pt"
       id="rect1052"
       width="895.99994"
       height="512"
       x="-191.95622"
       y="1.4202524e-05" />
    <rect
       style="font-size:12px;fill:#da0000;fill-opacity:1;fill-rule:evenodd;stroke-width:1pt"
       id="rect1927"
       width="895.99994"
       height="168.16319"
       x="-191.95622"
       y="343.83676" />
    <g
       id="g772"
       style="font-size:12px;fill:#ffffff;fill-opacity:1"
       transform="matrix(1.5197274,0,0,1.5197274,-70.359502,36.805684)">
      <rect
         style="font-size:12px;fill:#ffffff;fill-opacity:1;fill-rule:evenodd;stroke-width:1pt"
         id="rect750"
         width="32.289215"
         height="2.2217407"
         x="32.067047"
         y="206.71898" />
      <rect
         style="font-size:12px;fill:#ffffff;fill-opacity:1;fill-rule:evenodd;stroke-width:1pt"
         id="rect751"
         width="2.2217309"
         height="2.157608"
         x="36.880817"
         y="217.82764" />
      <rect
         style="font-size:12px;fill:#ffffff;fill-opacity:1;fill-rule:evenodd;stroke-width:1pt"
         id="rect753"
         width="2.221741"
         height="6.452971"
         x="217.76349"
         y="-64.440262"
         transform="matrix(0,1,-1,0,0,0)" />
      <rect
         style="font-size:12px;fill:#ffffff;fill-opacity:1;fill-rule:evenodd;stroke-width:1pt"
         id="rect755"
         width="2.221741"
         height="13.266297"
         x="67.911041"
         y="206.71898" />
      <rect
         style="font-size:12px;fill:#ffffff;fill-opacity:1;fill-rule:evenodd;stroke-width:1pt"
         id="rect756"
         width="2.221741"
         height="12.229487"
         x="217.76353"
         y="-80.76503"
         transform="matrix(0,1,-1,0,0,0)" />
      <rect
         style="font-size:12px;fill:#ffffff;fill-opacity:1;fill-rule:evenodd;stroke-width:1pt"
         id="rect757"
         width="2.221741"
         height="7.4157338"
         x="57.987293"
         y="212.56952" />
      <rect
         style="font-size:12px;fill:#ffffff;fill-opacity:1;fill-rule:evenodd;stroke-width:1pt"
         id="rect758"
         width="2.221741"
         height="13.266297"
         x="67.911041"
         y="206.71898"
         transform="translate(11.03462,-1.525879e-5)" />
      <rect
         style="font-size:12px;fill:#ffffff;fill-opacity:1;fill-rule:evenodd;stroke-width:1pt"
         id="rect759"
         width="2.221741"
         height="13.266297"
         x="73.391327"
         y="206.71896" />
      <rect
         style="font-size:12px;fill:#ffffff;fill-opacity:1;fill-rule:evenodd;stroke-width:1pt"
         id="rect760"
         width="2.221741"
         height="11.785137"
         x="212.00314"
         y="-43.903214"
         transform="matrix(0,1,-1,0,0.00922203,-1.525879e-5)" />
      <rect
         style="font-size:12px;fill:#ffffff;fill-opacity:1;fill-rule:evenodd;stroke-width:1pt"
         id="rect763"
         width="2.221741"
         height="11.785137"
         x="212.00316"
         y="-69.77243"
         transform="matrix(0,1,-1,0,0,0)" />
      <rect
         style="font-size:12px;fill:#ffffff;fill-opacity:1;fill-rule:evenodd;stroke-width:1pt"
         id="rect764"
         width="2.221741"
         height="7.4157338"
         x="57.987293"
         y="212.56952" />
      <rect
         style="font-size:12px;fill:#ffffff;fill-opacity:1;fill-rule:evenodd;stroke-width:1pt"
         id="rect765"
         width="2.221741"
         height="7.4157338"
         x="57.987293"
         y="212.56952" />
      <rect
         style="font-size:12px;fill:#ffffff;fill-opacity:1;fill-rule:evenodd;stroke-width:1pt"
         id="rect766"
         width="2.221741"
         height="7.4157338"
         x="57.987293"
         y="212.56952" />
      <rect
         style="font-size:12px;fill:#ffffff;fill-opacity:1;fill-rule:evenodd;stroke-width:1pt"
         id="rect767"
         width="2.221741"
         height="7.4157338"
         x="32.299431"
         y="212.56947"
         transform="translate(-0.172131,-1.525879e-5)" />
      <rect
         style="font-size:12px;fill:#ffffff;fill-opacity:1;fill-rule:evenodd;stroke-width:1pt"
         id="rect768"
         width="2.221741"
         height="7.4157338"
         x="51.081951"
         y="212.5695" />
      <rect
         style="font-size:12px;fill:#ffffff;fill-opacity:1;fill-rule:evenodd;stroke-width:1pt"
         id="rect769"
         width="2.221741"
         height="7.4157338"
         x="41.690693"
         y="212.56949"
         transform="translate(0,-1.525879e-5)" />
      <rect
         style="font-size:12px;fill:#ffffff;fill-opacity:1;fill-rule:evenodd;stroke-width:1pt"
         id="rect770"
         width="2.221741"
         height="9.9621267"
         x="217.76346"
         y="-52.640785"
         transform="matrix(0,1,-1,0,0,0)" />
      <rect
         style="font-size:12px;fill:#ffffff;fill-opacity:1;fill-rule:evenodd;stroke-width:1pt"
         id="rect771"
         width="2.221741"
         height="6.3161101"
         x="212.00311"
         y="-53.303696"
         transform="matrix(0,1,-1,0,0,0)" />
    </g>
    <g
       id="g791"
       style="font-size:12px;fill:#ffffff;fill-opacity:1"
       transform="matrix(1.5197274,0,0,1.5197274,-150.95522,36.805705)">
      <rect
         style="font-size:12px;fill:#ffffff;fill-opacity:1;fill-rule:evenodd;stroke-width:1pt"
         id="rect792"
         width="32.289215"
         height="2.2217407"
         x="32.067047"
         y="206.71898" />
      <rect
         style="font-size:12px;fill:#ffffff;fill-opacity:1;fill-rule:evenodd;stroke-width:1pt"
         id="rect793"
         width="2.2217309"
         height="2.157608"
         x="36.880817"
         y="217.82764" />
      <rect
         style="font-size:12px;fill:#ffffff;fill-opacity:1;fill-rule:evenodd;stroke-width:1pt"
         id="rect794"
         width="2.221741"
         height="6.452971"
         x="217.76349"
         y="-64.440262"
         transform="matrix(0,1,-1,0,0,0)" />
      <rect
         style="font-size:12px;fill:#ffffff;fill-opacity:1;fill-rule:evenodd;stroke-width:1pt"
         id="rect795"
         width="2.221741"
         height="13.266297"
         x="67.911041"
         y="206.71898" />
      <rect
         style="font-size:12px;fill:#ffffff;fill-opacity:1;fill-rule:evenodd;stroke-width:1pt"
         id="rect796"
         width="2.221741"
         height="12.229487"
         x="217.76353"
         y="-80.76503"
         transform="matrix(0,1,-1,0,0,0)" />
      <rect
         style="font-size:12px;fill:#ffffff;fill-opacity:1;fill-rule:evenodd;stroke-width:1pt"
         id="rect797"
         width="2.221741"
         height="7.4157338"
         x="57.987293"
         y="212.56952" />
      <rect
         style="font-size:12px;fill:#ffffff;fill-opacity:1;fill-rule:evenodd;stroke-width:1pt"
         id="rect798"
         width="2.221741"
         height="13.266297"
         x="67.911041"
         y="206.71898"
         transform="translate(11.03462,-1.525879e-5)" />
      <rect
         style="font-size:12px;fill:#ffffff;fill-opacity:1;fill-rule:evenodd;stroke-width:1pt"
         id="rect799"
         width="2.221741"
         height="13.266297"
         x="73.391327"
         y="206.71896" />
      <rect
         style="font-size:12px;fill:#ffffff;fill-opacity:1;fill-rule:evenodd;stroke-width:1pt"
         id="rect800"
         width="2.221741"
         height="11.785137"
         x="212.00314"
         y="-43.903214"
         transform="matrix(0,1,-1,0,0.00922203,-1.525879e-5)" />
      <rect
         style="font-size:12px;fill:#ffffff;fill-opacity:1;fill-rule:evenodd;stroke-width:1pt"
         id="rect801"
         width="2.221741"
         height="11.785137"
         x="212.00316"
         y="-69.77243"
         transform="matrix(0,1,-1,0,0,0)" />
      <rect
         style="font-size:12px;fill:#ffffff;fill-opacity:1;fill-rule:evenodd;stroke-width:1pt"
         id="rect802"
         width="2.221741"
         height="7.4157338"
         x="57.987293"
         y="212.56952" />
      <rect
         style="font-size:12px;fill:#ffffff;fill-opacity:1;fill-rule:evenodd;stroke-width:1pt"
         id="rect803"
         width="2.221741"
         height="7.4157338"
         x="57.987293"
         y="212.56952" />
      <rect
         style="font-size:12px;fill:#ffffff;fill-opacity:1;fill-rule:evenodd;stroke-width:1pt"
         id="rect804"
         width="2.221741"
         height="7.4157338"
         x="57.987293"
         y="212.56952" />
      <rect
         style="font-size:12px;fill:#ffffff;fill-opacity:1;fill-rule:evenodd;stroke-width:1pt"
         id="rect805"
         width="2.221741"
         height="7.4157338"
         x="32.299431"
         y="212.56947"
         transform="translate(-0.172131,-1.525879e-5)" />
      <rect
         style="font-size:12px;fill:#ffffff;fill-opacity:1;fill-rule:evenodd;stroke-width:1pt"
         id="rect806"
         width="2.221741"
         height="7.4157338"
         x="51.081951"
         y="212.5695" />
      <rect
         style="font-size:12px;fill:#ffffff;fill-opacity:1;fill-rule:evenodd;stroke-width:1pt"
         id="rect807"
         width="2.221741"
         height="7.4157338"
         x="41.690693"
         y="212.56949"
         transform="translate(0,-1.525879e-5)" />
      <rect
         style="font-size:12px;fill:#ffffff;fill-opacity:1;fill-rule:evenodd;stroke-width:1pt"
         id="rect808"
         width="2.221741"
         height="9.9621267"
         x="217.76346"
         y="-52.640785"
         transform="matrix(0,1,-1,0,0,0)" />
      <rect
         style="font-size:12px;fill:#ffffff;fill-opacity:1;fill-rule:evenodd;stroke-width:1pt"
         id="rect809"
         width="2.221741"
         height="6.3161101"
         x="212.00311"
         y="-53.303696"
         transform="matrix(0,1,-1,0,0,0)" />
    </g>
    <g
       id="g812"
       style="font-size:12px;fill:#ffffff;fill-opacity:1"
       transform="matrix(1.5197274,0,0,1.5197274,9.5645862,36.805684)">
      <rect
         style="font-size:12px;fill:#ffffff;fill-opacity:1;fill-rule:evenodd;stroke-width:1pt"
         id="rect813"
         width="32.289215"
         height="2.2217407"
         x="32.067047"
         y="206.71898" />
      <rect
         style="font-size:12px;fill:#ffffff;fill-opacity:1;fill-rule:evenodd;stroke-width:1pt"
         id="rect814"
         width="2.2217309"
         height="2.157608"
         x="36.880817"
         y="217.82764" />
      <rect
         style="font-size:12px;fill:#ffffff;fill-opacity:1;fill-rule:evenodd;stroke-width:1pt"
         id="rect815"
         width="2.221741"
         height="6.452971"
         x="217.76349"
         y="-64.440262"
         transform="matrix(0,1,-1,0,0,0)" />
      <rect
         style="font-size:12px;fill:#ffffff;fill-opacity:1;fill-rule:evenodd;stroke-width:1pt"
         id="rect816"
         width="2.221741"
         height="13.266297"
         x="67.911041"
         y="206.71898" />
      <rect
         style="font-size:12px;fill:#ffffff;fill-opacity:1;fill-rule:evenodd;stroke-width:1pt"
         id="rect817"
         width="2.221741"
         height="12.229487"
         x="217.76353"
         y="-80.76503"
         transform="matrix(0,1,-1,0,0,0)" />
      <rect
         style="font-size:12px;fill:#ffffff;fill-opacity:1;fill-rule:evenodd;stroke-width:1pt"
         id="rect818"
         width="2.221741"
         height="7.4157338"
         x="57.987293"
         y="212.56952" />
      <rect
         style="font-size:12px;fill:#ffffff;fill-opacity:1;fill-rule:evenodd;stroke-width:1pt"
         id="rect819"
         width="2.221741"
         height="13.266297"
         x="67.911041"
         y="206.71898"
         transform="translate(11.03462,-1.525879e-5)" />
      <rect
         style="font-size:12px;fill:#ffffff;fill-opacity:1;fill-rule:evenodd;stroke-width:1pt"
         id="rect820"
         width="2.221741"
         height="13.266297"
         x="73.391327"
         y="206.71896" />
      <rect
         style="font-size:12px;fill:#ffffff;fill-opacity:1;fill-rule:evenodd;stroke-width:1pt"
         id="rect821"
         width="2.221741"
         height="11.785137"
         x="212.00314"
         y="-43.903214"
         transform="matrix(0,1,-1,0,0.00922203,-1.525879e-5)" />
      <rect
         style="font-size:12px;fill:#ffffff;fill-opacity:1;fill-rule:evenodd;stroke-width:1pt"
         id="rect822"
         width="2.221741"
         height="11.785137"
         x="212.00316"
         y="-69.77243"
         transform="matrix(0,1,-1,0,0,0)" />
      <rect
         style="font-size:12px;fill:#ffffff;fill-opacity:1;fill-rule:evenodd;stroke-width:1pt"
         id="rect823"
         width="2.221741"
         height="7.4157338"
         x="57.987293"
         y="212.56952" />
      <rect
         style="font-size:12px;fill:#ffffff;fill-opacity:1;fill-rule:evenodd;stroke-width:1pt"
         id="rect824"
         width="2.221741"
         height="7.4157338"
         x="57.987293"
         y="212.56952" />
      <rect
         style="font-size:12px;fill:#ffffff;fill-opacity:1;fill-rule:evenodd;stroke-width:1pt"
         id="rect825"
         width="2.221741"
         height="7.4157338"
         x="57.987293"
         y="212.56952" />
      <rect
         style="font-size:12px;fill:#ffffff;fill-opacity:1;fill-rule:evenodd;stroke-width:1pt"
         id="rect826"
         width="2.221741"
         height="7.4157338"
         x="32.299431"
         y="212.56947"
         transform="translate(-0.172131,-1.525879e-5)" />
      <rect
         style="font-size:12px;fill:#ffffff;fill-opacity:1;fill-rule:evenodd;stroke-width:1pt"
         id="rect827"
         width="2.221741"
         height="7.4157338"
         x="51.081951"
         y="212.5695" />
      <rect
         style="font-size:12px;fill:#ffffff;fill-opacity:1;fill-rule:evenodd;stroke-width:1pt"
         id="rect828"
         width="2.221741"
         height="7.4157338"
         x="41.690693"
         y="212.56949"
         transform="translate(0,-1.525879e-5)" />
      <rect
         style="font-size:12px;fill:#ffffff;fill-opacity:1;fill-rule:evenodd;stroke-width:1pt"
         id="rect829"
         width="2.221741"
         height="9.9621267"
         x="217.76346"
         y="-52.640785"
         transform="matrix(0,1,-1,0,0,0)" />
      <rect
         style="font-size:12px;fill:#ffffff;fill-opacity:1;fill-rule:evenodd;stroke-width:1pt"
         id="rect830"
         width="2.221741"
         height="6.3161101"
         x="212.00311"
         y="-53.303696"
         transform="matrix(0,1,-1,0,0,0)" />
    </g>
    
    <g
       id="g1043"
       transform="matrix(1.0321269,0,0,1.0321269,-179.65416,-532.01444)">
      <path
         inkscape:connector-curvature="0"
         style="fill:#da0000;fill-opacity:1;fill-rule:evenodd;stroke:none"
         d="m 445.163,706.814 c 8.19,10.039 33.438,65.548 -15.241,101.906 -22.884,17.223 -8.714,18.093 -8.037,20.988 36.785,-19.539 48.799,-46.013 48.52,-69.727 -0.28,-23.715 -12.853,-44.669 -25.242,-53.167 z"
         id="path1928"
         sodipodi:nodetypes="cscsc" />
      <path
         inkscape:connector-curvature="0"
         style="fill:#da0000;fill-opacity:1;fill-rule:evenodd;stroke:none"
         d="m 450.032,704.227 c 18.166,9.301 57.701,56.079 15.149,108.854 26.439,-5.868 60.053,-83.729 -15.149,-108.854 z"
         id="path1929"
         sodipodi:nodetypes="ccc" />
      <path
         inkscape:connector-curvature="0"
         style="fill:#da0000;fill-opacity:1;fill-rule:evenodd;stroke:none"
         d="m 394.24,704.227 c -18.166,9.301 -57.701,56.079 -15.149,108.854 -26.439,-5.868 -60.053,-83.729 15.149,-108.854 z"
         id="path1930"
         sodipodi:nodetypes="ccc" />
      <path
         inkscape:connector-curvature="0"
         style="fill:#da0000;fill-opacity:1;fill-rule:evenodd;stroke:none"
         d="m 399.043,706.814 c -8.19,10.039 -33.438,65.548 15.241,101.906 22.884,17.223 8.714,18.093 8.037,20.988 -36.785,-19.539 -48.799,-46.013 -48.52,-69.727 0.28,-23.715 12.853,-44.669 25.242,-53.167 z"
         id="path1931"
         sodipodi:nodetypes="cscsc" />
      <path
         inkscape:connector-curvature="0"
         style="fill:#da0000;fill-opacity:1;fill-rule:evenodd;stroke:none"
         d="m 468.795,824.646 c -14.398,0.228 -32.549,-1.984 -46.01,-8.979 2.217,4.311 4.059,7.026 6.276,11.337 12.838,1.184 30.554,2.649 39.734,-2.358 z"
         id="path1932"
         sodipodi:nodetypes="cccc" />
      <path
         inkscape:connector-curvature="0"
         style="fill:#da0000;fill-opacity:1;fill-rule:evenodd;stroke:none"
         d="m 376.775,824.646 c 14.398,0.228 32.549,-1.984 46.01,-8.979 -2.217,4.311 -4.059,7.026 -6.276,11.337 -12.838,1.184 -30.554,2.649 -39.734,-2.358 z"
         id="path1933"
         sodipodi:nodetypes="cccc" />
      <path
         inkscape:connector-curvature="0"
         style="fill:#da0000;fill-opacity:1;fill-rule:evenodd;stroke:none"
         d="m 403.192,690.249 c 2.917,7.753 10.57,8.88 18.762,4.315 5.97,3.582 15.202,3.809 18.386,-3.94 2.421,19.169 -17.736,14.634 -18.487,10.882 -7.504,7.254 -21.475,3.064 -18.661,-11.257 z"
         id="path1934"
         sodipodi:nodetypes="ccccc" />
      <path
         inkscape:connector-curvature="0"
         style="fill:#da0000;fill-opacity:1;fill-rule:evenodd;stroke:none"
         d="m 422.49,836.723 7.57,-8.652 1.082,-116.437 -9.012,-7.931 -9.012,7.57 1.802,117.159 7.57,8.291 z"
         id="path1042"
         sodipodi:nodetypes="ccccccc" />
    </g>
  </g>
</g>
</svg>
